PretendardBase.glyphspackage
{
glyphname = quotesingle;
kernLeft = quotedbl;
kernRight = quotedbl;
layers = (
{
layerId = "B1F27B51-9973-4381-9301-4FE46FE1CA59";
shapes = (
{
closed = 1;
nodes = (
(224,2048,l),
(224,1408,l),
(288,1408,l),
(288,2048,l)
);
}
);
width = 512;
},
{
layerId = "C698F293-3EC0-4A5A-A3A0-0FDB1F5CF265";
shapes = (
{
closed = 1;
nodes = (
(178,2048,l),
(178,1344,l),
(398,1344,l),
(398,2048,l)
);
}
);
width = 580;
},
{
guides = (
{
pos = (-140,1240);
},
{
pos = (-140,764);
}
);
layerId = "5C20EF92-B63D-42A8-8878-93C2863E0093";
shapes = (
{
closed = 1;
nodes = (
(100,2048,l),
(100,1220,l),
(460,1220,l),
(460,2048,l)
);
}
);
width = 564;
}
);
unicode = 39;
userData = {
"interface.width-adjustments" = (
-16
);
};
}
{
glyphname = asterisk;
kernLeft = asciicircum;
kernRight = asciicircum;
layers = (
{
guides = (
{
angle = 30;
pos = (568,2056);
},
{
orientation = center;
pos = (648,2056);
},
{
angle = -30;
pos = (568,2056);
}
);
layerId = "B1F27B51-9973-4381-9301-4FE46FE1CA59";
shapes = (
{
closed = 1;
nodes = (
(704,1417,l),
(1156,1156,l),
(1188,1212,l),
(736,1472,l),
(1188,1732,l),
(1156,1788,l),
(704,1527,l),
(704,2048,l),
(640,2048,l),
(640,1527,l),
(188,1788,l),
(156,1732,l),
(608,1472,l),
(156,1212,l),
(188,1156,l),
(640,1417,l),
(640,896,l),
(704,896,l)
);
}
);
width = 1344;
},
{
associatedMasterId = "B1F27B51-9973-4381-9301-4FE46FE1CA59";
background = {
shapes = (
{
closed = 1;
nodes = (
(800,896,l),
(784,1336,l),
(1156,1100,l),
(1252,1268,l),
(860,1472,l),
(1252,1676,l),
(1156,1844,l),
(784,1608,l),
(800,2048,l),
(608,2048,l),
(624,1608,l),
(252,1844,l),
(156,1676,l),
(548,1472,l),
(156,1268,l),
(252,1100,l),
(624,1336,l),
(608,896,l)
);
}
);
};
guides = (
{
angle = 30;
pos = (704,1472);
},
{
orientation = center;
pos = (784,1472);
},
{
angle = -30;
pos = (704,1472);
}
);
layerId = "F49FED06-13CF-4C84-978D-8F5A7D370851";
name = "Dec 27 18, 16:33/64";
shapes = (
{
closed = 0;
nodes = (
(704,2048,l),
(704,896,l)
);
},
{
closed = 0;
nodes = (
(1204,1760,l),
(204,1184,l)
);
},
{
closed = 0;
nodes = (
(1204,1184,l),
(204,1760,l)
);
}
);
width = 1408;
},
{
associatedMasterId = "C698F293-3EC0-4A5A-A3A0-0FDB1F5CF265";
guides = (
{
pos = (784,1344);
},
{
angle = -30;
pos = (704,1472);
},
{
angle = 30;
pos = (704,1472);
},
{
orientation = center;
angle = 90;
pos = (980,1408);
}
);
layerId = "243F3215-096B-472B-B93F-12968743793A";
name = _base;
shapes = (
{
closed = 1;
nodes = (
(608,896,l),
(800,896,l),
(800,2048,l),
(608,2048,l)
);
},
{
closed = 1;
nodes = (
(156,1268,l),
(252,1100,l),
(1252,1676,l),
(1156,1844,l)
);
},
{
closed = 1;
nodes = (
(252,1844,l),
(156,1676,l),
(1156,1100,l),
(1252,1268,l)
);
}
);
width = 1408;
},
{
background = {
shapes = (
{
closed = 1;
nodes = (
(788,1320,o),
(856,1388,o),
(856,1472,cs),
(856,1556,o),
(788,1624,o),
(704,1624,cs),
(620,1624,o),
(552,1556,o),
(552,1472,cs),
(552,1388,o),
(620,1320,o),
(704,1320,cs)
);
}
);
};
guides = (
{
pos = (740,1472);
},
{
angle = -30;
pos = (660,1472);
},
{
angle = 30;
pos = (660,1472);
},
{
orientation = center;
angle = 90;
pos = (936,1408);
}
);
layerId = "C698F293-3EC0-4A5A-A3A0-0FDB1F5CF265";
shapes = (
{
closed = 1;
nodes = (
(762,1334,l),
(1134,1101,l),
(1230,1267,l),
(842,1472,l),
(1230,1677,l),
(1134,1843,l),
(762,1610,l),
(778,2048,l),
(586,2048,l),
(602,1610,l),
(230,1843,l),
(134,1677,l),
(522,1472,l),
(134,1267,l),
(230,1101,l),
(602,1334,l),
(586,896,l),
(778,896,l)
);
}
);
width = 1364;
},
{
associatedMasterId = "5C20EF92-B63D-42A8-8878-93C2863E0093";
guides = (
{
pos = (0,1238.875);
},
{
pos = (0,763.125);
},
{
orientation = center;
pos = (832,1472);
showMeasurement = 1;
},
{
orientation = center;
angle = 90;
pos = (876,1472);
},
{
angle = -30;
pos = (832,1472);
},
{
angle = 30;
pos = (832,1472);
}
);
layerId = "6C341CA2-3645-4717-8B78-141166D73486";
name = _base;
shapes = (
{
closed = 1;
nodes = (
(-72,1028,l),
(64,1264,l),
(-248,1432,l),
(64,1604,l),
(-72,1844,l),
(-360,1668,l),
(-336,1984,l),
(-660,1984,l),
(-636,1668,l),
(-928,1844,l),
(-1060,1604,l),
(-748,1432,l),
(-1060,1264,l),
(-928,1028,l),
(-636,1200,l),
(-660,884,l),
(-336,884,l),
(-360,1200,l)
);
},
{
closed = 1;
nodes = (
(672,896,l),
(992,896,l),
(992,2048,l),
(672,2048,l)
);
},
{
closed = 1;
nodes = (
(252,1324,l),
(412,1044,l),
(1412,1620,l),
(1252,1900,l)
);
},
{
closed = 1;
nodes = (
(412,1900,l),
(252,1620,l),
(1252,1044,l),
(1412,1324,l)
);
}
);
width = 1664;
},
{
associatedMasterId = "5C20EF92-B63D-42A8-8878-93C2863E0093";
background = {
shapes = (
{
closed = 1;
nodes = (
(955,1248,o),
(1056,1349,o),
(1056,1472,cs),
(1056,1595,o),
(955,1696,o),
(832,1696,cs),
(709,1696,o),
(608,1595,o),
(608,1472,cs),
(608,1349,o),
(709,1248,o),
(832,1248,cs)
);
}
);
};
guides = (
{
pos = (0,1238.875);
},
{
pos = (0,763.125);
},
{
orientation = center;
angle = 90;
pos = (876,1752);
},
{
angle = -30;
pos = (832,1472);
},
{
angle = 30;
pos = (832,1472);
},
{
angle = 60;
pos = (832,1472);
},
{
angle = -60;
pos = (832,1472);
}
);
layerId = "0B1F1CED-72E6-41F4-A3CB-99471E18EA53";
name = "Sep 11 18, 18:19";
shapes = (
{
closed = 1;
nodes = (
(412,1044,l),
(720,1276,l),
(672,896,l),
(992,896,l),
(944,1276,l),
(1252,1044,l),
(1412,1324,l),
(1056,1472,l),
(1412,1620,l),
(1252,1900,l),
(944,1668,l),
(992,2048,l),
(672,2048,l),
(720,1668,l),
(412,1900,l),
(252,1620,l),
(608,1472,l),
(252,1324,l)
);
}
);
width = 1664;
},
{
background = {
shapes = (
{
closed = 1;
nodes = (
(998,1216,o),
(1113,1331,o),
(1112,1472,cs),
(1113,1613,o),
(998,1728,o),
(856,1728,cs),
(716,1728,o),
(601,1613,o),
(600,1472,cs),
(601,1331,o),
(716,1216,o),
(856,1216,cs)
);
}
);
};
guides = (
{
pos = (-124,1240);
},
{
pos = (-124,764);
},
{
orientation = center;
angle = 90;
pos = (752,1752);
},
{
angle = -30;
pos = (708,1472);
},
{
angle = 30;
pos = (708,1472);
},
{
angle = 60;
pos = (708,1472);
},
{
angle = -60;
pos = (708,1472);
}
);
layerId = "5C20EF92-B63D-42A8-8878-93C2863E0093";
shapes = (
{
closed = 1;
nodes = (
(984,1252,l),
(1276,1045,l),
(1436,1323,l),
(1114,1472,l),
(1436,1621,l),
(1276,1899,l),
(984,1694,l),
(1016,2048,l),
(696,2048,l),
(728,1694,l),
(436,1899,l),
(276,1621,l),
(600,1472,l),
(276,1323,l),
(436,1045,l),
(728,1252,l),
(696,896,l),
(1016,896,l)
);
}
);
width = 1712;
},
{
associatedMasterId = "5C20EF92-B63D-42A8-8878-93C2863E0093";
background = {
shapes = (
{
closed = 1;
nodes = (
(998,1216,o),
(1113,1331,o),
(1112,1472,cs),
(1113,1613,o),
(998,1728,o),
(856,1728,cs),
(716,1728,o),
(601,1613,o),
(600,1472,cs),
(601,1331,o),
(716,1216,o),
(856,1216,cs)
);
}
);
};
guides = (
{
pos = (-124,1240);
},
{
pos = (-124,764);
},
{
orientation = center;
angle = 90;
pos = (752,1752);
},
{
angle = -30;
pos = (708,1472);
},
{
angle = 30;
pos = (708,1472);
},
{
angle = 60;
pos = (708,1472);
},
{
angle = -60;
pos = (708,1472);
}
);
layerId = "FCDA3178-8073-46B3-88E9-95C648097B02";
name = "Apr 10, 22 15:19/256";
shapes = (
{
closed = 0;
nodes = (
(856,2048,l),
(856,896,l)
);
},
{
closed = 0;
nodes = (
(1356,1760,l),
(356,1184,l)
);
},
{
closed = 0;
nodes = (
(1356,1184,l),
(356,1760,l)
);
}
);
width = 1712;
},
{
associatedMasterId = "5C20EF92-B63D-42A8-8878-93C2863E0093";
background = {
shapes = (
{
closed = 1;
nodes = (
(998,1216,o),
(1113,1331,o),
(1112,1472,cs),
(1113,1613,o),
(998,1728,o),
(856,1728,cs),
(716,1728,o),
(601,1613,o),
(600,1472,cs),
(601,1331,o),
(716,1216,o),
(856,1216,cs)
);
}
);
};
guides = (
{
pos = (-124,1240);
},
{
pos = (-124,764);
},
{
orientation = center;
angle = 90;
pos = (752,1752);
},
{
angle = -30;
pos = (708,1472);
},
{
angle = 30;
pos = (708,1472);
},
{
angle = 60;
pos = (708,1472);
},
{
angle = -60;
pos = (708,1472);
}
);
layerId = "C5486C01-8875-4DE4-82B1-4B7B960E0327";
name = "Apr 10, 22 15:20/320";
shapes = (
{
closed = 0;
nodes = (
(856,2048,l),
(856,896,l)
);
},
{
closed = 0;
nodes = (
(1356,1760,l),
(356,1184,l)
);
},
{
closed = 0;
nodes = (
(1356,1184,l),
(356,1760,l)
);
}
);
width = 1712;
},
{
associatedMasterId = "C698F293-3EC0-4A5A-A3A0-0FDB1F5CF265";
background = {
shapes = (
{
closed = 1;
nodes = (
(788,1320,o),
(856,1388,o),
(856,1472,cs),
(856,1556,o),
(788,1624,o),
(704,1624,cs),
(620,1624,o),
(552,1556,o),
(552,1472,cs),
(552,1388,o),
(620,1320,o),
(704,1320,cs)
);
}
);
};
guides = (
{
pos = (740,1472);
},
{
angle = -30;
pos = (660,1472);
},
{
angle = 30;
pos = (660,1472);
},
{
orientation = center;
angle = 90;
pos = (936,1408);
}
);
layerId = "7A4D3D6B-2550-4574-BA7D-87C0C2DB3EC8";
name = "Apr 10, 22 15:20/160";
shapes = (
{
closed = 0;
nodes = (
(682,2048,l),
(682,896,l)
);
},
{
closed = 0;
nodes = (
(1182,1760,l),
(182,1184,l)
);
},
{
closed = 0;
nodes = (
(1182,1184,l),
(182,1760,l)
);
}
);
width = 1364;
},
{
associatedMasterId = "C698F293-3EC0-4A5A-A3A0-0FDB1F5CF265";
background = {
shapes = (
{
closed = 1;
nodes = (
(788,1320,o),
(856,1388,o),
(856,1472,cs),
(856,1556,o),
(788,1624,o),
(704,1624,cs),
(620,1624,o),
(552,1556,o),
(552,1472,cs),
(552,1388,o),
(620,1320,o),
(704,1320,cs)
);
}
);
};
guides = (
{
pos = (740,1472);
},
{
angle = -30;
pos = (660,1472);
},
{
angle = 30;
pos = (660,1472);
},
{
orientation = center;
angle = 90;
pos = (936,1408);
}
);
layerId = "E2293C74-AF5E-454E-BDA2-649D43828C37";
name = "Apr 10, 22 15:25/192";
shapes = (
{
closed = 0;
nodes = (
(682,2048,l),
(682,896,l)
);
},
{
closed = 0;
nodes = (
(1182,1760,l),
(182,1184,l)
);
},
{
closed = 0;
nodes = (
(1182,1184,l),
(182,1760,l)
);
}
);
width = 1364;
}
);
note = "hexagonal angle: 30 deg";
unicode = 42;
userData = {
com.typemytype.robofont.guideline.magnetic.x5LXEmmtln = 5;
"interface.width-adjustments" = (
-16
);
};
}
{
color = (227,245,235,1);
glyphname = three;
kernLeft = three;
kernRight = eight;
layers = (
{
layerId = "B1F27B51-9973-4381-9301-4FE46FE1CA59";
shapes = (
{
closed = 1;
nodes = (
(1227,-28,o),
(1484,217,o),
(1486,532,cs),
(1484,792,o),
(1307,988,o),
(1032,1056,c),
(1032,1064,l),
(1270,1130,o),
(1423,1312,o),
(1424,1552,cs),
(1423,1852,o),
(1186,2076,o),
(856,2076,cs),
(524,2076,o),
(283,1852,o),
(284,1536,c),
(348,1536,l),
(347,1816,o),
(560,2012,o),
(856,2012,cs),
(1154,2012,o),
(1359,1815,o),
(1360,1552,cs),
(1359,1268,o),
(1115,1088,o),
(798,1088,cs),
(766,1088,l),
(766,1024,l),
(798,1024,ls),
(1159,1024,o),
(1421,826,o),
(1422,532,cs),
(1421,259,o),
(1195,36,o),
(860,36,cs),
(542,36,o),
(296,236,o),
(296,512,c),
(232,512,l),
(234,200,o),
(504,-28,o),
(860,-28,cs)
);
}
);
width = 1702;
},
{
associatedMasterId = "B1F27B51-9973-4381-9301-4FE46FE1CA59";
background = {
shapes = (
{
closed = 1;
nodes = (
(1301,-28,o),
(1596,221,o),
(1596,556,cs),
(1596,816,o),
(1442,1005,o),
(1184,1048,c),
(1184,1064,l),
(1391,1127,o),
(1520,1297,o),
(1520,1528,cs),
(1520,1818,o),
(1291,2076,o),
(912,2076,cs),
(558,2076,o),
(264,1858,o),
(252,1536,c),
(492,1536,l),
(501,1740,o),
(695,1860,o),
(908,1860,cs),
(1134,1860,o),
(1280,1723,o),
(1280,1516,cs),
(1280,1300,o),
(1111,1160,o),
(868,1160,cs),
(704,1160,l),
(704,940,l),
(868,940,ls),
(1179,940,o),
(1352,782,o),
(1352,556,cs),
(1352,339,o),
(1163,192,o),
(900,192,cs),
(663,192,o),
(475,314,o),
(460,512,c),
(208,512,l),
(223,190,o),
(507,-28,o),
(904,-28,cs)
);
}
);
};
layerId = "28ACB353-9A8E-4DD7-BCA4-EE6AE891814C";
name = "Dec 25 18, 17:44";
shapes = (
{
closed = 0;
nodes = (
(284,512,l),
(284,214,o),
(527,4,o),
(860,4,cs),
(1201,4,o),
(1436,236,o),
(1436,532,cs),
(1436,852,o),
(1157,1056,o),
(768,1056,c),
(1124,1056,o),
(1376,1251,o),
(1376,1552,cs),
(1376,1830,o),
(1163,2044,o),
(856,2044,cs),
(551,2044,o),
(332,1834,o),
(332,1536,cs)
);
}
);
width = 1727;
},
{
associatedMasterId = "B1F27B51-9973-4381-9301-4FE46FE1CA59";
layerId = "0A62B8A5-A7C3-451F-850C-81F80BB2B336";
name = "May 22, 21 14:06";
shapes = (
{
closed = 1;
nodes = (
(1198,-28,o),
(1448,217,o),
(1448,532,cs),
(1448,792,o),
(1276,988,o),
(1008,1056,c),
(1008,1064,l),
(1240,1130,o),
(1388,1312,o),
(1388,1552,cs),
(1388,1852,o),
(1158,2076,o),
(836,2076,cs),
(514,2076,o),
(280,1852,o),
(280,1536,c),
(344,1536,l),
(344,1816,o),
(550,2012,o),
(836,2012,cs),
(1125,2012,o),
(1324,1815,o),
(1324,1552,cs),
(1324,1268,o),
(1087,1088,o),
(780,1088,cs),
(748,1088,l),
(748,1024,l),
(780,1024,ls),
(1130,1024,o),
(1384,826,o),
(1384,532,cs),
(1384,259,o),
(1165,36,o),
(840,36,cs),
(533,36,o),
(296,236,o),
(296,512,c),
(232,512,l),
(232,200,o),
(494,-28,o),
(840,-28,cs)
);
}
);
width = 1664;
},
{
associatedMasterId = "C698F293-3EC0-4A5A-A3A0-0FDB1F5CF265";
background = {
shapes = (
{
pos = (32,0);
ref = eight;
}
);
};
layerId = "D4AF11EB-7364-4D23-BF19-411D17D61B45";
name = "May 22, 21 11:16";
shapes = (
{
closed = 1;
nodes = (
(1269,-28,o),
(1564,221,o),
(1564,556,cs),
(1564,816,o),
(1410,1005,o),
(1152,1048,c),
(1152,1064,l),
(1359,1127,o),
(1488,1297,o),
(1488,1528,cs),
(1488,1818,o),
(1259,2076,o),
(880,2076,cs),
(526,2076,o),
(232,1858,o),
(220,1536,c),
(460,1536,l),
(469,1740,o),
(663,1860,o),
(876,1860,cs),
(1102,1860,o),
(1248,1723,o),
(1248,1516,cs),
(1248,1300,o),
(1079,1160,o),
(836,1160,cs),
(672,1160,l),
(672,940,l),
(836,940,ls),
(1147,940,o),
(1320,782,o),
(1320,556,cs),
(1320,339,o),
(1131,192,o),
(868,192,cs),
(631,192,o),
(443,314,o),
(428,512,c),
(176,512,l),
(191,190,o),
(475,-28,o),
(872,-28,cs)
);
}
);
width = 1728;
},
{
associatedMasterId = "C698F293-3EC0-4A5A-A3A0-0FDB1F5CF265";
layerId = "AF98C4F5-295E-4E97-8B96-A27C316CE04C";
name = "Sep 23 18, 16:20";
shapes = (
{
closed = 1;
nodes = (
(1215,-28,o),
(1492,209,o),
(1492,544,cs),
(1492,780,o),
(1328,960,o),
(1100,1036,c),
(1100,1052,l),
(1307,1115,o),
(1448,1295,o),
(1448,1520,cs),
(1448,1846,o),
(1196,2076,o),
(832,2076,cs),
(478,2076,o),
(228,1858,o),
(228,1536,c),
(468,1536,l),
(468,1740,o),
(615,1860,o),
(828,1860,cs),
(1051,1860,o),
(1208,1729,o),
(1208,1516,cs),
(1208,1300,o),
(1047,1152,o),
(804,1152,cs),
(688,1152,l),
(688,924,l),
(804,924,ls),
(1055,924,o),
(1248,770,o),
(1248,544,cs),
(1248,327,o),
(1066,192,o),
(832,192,cs),
(613,192,o),
(464,311,o),
(464,512,c),
(208,512,l),
(208,184,o),
(454,-28,o),
(824,-28,cs)
);
}
);
width = 1688;
},
{
background = {
shapes = (
{
closed = 1;
nodes = (
(1275,-34,o),
(1573,218,o),
(1574,560,cs),
(1574,562,ls),
(1573,851,o),
(1371,1037,o),
(1072,1062,c),
(1072,1068,l),
(1328,1121,o),
(1506,1295,o),
(1506,1546,cs),
(1506,1550,ls),
(1506,1857,o),
(1250,2074,o),
(864,2074,cs),
(483,2074,o),
(222,1852,o),
(192,1524,cs),
(190,1510,l),
(422,1510,l),
(424,1524,ls),
(445,1733,o),
(619,1864,o),
(864,1864,cs),
(1116,1864,o),
(1262,1736,o),
(1262,1520,cs),
(1262,1516,ls),
(1262,1309,o),
(1088,1157,o),
(840,1158,cs),
(596,1158,l),
(596,952,l),
(850,952,ls),
(1143,951,o),
(1327,809,o),
(1328,556,cs),
(1328,554,ls),
(1327,332,o),
(1139,177,o),
(868,178,cs),
(590,177,o),
(403,319,o),
(382,524,cs),
(382,538,l),
(148,538,l),
(150,522,ls),
(177,201,o),
(448,-34,o),
(868,-34,cs)
);
}
);
};
layerId = "C698F293-3EC0-4A5A-A3A0-0FDB1F5CF265";
shapes = (
{
closed = 1;
nodes = (
(1304,-28,o),
(1607,220,o),
(1606,556,cs),
(1607,818,o),
(1447,1007,o),
(1182,1048,c),
(1182,1064,l),
(1395,1125,o),
(1529,1295,o),
(1528,1528,cs),
(1529,1819,o),
(1294,2076,o),
(906,2076,cs),
(544,2076,o),
(243,1859,o),
(230,1536,c),
(470,1536,l),
(479,1739,o),
(681,1860,o),
(902,1860,cs),
(1138,1860,o),
(1289,1722,o),
(1290,1516,cs),
(1289,1301,o),
(1114,1160,o),
(862,1160,cs),
(696,1160,l),
(696,940,l),
(862,940,ls),
(1184,940,o),
(1364,781,o),
(1364,556,cs),
(1364,340,o),
(1167,192,o),
(894,192,cs),
(648,192,o),
(452,315,o),
(436,512,c),
(186,512,l),
(201,189,o),
(491,-28,o),
(898,-28,cs)
);
}
);
width = 1780;
},
{
guides = (
{
pos = (184,1436);
},
{
pos = (572,1056);
},
{
pos = (184,624);
}
);
layerId = "5C20EF92-B63D-42A8-8878-93C2863E0093";
shapes = (
{
closed = 1;
nodes = (
(1437,-28,o),
(1790,227,o),
(1788,588,cs),
(1790,839,o),
(1622,1016,o),
(1292,1052,c),
(1292,1068,l),
(1536,1094,o),
(1714,1251,o),
(1712,1480,cs),
(1714,1825,o),
(1394,2076,o),
(940,2076,cs),
(476,2076,o),
(146,1811,o),
(144,1436,c),
(676,1436,l),
(678,1560,o),
(787,1648,o),
(940,1648,cs),
(1080,1648,o),
(1178,1563,o),
(1176,1444,cs),
(1178,1320,o),
(1062,1232,o),
(896,1232,cs),
(688,1232,l),
(688,848,l),
(896,848,ls),
(1076,848,o),
(1202,760,o),
(1200,636,cs),
(1202,509,o),
(1094,420,o),
(940,420,cs),
(780,420,o),
(666,505,o),
(664,624,c),
(104,624,l),
(106,242,o),
(451,-28,o),
(936,-28,cs)
);
}
);
width = 1900;
}
);
unicode = 51;
}
{
color = (227,245,235,1);
glyphname = four;
kernLeft = four;
kernRight = four;
layers = (
{
layerId = "B1F27B51-9973-4381-9301-4FE46FE1CA59";
shapes = (
{
closed = 1;
nodes = (
(1474,480,l),
(1474,544,l),
(270,544,l),
(270,552,l),
(1136,1916,l),
(1184,1916,l),
(1184,2048,l),
(1144,2048,l),
(176,528,l),
(176,480,l)
);
},
{
closed = 1;
nodes = (
(1210,0,l),
(1210,2048,l),
(1146,2048,l),
(1146,520,l),
(1146,500,l),
(1146,0,l)
);
}
);
width = 1650;
},
{
associatedMasterId = "B1F27B51-9973-4381-9301-4FE46FE1CA59";
layerId = "71FF67DD-AAE1-4F96-912A-D80263530103";
name = "May 22, 21 14:06";
shapes = (
{
closed = 1;
nodes = (
(1436,480,l),
(1436,544,l),
(268,544,l),
(268,552,l),
(1108,1916,l),
(1156,1916,l),
(1156,2048,l),
(1116,2048,l),
(176,528,l),
(176,480,l)
);
},
{
closed = 1;
nodes = (
(1180,0,l),
(1180,2048,l),
(1116,2048,l),
(1116,520,l),
(1116,500,l),
(1116,0,l)
);
}
);
width = 1612;
},
{
background = {
shapes = (
{
closed = 1;
nodes = (
(1100,0,l),
(1336,0,l),
(1336,430,l),
(1630,430,l),
(1630,648,l),
(1336,648,l),
(1336,2042,l),
(986,2042,l),
(669,1578,o),
(369,1102,o),
(100,652,c),
(100,430,l),
(1100,430,l)
);
},
{
closed = 1;
nodes = (
(350,646,l),
(350,662,l),
(567,1030,o),
(822,1431,o),
(1086,1814,c),
(1102,1814,l),
(1102,646,l)
);
}
);
};
layerId = "C698F293-3EC0-4A5A-A3A0-0FDB1F5CF265";
shapes = (
{
closed = 1;
nodes = (
(1658,420,l),
(1658,640,l),
(410,640,l),
(410,656,l),
(1110,1732,l),
(1214,1732,l),
(1214,2048,l),
(1068,2048,l),
(142,624,l),
(142,420,l)
);
},
{
closed = 1;
nodes = (
(1370,0,l),
(1370,2048,l),
(1134,2048,l),
(1134,578,l),
(1134,482,l),
(1134,0,l)
);
}
);
width = 1800;
},
{
background = {
shapes = (
{
pos = (-28,0);
ref = A;
}
);
};
guides = (
{
pos = (-44,320);
},
{
pos = (-44,752);
}
);
layerId = "5C20EF92-B63D-42A8-8878-93C2863E0093";
shapes = (
{
closed = 1;
nodes = (
(1880,320,l),
(1880,752,l),
(664,752,l),
(664,768,l),
(1108,1472,l),
(1332,1472,l),
(1332,2048,l),
(940,2048,l),
(116,752,l),
(116,320,l)
);
},
{
closed = 1;
nodes = (
(1644,0,l),
(1644,2048,l),
(1124,2048,l),
(1124,640,l),
(1112,452,l),
(1112,0,l)
);
}
);
width = 1976;
}
);
unicode = 52;
}
{
color = (219,235,247,1);
glyphname = C;
kernLeft = C;
kernRight = C;
layers = (
{
anchors = (
{
name = cedilla;
pos = (1020,0);
},
{
name = top;
pos = (1020,2304);
}
);
layerId = "B1F27B51-9973-4381-9301-4FE46FE1CA59";
shapes = (
{
closed = 1;
nodes = (
(1754,1700,o),
(1502,2076,o),
(1020,2076,cs),
(516,2076,o),
(172,1652,o),
(172,1024,cs),
(172,396,o),
(516,-28,o),
(1020,-28,cs),
(1502,-28,o),
(1754,352,o),
(1804,640,c),
(1736,640,l),
(1686,364,o),
(1438,36,o),
(1020,36,cs),
(600,36,o),
(236,380,o),
(236,1024,cs),
(236,1660,o),
(600,2012,o),
(1020,2012,cs),
(1438,2012,o),
(1686,1680,o),
(1736,1408,c),
(1804,1408,l)
);
}
);
width = 1972;
},
{
anchors = (
{
name = cedilla;
pos = (1050,-16);
},
{
name = top;
pos = (1050,2304);
}
);
background = {
shapes = (
{
ref = O;
}
);
};
guides = (
{
angle = 90;
pos = (1028,1432);
}
);
layerId = "C698F293-3EC0-4A5A-A3A0-0FDB1F5CF265";
shapes = (
{
closed = 1;
nodes = (
(1798,1828,o),
(1462,2076,o),
(1050,2076,cs),
(526,2076,o),
(146,1672,o),
(146,1024,cs),
(146,376,o),
(526,-28,o),
(1050,-28,cs),
(1462,-28,o),
(1798,220,o),
(1874,640,c),
(1626,640,l),
(1566,356,o),
(1322,204,o),
(1050,204,cs),
(678,204,o),
(386,492,o),
(386,1024,cs),
(386,1556,o),
(678,1844,o),
(1050,1844,cs),
(1322,1844,o),
(1566,1692,o),
(1626,1408,c),
(1874,1408,l)
);
}
);
width = 2004;
},
{
anchors = (
{
name = cedilla;
pos = (1100,8);
},
{
name = top;
pos = (1112,2304);
}
);
background = {
hints = (
{
horizontal = 1;
place = (-28,21);
target = up;
type = BottomGhost;
},
{
horizontal = 1;
place = (2076,-20);
target = down;
type = TopGhost;
},
{
horizontal = 1;
options = 4;
place = (-28,0);
type = TTSnap;
},
{
horizontal = 1;
options = 4;
place = (2076,0);
type = TTSnap;
},
{
horizontal = 1;
place = (-28,21);
target = up;
type = BottomGhost;
},
{
horizontal = 1;
place = (2076,-20);
target = down;
type = TopGhost;
},
{
horizontal = 1;
options = 4;
place = (-28,0);
type = TTSnap;
},
{
horizontal = 1;
options = 4;
place = (2076,0);
type = TTSnap;
},
{
horizontal = 1;
place = (-28,21);
target = up;
type = BottomGhost;
},
{
horizontal = 1;
place = (2076,-20);
target = down;
type = TopGhost;
},
{
horizontal = 1;
options = 4;
place = (-28,0);
type = TTSnap;
},
{
horizontal = 1;
options = 4;
place = (2076,0);
type = TTSnap;
}
);
shapes = (
{
ref = O;
}
);
};
guides = (
{
pos = (1012,1024);
},
{
pos = (-136,0);
}
);
layerId = "5C20EF92-B63D-42A8-8878-93C2863E0093";
shapes = (
{
closed = 1;
nodes = (
(2000,1788,o),
(1628,2076,o),
(1112,2076,cs),
(560,2076,o),
(124,1708,o),
(124,1024,cs),
(124,343,o),
(548,-28,o),
(1112,-28,cs),
(1712,-28,o),
(2016,388,o),
(2044,736,c),
(1480,740,l),
(1452,565,o),
(1328,456,o),
(1124,456,cs),
(853,456,o),
(696,648,o),
(696,1024,cs),
(696,1380,o),
(848,1592,o),
(1128,1592,cs),
(1342,1592,o),
(1464,1466,o),
(1480,1280,c),
(2044,1280,l)
);
}
);
width = 2164;
}
);
metricLeft = O;
unicode = 67;
userData = {
com.typemytype.robofont.guideline.magnetic.ju3ppiFr9V = 5;
"interface.width-adjustments" = (
-16
);
};
}
{
color = (219,235,247,1);
glyphname = P;
kernLeft = B;
kernRight = P;
layers = (
{
anchors = (
{
name = tonos;
pos = (228,2048);
},
{
name = top;
pos = (844,2304);
}
);
layerId = "B1F27B51-9973-4381-9301-4FE46FE1CA59";
shapes = (
{
closed = 1;
nodes = (
(352,0,l),
(352,1984,l),
(888,1984,ls),
(1195,1984,o),
(1412,1762,o),
(1412,1448,cs),
(1412,1136,o),
(1195,916,o),
(888,916,cs),
(320,916,l),
(320,852,l),
(888,852,ls),
(1232,852,o),
(1476,1099,o),
(1476,1448,cs),
(1476,1799,o),
(1232,2048,o),
(888,2048,cs),
(288,2048,l),
(288,0,l)
);
}
);
width = 1644;
},
{
anchors = (
{
name = tonos;
pos = (178,2048);
},
{
name = top;
pos = (870,2304);
}
);
guides = (
{
angle = 90;
pos = (1352,1760);
},
{
angle = 90;
pos = (1204,1804);
}
);
layerId = "C698F293-3EC0-4A5A-A3A0-0FDB1F5CF265";
shapes = (
{
closed = 1;
nodes = (
(474,0,l),
(474,1828,l),
(910,1828,ls),
(1243,1828,o),
(1370,1646,o),
(1370,1400,cs),
(1370,1154,o),
(1243,968,o),
(914,968,cs),
(426,968,l),
(426,748,l),
(922,748,ls),
(1399,748,o),
(1614,1038,o),
(1614,1400,cs),
(1614,1762,o),
(1399,2048,o),
(918,2048,cs),
(226,2048,l),
(226,0,l)
);
}
);
width = 1744;
},
{
anchors = (
{
name = tonos;
pos = (104,2048);
},
{
name = top;
pos = (904,2304);
}
);
guides = (
{
pos = (-136,1240);
},
{
pos = (-136,764);
},
{
pos = (-136,1552);
},
{
pos = (672,1372);
}
);
layerId = "5C20EF92-B63D-42A8-8878-93C2863E0093";
shapes = (
{
closed = 1;
nodes = (
(688,0,l),
(688,1604,l),
(884,1604,ls),
(1079,1604,o),
(1196,1500,o),
(1196,1324,cs),
(1196,1149,o),
(1079,1040,o),
(884,1040,cs),
(468,1040,l),
(468,608,l),
(996,608,ls),
(1463,608,o),
(1776,883,o),
(1776,1324,cs),
(1776,1760,o),
(1471,2048,o),
(1016,2048,cs),
(132,2048,l),
(132,0,l)
);
}
);
width = 1848;
}
);
metricLeft = H;
unicode = 80;
userData = {
com.typemytype.robofont.guideline.magnetic.fNIC4eKo9v = 5;
com.typemytype.robofont.guideline.magnetic.hdLF6WxJ6g = 5;
"interface.width-adjustments" = (
-16
);
};
}
{
color = (219,235,247,1);
glyphname = Z;
kernLeft = Z;
kernRight = Z;
layers = (
{
anchors = (
{
name = bottom;
pos = (820,0);
},
{
name = cross;
pos = (820,1024);
},
{
name = top;
pos = (820,2304);
}
);
guides = (
{
angle = 90;
pos = (76,684);
},
{
angle = 90;
pos = (1356,684);
}
);
layerId = "B1F27B51-9973-4381-9301-4FE46FE1CA59";
shapes = (
{
closed = 1;
nodes = (
(1468,0,l),
(1468,64,l),
(256,64,l),
(1460,1984,l),
(1460,2048,l),
(188,2048,l),
(188,1984,l),
(1384,1984,l),
(180,64,l),
(180,0,l)
);
}
);
width = 1640;
},
{
anchors = (
{
name = bottom;
pos = (850,0);
},
{
name = cross;
pos = (878,1056);
},
{
name = top;
pos = (858,2304);
}
);
guides = (
{
angle = 90;
pos = (1548,248);
},
{
angle = 90;
pos = (124,1280);
},
{
angle = 90;
pos = (828,2156);
}
);
layerId = "C698F293-3EC0-4A5A-A3A0-0FDB1F5CF265";
shapes = (
{
closed = 1;
nodes = (
(1570,0,l),
(1570,220,l),
(454,220,l),
(1558,1868,l),
(1558,2048,l),
(146,2048,l),
(146,1828,l),
(1262,1828,l),
(158,180,l),
(158,0,l)
);
}
);
width = 1716;
},
{
anchors = (
{
name = bottom;
pos = (980,0);
},
{
name = cross;
pos = (1020,1084);
},
{
name = top;
pos = (984,2304);
}
);
guides = (
{
pos = (-136,1552);
},
{
angle = 55.0453;
pos = (1544,1788);
},
{
angle = 55.0343;
pos = (-12,276);
},
{
angle = 90;
pos = (-16,1664);
},
{
angle = 90;
pos = (1536,384);
},
{
orientation = center;
angle = 90;
pos = (960,800);
}
);
layerId = "5C20EF92-B63D-42A8-8878-93C2863E0093";
shapes = (
{
closed = 1;
nodes = (
(1812,0,l),
(1812,448,l),
(848,448,l),
(1816,1740,l),
(1816,2048,l),
(144,2048,l),
(144,1600,l),
(1108,1600,l),
(140,308,l),
(140,0,l)
);
}
);
width = 1956;
}
);
unicode = 90;
userData = {
com.typemytype.robofont.guideline.magnetic.7L9fK9Z9Br = 5;
com.typemytype.robofont.guideline.magnetic.DPCAFAyemJ = 5;
com.typemytype.robofont.guideline.magnetic.VxRM18zW9m = 5;
"interface.width-adjustments" = (
-16
);
};
}
{
color = (204,240,242,1);
glyphname = asciicircum;
kernLeft = asciicircum;
kernRight = asciicircum;
layers = (
{
layerId = "B1F27B51-9973-4381-9301-4FE46FE1CA59";
shapes = (
{
closed = 1;
nodes = (
(512,1880,l),
(552,1880,l),
(552,1944,l),
(512,1944,l)
);
},
{
closed = 1;
nodes = (
(172,1120,l),
(548,1920,l),
(516,1920,l),
(892,1120,l),
(964,1120,l),
(556,1984,l),
(508,1984,l),
(100,1120,l)
);
}
);
width = 1064;
},
{
associatedMasterId = "B1F27B51-9973-4381-9301-4FE46FE1CA59";
background = {
shapes = (
{
closed = 1;
nodes = (
(692,1984,l),
(540,1984,l),
(128,1120,l),
(368,1120,l),
(692,1824,l)
);
},
{
closed = 1;
nodes = (
(1224,1120,l),
(812,1984,l),
(660,1984,l),
(660,1824,l),
(988,1120,l)
);
},
{
closed = 1;
nodes = (
(640,1772,l),
(712,1772,l),
(712,1872,l),
(640,1872,l)
);
}
);
};
layerId = "B615D642-EEA5-4A95-8327-16AD9E504C2F";
name = "Dec 27 18, 16:25";
shapes = (
{
closed = 0;
nodes = (
(256,1072,l),
(672,1952,l),
(680,1952,l),
(1096,1072,l)
);
}
);
width = 1352;
},
{
layerId = "C698F293-3EC0-4A5A-A3A0-0FDB1F5CF265";
shapes = (
{
closed = 1;
nodes = (
(602,1772,l),
(674,1772,l),
(674,1872,l),
(602,1872,l)
);
},
{
closed = 1;
nodes = (
(330,1120,l),
(650,1812,l),
(626,1812,l),
(950,1120,l),
(1186,1120,l),
(774,1984,l),
(502,1984,l),
(90,1120,l)
);
}
);
width = 1276;
},
{
guides = (
{
pos = (-140,248);
},
{
pos = (-140,724);
}
);
layerId = "5C20EF92-B63D-42A8-8878-93C2863E0093";
shapes = (
{
closed = 1;
nodes = (
(668,1490,l),
(740,1490,l),
(740,1606,l),
(668,1606,l)
);
},
{
closed = 1;
nodes = (
(540,1120,l),
(728,1568,l),
(680,1568,l),
(868,1120,l),
(1328,1120,l),
(900,2016,l),
(508,2016,l),
(80,1120,l)
);
}
);
width = 1408;
},
{
associatedMasterId = "5C20EF92-B63D-42A8-8878-93C2863E0093";
guides = (
{
pos = (-140,248);
},
{
pos = (-140,724);
}
);
layerId = "74609DCB-BA74-4FB8-AA59-00A741E83220";
name = "Apr 10, 22 12:47";
shapes = (
{
closed = 1;
nodes = (
(668,1680,l),
(740,1680,l),
(740,1796,l),
(668,1796,l)
);
},
{
closed = 1;
nodes = (
(460,1120,l),
(712,1720,l),
(696,1720,l),
(948,1120,l),
(1328,1120,l),
(900,2016,l),
(508,2016,l),
(80,1120,l)
);
}
);
width = 1408;
}
);
unicode = 94;
userData = {
interface.gridadjust.original = "{'width': 1178, 'leftMargin': 84, 'rightMargin': 86}";
"interface.width-adjustments" = (
-16
);
};
}
{
color = (204,240,242,1);
glyphname = brokenbar;
layers = (
{
layerId = "B1F27B51-9973-4381-9301-4FE46FE1CA59";
shapes = (
{
closed = 1;
nodes = (
(320,-288,l),
(384,-288,l),
(384,776,l),
(320,776,l)
);
},
{
closed = 1;
nodes = (
(320,2336,l),
(320,1276,l),
(384,1276,l),
(384,2336,l)
);
}
);
width = 704;
},
{
guides = (
{
pos = (410,832);
},
{
pos = (662,1116);
},
{
pos = (662,552);
}
);
layerId = "C698F293-3EC0-4A5A-A3A0-0FDB1F5CF265";
shapes = (
{
closed = 1;
nodes = (
(338,-288,l),
(538,-288,l),
(538,776,l),
(338,776,l)
);
},
{
closed = 1;
nodes = (
(338,2336,l),
(338,1276,l),
(538,1276,l),
(538,2336,l)
);
}
);
width = 876;
},
{
guides = (
{
pos = (664,1092);
},
{
pos = (700,576);
}
);
layerId = "5C20EF92-B63D-42A8-8878-93C2863E0093";
shapes = (
{
closed = 1;
nodes = (
(300,-288,l),
(840,-288,l),
(840,776,l),
(300,776,l)
);
},
{
closed = 1;
nodes = (
(300,2336,l),
(300,1276,l),
(840,1276,l),
(840,2336,l)
);
}
);
width = 1140;
},
{
associatedMasterId = "5C20EF92-B63D-42A8-8878-93C2863E0093";
background = {
shapes = (
{
ref = bar;
}
);
};
guides = (
{
pos = (664,1092);
},
{
pos = (700,576);
}
);
layerId = "886C3298-EF0F-41DB-BFB0-71690EC325AF";
name = "Jun 16, 21 23:11";
shapes = (
{
ref = bar;
}
);
width = 1088;
}
);
metricLeft = bar;
metricRight = bar;
unicode = 166;
userData = {
com.typemytype.robofont.guideline.magnetic.7XIyiEEc60 = 5;
com.typemytype.robofont.guideline.magnetic.MxvJVkfsW3 = 5;
com.typemytype.robofont.guideline.magnetic.YQqXyZ7Bm4 = 5;
interface.gridadjust.original = "{'width': 690, 'leftMargin': 199, 'rightMargin': 216}";
"interface.width-adjustments" = (
-16
);
};
}
{
color = (204,240,242,1);
glyphname = registered;
kernLeft = registered;
kernRight = registered;
layers = (
{
layerId = "B1F27B51-9973-4381-9301-4FE46FE1CA59";
shapes = (
{
closed = 1;
nodes = (
(722,916,l),
(722,1590,l),
(972,1590,ls),
(1088,1590,o),
(1146,1532,o),
(1146,1434,cs),
(1146,1336,o),
(1088,1274,o),
(972,1274,cs),
(692,1274,l),
(692,1210,l),
(974,1210,ls),
(1126,1210,o),
(1210,1306,o),
(1210,1434,cs),
(1210,1562,o),
(1126,1654,o),
(974,1654,cs),
(658,1654,l),
(658,916,l)
);
},
{
closed = 1;
nodes = (
(988,1248,l),
(1166,916,l),
(1240,916,l),
(1058,1248,l)
);
},
{
closed = 1;
nodes = (
(1354,476,o),
(1712,834,o),
(1712,1276,cs),
(1712,1718,o),
(1354,2076,o),
(912,2076,cs),
(470,2076,o),
(112,1718,o),
(112,1276,cs),
(112,834,o),
(470,476,o),
(912,476,cs)
);
},
{
closed = 1;
nodes = (
(505,540,o),
(176,869,o),
(176,1276,cs),
(176,1683,o),
(505,2012,o),
(912,2012,cs),
(1319,2012,o),
(1648,1683,o),
(1648,1276,cs),
(1648,869,o),
(1319,540,o),
(912,540,cs)
);
}
);
width = 1824;
},
{
associatedMasterId = "C698F293-3EC0-4A5A-A3A0-0FDB1F5CF265";
background = {
shapes = (
{
closed = 1;
nodes = (
(1268,617,o),
(1584,935,o),
(1584,1335,cs),
(1584,1737,o),
(1268,2053,o),
(866,2053,cs),
(466,2053,o),
(149,1737,o),
(149,1335,cs),
(149,935,o),
(466,617,o),
(866,617,cs)
);
},
{
closed = 1;
nodes = (
(546,760,o),
(292,1015,o),
(292,1335,cs),
(292,1657,o),
(546,1910,o),
(866,1910,cs),
(1188,1910,o),
(1441,1657,o),
(1441,1335,cs),
(1441,1015,o),
(1188,760,o),
(866,760,cs)
);
},
{
closed = 1;
nodes = (
(725,1008,l),
(725,1260,l),
(859,1260,l),
(1037,1008,l),
(1202,1008,l),
(1012,1277,l),
(1115,1302,o),
(1172,1374,o),
(1172,1484,cs),
(1172,1605,o),
(1070,1694,o),
(932,1694,cs),
(590,1694,l),
(590,1008,l)
);
},
{
closed = 1;
nodes = (
(725,1572,l),
(899,1572,ls),
(982,1572,o),
(1022,1540,o),
(1022,1477,cs),
(1022,1407,o),
(982,1375,o),
(895,1375,cs),
(725,1375,l)
);
}
);
};
layerId = "D277CCE1-DF74-4CFE-BDF7-2F8A0A2A8266";
name = "May 30 19, 10:31";
shapes = (
{
closed = 1;
nodes = (
(1568,540,o),
(1912,884,o),
(1912,1308,cs),
(1912,1732,o),
(1568,2076,o),
(1144,2076,cs),
(720,2076,o),
(376,1732,o),
(376,1308,cs),
(376,884,o),
(720,540,o),
(1144,540,cs)
);
}
);
width = 2288;
},
{
guides = (
{
pos = (2762,734);
}
);
layerId = "C698F293-3EC0-4A5A-A3A0-0FDB1F5CF265";
shapes = (
{
closed = 1;
nodes = (
(804,916,l),
(804,1534,l),
(958,1534,ls),
(996,1534,o),
(1064,1508,o),
(1064,1418,cs),
(1064,1330,o),
(998,1286,o),
(954,1286,cs),
(734,1286,l),
(734,1166,l),
(1004,1166,ls),
(1102,1166,o),
(1242,1256,o),
(1242,1418,cs),
(1242,1578,o),
(1106,1654,o),
(1016,1654,cs),
(642,1654,l),
(642,916,l)
);
},
{
closed = 1;
nodes = (
(914,1264,l),
(1094,916,l),
(1272,916,l),
(1088,1264,l)
);
},
{
closed = 1;
nodes = (
(1364,476,o),
(1722,834,o),
(1722,1276,cs),
(1722,1718,o),
(1364,2076,o),
(922,2076,cs),
(480,2076,o),
(122,1718,o),
(122,1276,cs),
(122,834,o),
(480,476,o),
(922,476,cs)
);
},
{
closed = 1;
nodes = (
(586,668,o),
(314,940,o),
(314,1276,cs),
(314,1612,o),
(586,1884,o),
(922,1884,cs),
(1258,1884,o),
(1530,1612,o),
(1530,1276,cs),
(1530,940,o),
(1258,668,o),
(922,668,cs)
);
}
);
width = 1844;
},
{
layerId = "5C20EF92-B63D-42A8-8878-93C2863E0093";
shapes = (
{
closed = 1;
nodes = (
(844,916,l),
(844,1498,l),
(944,1498,ls),
(1008,1498,o),
(1042,1466,o),
(1042,1404,cs),
(1042,1345,o),
(1008,1314,o),
(944,1314,cs),
(746,1314,l),
(746,1162,l),
(978,1162,ls),
(1154,1162,o),
(1260,1250,o),
(1260,1404,cs),
(1260,1556,o),
(1158,1654,o),
(984,1654,cs),
(632,1654,l),
(632,916,l)
);
},
{
closed = 1;
nodes = (
(904,1252,l),
(1046,916,l),
(1278,916,l),
(1120,1252,l)
);
},
{
closed = 1;
nodes = (
(1371,476,o),
(1728,834,o),
(1728,1276,cs),
(1728,1718,o),
(1370,2076,o),
(928,2076,cs),
(486,2076,o),
(128,1718,o),
(128,1276,cs),
(128,834,o),
(486,476,o),
(928,476,cs)
);
},
{
closed = 1;
nodes = (
(610,700,o),
(352,958,o),
(352,1276,cs),
(352,1594,o),
(610,1852,o),
(928,1852,cs),
(1246,1852,o),
(1504,1594,o),
(1504,1276,cs),
(1504,957,o),
(1247,700,o),
(928,700,cs)
);
}
);
width = 1856;
}
);
note = "Stroke L: 32
Stroke R: 96
Stroke B: 112";
unicode = 174;
userData = {
interface.gridadjust.original = "{'width': 2204, 'leftMargin': 121, 'rightMargin': 132}";
"interface.width-adjustments" = (
-16
);
};
}
{
color = 1;
glyphname = two.sups;
kernLeft = two.sups;
kernRight = two.sups;
layers = (
{
anchors = (
{
name = cross;
pos = (720,1644);
}
);
layerId = "B1F27B51-9973-4381-9301-4FE46FE1CA59";
shapes = (
{
closed = 1;
nodes = (
(964,1024,l),
(964,1084,l),
(228,1084,l),
(228,1088,l),
(616,1488,ls),
(832,1712,o),
(896,1812,o),
(896,1948,cs),
(896,2128,o),
(740,2268,o),
(528,2268,cs),
(312,2268,o),
(156,2124,o),
(156,1936,c),
(220,1936,l),
(220,2088,o),
(344,2212,o),
(528,2212,cs),
(704,2212,o),
(832,2100,o),
(832,1948,cs),
(832,1820,o),
(764,1728,o),
(576,1532,cs),
(136,1072,l),
(136,1024,l)
);
}
);
userData = {
RMXScaler = {
height = 60;
verticalShift = 1024;
width = 66.6;
};
};
width = 1096;
},
{
anchors = (
{
name = cross;
pos = (774,1676);
}
);
layerId = "C698F293-3EC0-4A5A-A3A0-0FDB1F5CF265";
shapes = (
{
closed = 1;
nodes = (
(1042,1024,l),
(1042,1200,l),
(430,1200,l),
(430,1208,l),
(690,1436,ls),
(910,1628,o),
(1006,1740,o),
(1006,1904,cs),
(1006,2112,o),
(826,2268,o),
(562,2268,cs),
(298,2268,o),
(110,2116,o),
(110,1888,c),
(318,1888,l),
(318,2012,o),
(414,2096,o),
(558,2096,cs),
(694,2096,o),
(798,2020,o),
(798,1900,cs),
(798,1796,o),
(726,1720,o),
(586,1596,cs),
(118,1180,l),
(118,1024,l)
);
}
);
userData = {
RMXScaler = {
height = 60;
verticalShift = 1024;
weight = -50;
width = 66.6;
};
};
width = 1140;
},
{
anchors = (
{
name = cross;
pos = (844,1704);
}
);
layerId = "5C20EF92-B63D-42A8-8878-93C2863E0093";
shapes = (
{
closed = 1;
nodes = (
(1124,1024,l),
(1124,1324,l),
(640,1324,l),
(640,1336,l),
(764,1404,ls),
(1012,1540,o),
(1124,1680,o),
(1124,1864,cs),
(1124,2088,o),
(924,2268,o),
(604,2268,cs),
(296,2268,o),
(76,2112,o),
(76,1836,c),
(428,1836,l),
(428,1936,o),
(496,1980,o),
(600,1980,cs),
(696,1980,o),
(776,1940,o),
(776,1860,cs),
(776,1776,o),
(704,1728,o),
(612,1660,cs),
(112,1288,l),
(112,1024,l)
);
}
);
userData = {
RMXScaler = {
height = 60;
verticalShift = 1024;
weight = -300;
width = 66.6;
};
};
width = 1200;
}
);
unicode = 178;
userData = {
RMXScaler = {
source = two;
};
};
}
{
color = 1;
glyphname = three.sups;
kernLeft = three.sups;
kernRight = eight.sups;
layers = (
{
layerId = "B1F27B51-9973-4381-9301-4FE46FE1CA59";
shapes = (
{
closed = 1;
nodes = (
(792,1008,o),
(964,1156,o),
(964,1348,cs),
(964,1500,o),
(852,1620,o),
(676,1656,c),
(676,1664,l),
(824,1700,o),
(924,1808,o),
(924,1952,cs),
(924,2132,o),
(768,2268,o),
(548,2268,cs),
(332,2268,o),
(168,2136,o),
(168,1944,c),
(228,1944,l),
(232,2104,o),
(368,2212,o),
(548,2212,cs),
(732,2212,o),
(860,2100,o),
(860,1952,cs),
(860,1788,o),
(708,1688,o),
(512,1688,cs),
(476,1688,l),
(476,1628,l),
(512,1628,ls),
(744,1628,o),
(904,1512,o),
(904,1348,cs),
(904,1192,o),
(760,1068,o),
(552,1068,cs),
(356,1068,o),
(200,1176,o),
(200,1332,c),
(136,1332,l),
(136,1144,o),
(316,1008,o),
(552,1008,cs)
);
}
);
userData = {
RMXScaler = {
height = 60;
verticalShift = 1024;
width = 66.6;
};
};
width = 1092;
},
{
layerId = "C698F293-3EC0-4A5A-A3A0-0FDB1F5CF265";
shapes = (
{
closed = 1;
nodes = (
(870,1008,o),
(1074,1160,o),
(1074,1364,cs),
(1074,1512,o),
(966,1628,o),
(770,1656,c),
(770,1664,l),
(914,1688,o),
(1026,1784,o),
(1026,1928,cs),
(1026,2124,o),
(846,2268,o),
(586,2268,cs),
(330,2268,o),
(130,2124,o),
(126,1912,c),
(334,1912,l),
(338,2024,o),
(450,2096,o),
(586,2096,cs),
(722,2096,o),
(814,2020,o),
(814,1916,cs),
(814,1804,o),
(702,1732,o),
(554,1732,cs),
(454,1732,l),
(454,1572,l),
(554,1572,ls),
(734,1572,o),
(850,1492,o),
(850,1380,cs),
(850,1268,o),
(738,1188,o),
(582,1188,cs),
(434,1188,o),
(322,1260,o),
(318,1368,c),
(98,1368,l),
(102,1156,o),
(306,1008,o),
(582,1008,cs)
);
}
);
userData = {
RMXScaler = {
height = 60;
verticalShift = 1024;
weight = -50;
width = 66.6;
};
};
width = 1168;
},
{
layerId = "5C20EF92-B63D-42A8-8878-93C2863E0093";
shapes = (
{
closed = 1;
nodes = (
(952,1008,o),
(1192,1160,o),
(1192,1384,cs),
(1192,1544,o),
(1076,1640,o),
(884,1652,c),
(884,1664,l),
(1020,1680,o),
(1136,1764,o),
(1136,1908,cs),
(1136,2104,o),
(940,2268,o),
(636,2268,cs),
(336,2268,o),
(104,2116,o),
(100,1896,c),
(452,1896,l),
(456,1944,o),
(532,1980,o),
(632,1980,cs),
(720,1980,o),
(780,1944,o),
(780,1884,cs),
(780,1828,o),
(716,1784,o),
(608,1784,cs),
(440,1784,l),
(440,1512,l),
(608,1512,ls),
(736,1512,o),
(808,1468,o),
(808,1408,cs),
(808,1340,o),
(724,1312,o),
(628,1312,cs),
(532,1312,o),
(456,1336,o),
(448,1388,c),
(72,1388,l),
(80,1160,o),
(308,1008,o),
(628,1008,cs)
);
}
);
userData = {
RMXScaler = {
height = 60;
verticalShift = 1024;
weight = -300;
width = 66.6;
};
};
width = 1268;
}
);
unicode = 179;
userData = {
RMXScaler = {
source = three;
};
};
}
{
glyphname = Oslash;
kernLeft = C;
kernRight = D;
layers = (
{
layerId = "B1F27B51-9973-4381-9301-4FE46FE1CA59";
shapes = (
{
closed = 1;
nodes = (
(1736,2060,l),
(1684,2096,l),
(304,-12,l),
(356,-48,l)
);
},
{
alignment = -1;
ref = O;
}
);
width = 2040;
},
{
guides = (
{
angle = 145.6539;
pos = (352,-96);
},
{
angle = 90;
pos = (972,1852);
},
{
angle = 56.0077;
pos = (972,1024);
}
);
layerId = "C698F293-3EC0-4A5A-A3A0-0FDB1F5CF265";
shapes = (
{
closed = 1;
nodes = (
(1834,2024,l),
(1682,2128,l),
(258,20,l),
(410,-84,l)
);
},
{
ref = O;
}
);
width = 2100;
},
{
guides = (
{
angle = 90;
pos = (876,1588);
},
{
pos = (1144,1024);
},
{
angle = 55.9722;
pos = (876,1024);
}
);
layerId = "5C20EF92-B63D-42A8-8878-93C2863E0093";
shapes = (
{
closed = 1;
nodes = (
(1980,2000,l),
(1756,2152,l),
(260,44,l),
(484,-108,l)
);
},
{
ref = O;
}
);
width = 2240;
}
);
metricLeft = O;
metricRight = O;
unicode = 216;
userData = {
com.typemytype.robofont.guideline.magnetic.7eFhkhwEhv = 5;
com.typemytype.robofont.guideline.magnetic.bDBaZ7HKjd = 5;
com.typemytype.robofont.guideline.magnetic.rquz9RFtyk = 5;
"interface.width-adjustments" = (
-16
);
};
}
{
glyphname = Lslash;
kernLeft = B;
kernRight = L;
layers = (
{
layerId = "B1F27B51-9973-4381-9301-4FE46FE1CA59";
shapes = (
{
closed = 1;
nodes = (
(-32,932,l),
(-32,862,l),
(664,1118,l),
(664,1184,l)
);
},
{
alignment = -1;
pos = (-88,0);
ref = L;
}
);
width = 1456;
},
{
layerId = "C698F293-3EC0-4A5A-A3A0-0FDB1F5CF265";
shapes = (
{
closed = 1;
nodes = (
(38,1024,l),
(38,844,l),
(850,1100,l),
(850,1280,l)
);
},
{
ref = L;
}
);
width = 1540;
},
{
layerId = "5C20EF92-B63D-42A8-8878-93C2863E0093";
shapes = (
{
closed = 1;
nodes = (
(28,1092,l),
(28,820,l),
(1032,1076,l),
(1032,1352,l)
);
},
{
pos = (144,0);
ref = L;
}
);
width = 1692;
}
);
unicode = 321;
userData = {
interface.gridadjust.original = "{'width': 1524, 'leftMargin': 52, 'rightMargin': 104}";
"interface.width-adjustments" = (
-16
);
};
}
{
glyphname = Tonesix;
kernLeft = T;
layers = (
{
layerId = "B1F27B51-9973-4381-9301-4FE46FE1CA59";
shapes = (
{
closed = 1;
nodes = (
(140,2048,l),
(140,1984,l),
(670,1984,l),
(670,2048,l)
);
},
{
closed = 1;
nodes = (
(642,1004,l),
(1374,1004,ls),
(1682,1004,o),
(1883,828,o),
(1882,560,cs),
(1881,247,o),
(1694,64,o),
(1374,64,cs),
(670,64,l),
(670,2048,l),
(606,2048,l),
(606,0,l),
(1374,0,ls),
(1727,0,o),
(1946,213,o),
(1946,556,cs),
(1946,867,o),
(1721,1068,o),
(1374,1068,cs),
(642,1068,l)
);
}
);
width = 2094;
},
{
layerId = "C698F293-3EC0-4A5A-A3A0-0FDB1F5CF265";
shapes = (
{
closed = 1;
nodes = (
(114,2048,l),
(114,1828,l),
(842,1828,l),
(842,2048,l)
);
},
{
closed = 1;
nodes = (
(778,968,l),
(1362,968,l),
(1642,968,o),
(1798,804,o),
(1798,608,c),
(1798,408,o),
(1642,216,o),
(1362,216,c),
(842,216,l),
(842,2048,l),
(594,2048,l),
(594,0,l),
(1362,0,l),
(1802,0,o),
(2042,248,o),
(2042,604,c),
(2042,960,o),
(1802,1188,o),
(1362,1188,c),
(778,1188,l)
);
}
);
width = 2164;
},
{
layerId = "5C20EF92-B63D-42A8-8878-93C2863E0093";
shapes = (
{
closed = 1;
nodes = (
(76,2048,l),
(76,1600,l),
(1136,1600,l),
(1136,2048,l)
);
},
{
closed = 1;
nodes = (
(920,936,l),
(1344,936,l),
(1544,936,o),
(1652,832,o),
(1652,692,c),
(1652,544,o),
(1544,436,o),
(1344,436,c),
(1136,436,l),
(1136,2048,l),
(580,2048,l),
(580,0,l),
(1344,0,l),
(1860,0,o),
(2204,280,o),
(2204,688,c),
(2204,1096,o),
(1860,1360,o),
(1344,1360,c),
(920,1360,l)
);
}
);
width = 2296;
}
);
metricLeft = T;
metricRight = b;
unicode = 388;
userData = {
interface.gridadjust.original = "{'width': 1917, 'leftMargin': 136, 'rightMargin': 157}";
"interface.width-adjustments" = (
-16
);
};
}
{
glyphname = Fhook;
kernLeft = jdotless;
kernRight = F;
layers = (
{
layerId = "B1F27B51-9973-4381-9301-4FE46FE1CA59";
shapes = (
{
closed = 1;
nodes = (
(224,-232,ls),
(224,-418,o),
(154,-508,o),
(10,-508,cs),
(-20,-508,o),
(-44,-505,o),
(-62,-500,c),
(-62,-564,l),
(-43,-569,o),
(-14,-572,o),
(16,-572,cs),
(192,-572,o),
(288,-452,o),
(288,-232,cs),
(288,0,l),
(224,0,l)
);
},
{
alignment = -1;
pos = (-64,0);
ref = F;
}
);
width = 1520;
},
{
associatedMasterId = "B1F27B51-9973-4381-9301-4FE46FE1CA59";
layerId = "B08EE6A4-275D-4A05-9DD6-ADCA275F0D13";
name = "Dec 29 18, 23:39";
shapes = (
{
closed = 0;
nodes = (
(-36,-524,l),
(-16,-536,o),
(-2,-540,o),
(32,-540,cs),
(204,-540,o),
(288,-436,o),
(288,-232,cs),
(288,0,l)
);
},
{
alignment = -1;
pos = (-64,0);
ref = F;
}
);
width = 1594;
},
{
layerId = "C698F293-3EC0-4A5A-A3A0-0FDB1F5CF265";
shapes = (
{
closed = 1;
nodes = (
(226,-160,ls),
(226,-320,o),
(134,-368,o),
(6,-368,cs),
(-22,-368,o),
(-50,-364,o),
(-70,-360,c),
(-70,-564,l),
(-10,-576,o),
(-10,-576,o),
(6,-576,cs),
(314,-576,o),
(474,-428,o),
(474,-164,cs),
(474,0,l),
(226,0,l)
);
},
{
ref = F;
}
);
width = 1608;
},
{
layerId = "5C20EF92-B63D-42A8-8878-93C2863E0093";
shapes = (
{
closed = 1;
nodes = (
(236,-48,ls),
(236,-140,o),
(130,-160,o),
(28,-160,c),
(6,-160,o),
(-34,-164,o),
(-64,-160,c),
(-64,-568,l),
(-6,-576,o),
(122,-576,o),
(176,-576,c),
(466,-576,o),
(792,-532,o),
(792,-48,cs),
(792,0,l),
(236,0,l)
);
},
{
pos = (104,0);
ref = F;
}
);
width = 1748;
}
);
metricRight = F;
unicode = 401;
userData = {
interface.gridadjust.original = "{'width': 1645, 'leftMargin': 0, 'rightMargin': 31}";
"interface.width-adjustments" = (
-16
);
};
}
{
glyphname = florin;
layers = (
{
layerId = "B1F27B51-9973-4381-9301-4FE46FE1CA59";
shapes = (
{
closed = 1;
nodes = (
(418,1476,l),
(418,1788,ls),
(418,1968,o),
(554,2076,o),
(706,2076,cs),
(746,2076,o),
(776,2070,o),
(808,2058,c),
(828,2118,l),
(790,2132,o),
(754,2140,o),
(706,2140,cs),
(518,2140,o),
(354,2004,o),
(354,1788,cs),
(354,1476,l),
(82,1476,l),
(82,1412,l),
(354,1412,l),
(354,-224,ls),
(354,-404,o),
(218,-512,o),
(66,-512,cs),
(26,-512,o),
(-4,-506,o),
(-38,-494,c),
(-58,-554,l),
(-18,-568,o),
(18,-576,o),
(66,-576,cs),
(254,-576,o),
(418,-440,o),
(418,-224,cs),
(418,1412,l),
(690,1412,l),
(690,1476,l)
);
}
);
width = 772;
},
{
background = {
anchors = (
{
name = bottom;
pos = (510,0);
}
);
shapes = (
{
closed = 1;
nodes = (
(142,1536,l),
(142,1336,l),
(970,1336,l),
(970,1536,l)
);
},
{
pos = (70,0);
ref = _part.f_base;
}
);
};
layerId = "C698F293-3EC0-4A5A-A3A0-0FDB1F5CF265";
shapes = (
{
closed = 1;
nodes = (
(610,1488,l),
(610,1640,ls),
(610,1816,o),
(694,1904,o),
(854,1904,cs),
(902,1904,o),
(938,1896,o),
(966,1888,c),
(1026,2104,l),
(974,2124,o),
(866,2140,o),
(790,2140,cs),
(542,2140,o),
(362,1964,o),
(362,1640,cs),
(362,1488,l),
(114,1488,l),
(114,1284,l),
(362,1284,l),
(362,-100,ls),
(362,-260,o),
(282,-356,o),
(174,-356,cs),
(150,-356,o),
(66,-352,o),
(38,-340,c),
(18,-556,l),
(70,-572,o),
(118,-576,o),
(174,-576,cs),
(454,-576,o),
(610,-408,o),
(610,-100,cs),
(610,1284,l),
(890,1284,l),
(890,1488,l)
);
}
);
width = 1044;
},
{
layerId = "5C20EF92-B63D-42A8-8878-93C2863E0093";
shapes = (
{
closed = 1;
nodes = (
(964,1488,l),
(964,1596,ls),
(966,1688,o),
(1038,1736,o),
(1144,1736,cs),
(1222,1736,o),
(1258,1732,o),
(1300,1724,c),
(1328,2116,l),
(1250,2128,o),
(1182,2140,o),
(1088,2140,cs),
(678,2140,o),
(442,1952,o),
(440,1596,cs),
(440,1488,l),
(220,1488,l),
(220,1120,l),
(440,1120,l),
(440,8,ls),
(440,-96,o),
(434,-164,o),
(296,-164,cs),
(254,-164,o),
(202,-156,o),
(168,-148,c),
(148,-556,l),
(238,-572,o),
(310,-576,o),
(388,-576,cs),
(750,-576,o),
(964,-372,o),
(964,8,cs),
(964,1120,l),
(1276,1120,l),
(1276,1488,l)
);
}
);
width = 1476;
}
);
unicode = 402;
userData = {
interface.gridadjust.original = "{'width': 968.0, 'leftMargin': -30, 'rightMargin': -1.0}";
"interface.width-adjustments" = (
-16
);
};
}
{
glyphname = ohorn;
kernLeft = c;
kernRight = ohorn;
layers = (
{
layerId = "B1F27B51-9973-4381-9301-4FE46FE1CA59";
shapes = (
{
closed = 1;
nodes = (
(1438,1470,o),
(1380,1374,o),
(1202,1358,c),
(1202,1294,l),
(1418,1310,o),
(1502,1440,o),
(1502,1678,c),
(1438,1678,l)
);
},
{
alignment = -1;
ref = o;
}
);
width = 1524;
},
{
layerId = "C698F293-3EC0-4A5A-A3A0-0FDB1F5CF265";
shapes = (
{
closed = 1;
nodes = (
(1442,1456,o),
(1414,1324,o),
(1214,1324,c),
(1214,1156,l),
(1546,1156,o),
(1662,1348,o),
(1662,1652,c),
(1442,1652,l)
);
},
{
ref = o;
}
);
width = 1640;
},
{
layerId = "5C20EF92-B63D-42A8-8878-93C2863E0093";
shapes = (
{
closed = 1;
nodes = (
(1568,1360,o),
(1512,1216,o),
(1292,1216,c),
(1292,1044,l),
(1668,1044,o),
(1844,1248,o),
(1844,1608,c),
(1568,1608,l)
);
},
{
ref = o;
}
);
width = 1844;
}
);
metricLeft = o;
unicode = 417;
userData = {
interface.gridadjust.original = "{'width': 1617.0, 'leftMargin': 236, 'rightMargin': -55.0}";
"interface.width-adjustments" = (
-16
);
};
}
{
glyphname = YR;
layers = (
{
background = {
shapes = (
{
closed = 1;
nodes = (
(214,1864,l),
(214,2144,l),
(150,2144,l),
(150,1864,l)
);
},
{
closed = 1;
nodes = (
(150,0,l),
(214,0,l),
(214,1944,l),
(750,1944,ls),
(1056,1944,o),
(1273,1738,o),
(1274,1424,cs),
(1275,1112,o),
(1056,908,o),
(824,908,cs),
(182,908,l),
(182,844,l),
(890,844,l),
(908,850,l),
(1166,912,o),
(1338,1132,o),
(1338,1424,cs),
(1338,1775,o),
(1093,2008,o),
(750,2008,cs),
(150,2008,l)
);
},
{
closed = 1;
nodes = (
(1684,-512,l),
(1684,-504,l),
(930,892,l),
(858,892,l),
(1616,-512,l)
);
}
);
};
guides = (
{
pos = (296,2588);
}
);
layerId = "B1F27B51-9973-4381-9301-4FE46FE1CA59";
shapes = (
{
closed = 1;
nodes = (
(182,1904,l),
(182,2184,l),
(118,2184,l),
(118,1904,l)
);
},
{
closed = 1;
nodes = (
(118,0,l),
(182,0,l),
(182,1984,l),
(718,1984,ls),
(1024,1984,o),
(1241,1778,o),
(1242,1464,cs),
(1243,1152,o),
(1024,948,o),
(792,948,cs),
(150,948,l),
(150,884,l),
(858,884,l),
(876,890,l),
(1134,952,o),
(1306,1172,o),
(1306,1464,cs),
(1306,1815,o),
(1061,2048,o),
(718,2048,cs),
(118,2048,l)
);
},
{
closed = 1;
nodes = (
(1652,-512,l),
(1652,-504,l),
(886,914,l),
(814,914,l),
(1584,-512,l)
);
}
);
width = 1796;
},
{
background = {
shapes = (
{
closed = 1;
nodes = (
(440,1864,l),
(440,2144,l),
(152,2144,l),
(152,1864,l,{
name = hr00;
})
);
},
{
closed = 1;
nodes = (
(152,0,l),
(440,0,l),
(440,1772,l),
(820,1772,ls),
(1120,1772,o),
(1240,1624,o),
(1240,1400,cs),
(1240,1196,o),
(1100,1036,o),
(820,1036,cs),
(376,1036,l),
(376,808,l),
(984,808,l),
(1060,836,l),
(1352,916,o),
(1524,1124,o),
(1524,1400,cs),
(1524,1792,o),
(1276,2004,o),
(820,2004,cs),
(152,2004,l)
);
},
{
closed = 1;
nodes = (
(1880,-496,l),
(1880,-480,l),
(1128,912,l),
(828,912,l),
(1576,-496,l)
);
}
);
};
layerId = "C698F293-3EC0-4A5A-A3A0-0FDB1F5CF265";
shapes = (
{
closed = 1;
nodes = (
(418,1910,l),
(418,2190,l),
(130,2190,l),
(130,1910,l,{
name = hr00;
})
);
},
{
closed = 1;
nodes = (
(130,0,l),
(418,0,l),
(418,1818,l),
(798,1818,ls),
(1098,1818,o),
(1218,1670,o),
(1218,1446,cs),
(1218,1242,o),
(1078,1082,o),
(798,1082,cs),
(354,1082,l),
(354,854,l),
(962,854,l),
(1038,882,l),
(1330,962,o),
(1502,1170,o),
(1502,1446,cs),
(1502,1838,o),
(1254,2050,o),
(798,2050,cs),
(130,2050,l)
);
},
{
closed = 1;
nodes = (
(1858,-496,l),
(1858,-480,l),
(1106,912,l),
(806,912,l),
(1554,-496,l)
);
}
);
width = 1988;
},
{
background = {
shapes = (
{
closed = 1;
nodes = (
(668,1864,l),
(668,2144,l),
(132,2144,l),
(132,1864,l)
);
},
{
closed = 1;
nodes = (
(128,0,l),
(668,0,l),
(668,1572,l),
(976,1572,ls),
(1144,1572,o),
(1244,1484,o),
(1244,1332,cs),
(1244,1180,o),
(1148,1096,o),
(976,1096,cs),
(456,1096,l),
(460,668,l),
(1160,668,l),
(1344,780,l),
(1600,884,o),
(1780,1024,o),
(1780,1396,cs),
(1780,1792,o),
(1460,2004,o),
(976,2004,cs),
(128,2004,l,{
name = hr01;
})
);
},
{
closed = 1;
nodes = (
(2096,-472,l),
(2096,-452,l),
(1380,880,l),
(812,880,l),
(1520,-472,l)
);
}
);
};
layerId = "5C20EF92-B63D-42A8-8878-93C2863E0093";
shapes = (
{
closed = 1;
nodes = (
(664,1908,l),
(664,2188,l),
(128,2188,l),
(128,1908,l)
);
},
{
closed = 1;
nodes = (
(128,0,l),
(668,0,l),
(668,1616,l),
(976,1616,ls),
(1144,1616,o),
(1244,1528,o),
(1244,1376,cs),
(1244,1224,o),
(1148,1140,o),
(976,1140,cs),
(456,1140,l),
(460,712,l),
(1160,712,l),
(1344,824,l),
(1600,928,o),
(1780,1068,o),
(1780,1440,cs),
(1780,1836,o),
(1460,2048,o),
(976,2048,cs),
(128,2048,l,{
name = hr01;
})
);
},
{
closed = 1;
nodes = (
(2096,-472,l),
(2096,-452,l),
(1380,880,l),
(812,880,l),
(1520,-472,l)
);
}
);
width = 2224;
}
);
unicode = 422;
userData = {
interface.gridadjust.original = "{'width': 1939, 'leftMargin': 228, 'rightMargin': -18}";
"interface.width-adjustments" = (
-16
);
};
}
{
glyphname = tonetwo;
kernLeft = s;
kernRight = s;
layers = (
{
anchors = (
{
name = bottom;
pos = (648,0);
},
{
name = cedilla;
pos = (652,0);
},
{
name = top;
pos = (644,1792);
}
);
layerId = "B1F27B51-9973-4381-9301-4FE46FE1CA59";
shapes = (
{
pos = (1324,0);
ref = s;
scale = (-1,1);
}
);
width = 1324;
},
{
anchors = (
{
name = bottom;
pos = (706,0);
},
{
name = cedilla;
pos = (710,0);
},
{
name = top;
pos = (698,1792);
}
);
layerId = "C698F293-3EC0-4A5A-A3A0-0FDB1F5CF265";
shapes = (
{
pos = (1428,0);
ref = s;
scale = (-1,1);
}
);
width = 1428;
},
{
anchors = (
{
name = bottom;
pos = (824,0);
},
{
name = cedilla;
pos = (812,0);
},
{
name = top;
pos = (824,1792);
}
);
layerId = "5C20EF92-B63D-42A8-8878-93C2863E0093";
shapes = (
{
pos = (1656,0);
ref = s;
scale = (-1,1);
}
);
width = 1656;
},
{
anchors = (
{
name = bottom;
pos = (706,0);
},
{
name = cedilla;
pos = (710,0);
},
{
name = top;
pos = (698,1792);
}
);
associatedMasterId = "C698F293-3EC0-4A5A-A3A0-0FDB1F5CF265";
layerId = "FDB61B62-4512-42FE-ADFE-B39E5D746B34";
name = "Jul 10, 21 12:20";
shapes = (
{
closed = 1;
nodes = (
(366,1132,l),
(407,1238,o),
(492,1352,o),
(698,1352,cs),
(886,1352,o),
(1026,1256,o),
(1026,1124,cs),
(1026,1006,o),
(944,945,o),
(762,900,cs),
(534,844,ls),
(260,777,o),
(126,642,o),
(126,428,cs),
(126,163,o),
(369,-32,o),
(726,-32,cs),
(1040,-32,o),
(1255,107,o),
(1310,368,c),
(1086,424,l),
(1044,259,o),
(923,176,o),
(730,176,cs),
(510,176,o),
(370,284,o),
(370,416,cs),
(370,522,o),
(443,596,o),
(598,632,cs),
(854,692,ls),
(1136,758,o),
(1262,900,o),
(1262,1112,cs),
(1262,1372,o),
(1022,1556,o),
(698,1556,cs),
(394,1556,o),
(228,1410,o),
(154,1192,c)
);
}
);
width = 1428;
},
{
anchors = (
{
name = bottom;
pos = (824,0);
},
{
name = cedilla;
pos = (812,0);
},
{
name = top;
pos = (824,1792);
}
);
associatedMasterId = "5C20EF92-B63D-42A8-8878-93C2863E0093";
layerId = "16155040-A5CA-4BB0-A2BD-712F383DE060";
name = "Jul 10, 21 12:21";
shapes = (
{
closed = 1;
nodes = (
(620,1036,l),
(628,1130,o),
(719,1188,o),
(828,1188,cs),
(923,1188,o),
(1002,1152,o),
(1000,1088,cs),
(1002,1043,o),
(969,1001,o),
(852,980,cs),
(540,924,ls),
(226,867,o),
(74,735,o),
(72,508,cs),
(74,179,o),
(387,-28,o),
(812,-28,cs),
(1282,-28,o),
(1554,181,o),
(1584,496,c),
(1036,496,l),
(1021,398,o),
(933,344,o),
(808,344,cs),
(707,344,o),
(634,380,o),
(632,444,cs),
(634,502,o),
(688,534,o),
(808,556,cs),
(1080,604,ls),
(1393,659,o),
(1550,814,o),
(1548,1056,cs),
(1550,1376,o),
(1279,1556,o),
(840,1556,cs),
(396,1556,o),
(126,1361,o),
(112,1036,c)
);
}
);
width = 1656;
},
{
anchors = (
{
name = bottom;
pos = (648,0);
},
{
name = cedilla;
pos = (652,0);
},
{
name = top;
pos = (644,1792);
}
);
associatedMasterId = "B1F27B51-9973-4381-9301-4FE46FE1CA59";
layerId = "7F529569-B963-4513-A1A3-4435109A9E0D";
name = "Jul 10, 21 12:21";
shapes = (
{
closed = 1;
nodes = (
(228,1196,l),
(291,1396,o),
(425,1496,o),
(636,1496,cs),
(881,1496,o),
(1048,1360,o),
(1048,1156,cs),
(1048,995,o),
(945,884,o),
(736,832,cs),
(496,772,ls),
(271,716,o),
(152,577,o),
(152,388,cs),
(152,137,o),
(363,-32,o),
(664,-32,cs),
(937,-32,o),
(1116,107,o),
(1168,352,c),
(1104,368,l),
(1059,150,o),
(908,32,o),
(664,32,cs),
(397,32,o),
(216,174,o),
(216,388,cs),
(216,547,o),
(315,659,o),
(512,708,cs),
(752,768,ls),
(988,827,o),
(1112,964,o),
(1112,1156,cs),
(1112,1397,o),
(916,1560,o),
(636,1560,cs),
(399,1560,o),
(239,1442,o),
(164,1212,c)
);
}
);
width = 1320;
}
);
metricLeft = s;
metricRight = s;
unicode = 424;
userData = {
interface.gridadjust.original = "{'width': 1459, 'leftMargin': 135, 'rightMargin': 129}";
"interface.width-adjustments" = (
-16
);
};
}
{
glyphname = eshlooprev;
layers = (
{
layerId = "B1F27B51-9973-4381-9301-4FE46FE1CA59";
shapes = (
{
closed = 1;
nodes = (
(764,-224,ls),
(764,-461,o),
(842,-576,o),
(1002,-576,cs),
(1034,-576,o),
(1068,-571,o),
(1092,-564,c),
(1092,-500,l),
(1066,-507,o),
(1030,-512,o),
(1002,-512,cs),
(881,-512,o),
(828,-424,o),
(828,-224,cs),
(828,1778,l),
(764,1738,l)
);
},
{
closed = 1;
nodes = (
(95,1571,o),
(261,1407,o),
(462,1408,cs),
(667,1409,o),
(830,1571,o),
(828,1774,cs),
(826,1977,o),
(667,2140,o),
(462,2140,cs),
(261,2140,o),
(97,1977,o),
(96,1774,cs)
);
},
{
closed = 1;
nodes = (
(297,1471,o),
(160,1607,o),
(160,1774,cs),
(160,1941,o),
(297,2076,o),
(462,2076,cs),
(631,2076,o),
(762,1941,o),
(764,1774,cs),
(766,1607,o),
(632,1473,o),
(462,1472,cs)
);
}
);
width = 1188;
},
{
background = {
shapes = (
{
closed = 1;
nodes = (
(872,1212,o),
(1084,1420,o),
(1084,1680,cs),
(1084,1912,o),
(900,2148,o),
(616,2148,cs),
(356,2148,o),
(148,1936,o),
(148,1680,cs),
(148,1420,o),
(356,1212,o),
(616,1212,cs)
);
},
{
closed = 1;
nodes = (
(496,1460,o),
(404,1536,o),
(404,1680,cs),
(404,1828,o),
(496,1904,o),
(616,1904,cs),
(732,1904,o),
(824,1828,o),
(824,1680,cs),
(824,1536,o),
(732,1460,o),
(616,1460,cs)
);
}
);
};
layerId = "C698F293-3EC0-4A5A-A3A0-0FDB1F5CF265";
shapes = (
{
closed = 1;
nodes = (
(794,-96,ls),
(794,-408,o),
(922,-576,o),
(1182,-576,cs),
(1230,-576,o),
(1302,-568,o),
(1342,-552,c),
(1342,-336,l),
(1314,-344,o),
(1278,-348,o),
(1254,-348,cs),
(1134,-348,o),
(1070,-284,o),
(1070,-96,cs),
(1070,1676,l),
(794,1560,l,{
name = hr00;
})
);
},
{
closed = 1;
nodes = (
(134,1420,o),
(342,1208,o),
(602,1208,cs),
(858,1208,o),
(1070,1420,o),
(1070,1676,cs),
(1070,1936,o),
(858,2142,o),
(602,2142,cs),
(342,2142,o),
(134,1936,o),
(134,1676,cs)
);
},
{
closed = 1;
nodes = (
(482,1460,o),
(390,1532,o),
(390,1680,cs),
(390,1824,o),
(482,1900,o),
(602,1900,cs),
(718,1900,o),
(810,1824,o),
(810,1680,cs),
(810,1532,o),
(718,1460,o),
(602,1460,cs)
);
}
);
width = 1476;
},
{
layerId = "5C20EF92-B63D-42A8-8878-93C2863E0093";
shapes = (
{
closed = 1;
nodes = (
(980,12,ls),
(980,-388,o),
(1222,-608,o),
(1604,-608,cs),
(1694,-608,o),
(1766,-604,o),
(1844,-588,c),
(1844,-184,l),
(1782,-192,o),
(1742,-196,o),
(1696,-196,cs),
(1570,-196,o),
(1496,-120,o),
(1496,12,cs),
(1496,1512,l),
(980,1232,l)
);
},
{
closed = 1;
nodes = (
(206,1164,o),
(494,884,o),
(848,884,cs),
(1202,884,o),
(1494,1168,o),
(1496,1512,cs),
(1498,1852,o),
(1202,2140,o),
(848,2140,cs),
(490,2140,o),
(202,1852,o),
(204,1512,cs)
);
},
{
closed = 1;
nodes = (
(730,1312,o),
(646,1380,o),
(648,1516,cs),
(650,1644,o),
(730,1712,o),
(852,1712,cs),
(954,1712,o),
(1046,1648,o),
(1048,1516,cs),
(1050,1380,o),
(958,1312,o),
(852,1312,cs)
);
}
);
width = 2048;
}
);
unicode = 426;
userData = {
interface.gridadjust.original = "{'width': 1313, 'leftMargin': 28, 'rightMargin': 75}";
"interface.width-adjustments" = (
-16
);
};
}
{
glyphname = thook;
layers = (
{
layerId = "B1F27B51-9973-4381-9301-4FE46FE1CA59";
shapes = (
{
closed = 1;
nodes = (
(276,1844,ls),
(276,2013,o),
(325,2076,o),
(466,2076,cs),
(492,2076,o),
(529,2074,o),
(564,2070,c),
(564,2134,l),
(530,2138,o),
(493,2140,o),
(466,2140,cs),
(290,2140,o),
(212,2051,o),
(212,1844,cs),
(212,1548,l),
(276,1548,l,{
name = hr00;
})
);
},
{
closed = 1;
nodes = (
(-12,1536,l),
(-12,1472,l),
(596,1472,l),
(596,1536,l)
);
},
{
closed = 1;
nodes = (
(212,324,ls),
(212,105,o),
(318,-28,o),
(512,-28,cs),
(554,-28,o),
(585,-22,o),
(608,-14,c),
(608,50,l),
(577,42,o),
(540,36,o),
(504,36,cs),
(354,36,o),
(276,144,o),
(276,324,cs),
(276,1804,l),
(212,1804,l)
);
}
);
width = 530;
},
{
background = {
shapes = (
{
closed = 1;
nodes = (
(604,1734,ls),
(604,1894,o),
(708,1942,o),
(836,1942,cs),
(864,1942,o),
(892,1938,o),
(912,1934,c),
(912,2134,l),
(876,2146,o),
(824,2146,o),
(776,2146,cs),
(552,2146,o),
(376,1998,o),
(376,1734,cs),
(376,1606,l),
(604,1606,l)
);
}
);
};
layerId = "C698F293-3EC0-4A5A-A3A0-0FDB1F5CF265";
shapes = (
{
closed = 1;
nodes = (
(614,1734,ls),
(614,1894,o),
(694,1950,o),
(822,1950,cs),
(842,1950,o),
(874,1946,o),
(898,1938,c),
(898,2122,l),
(858,2134,o),
(802,2142,o),
(762,2142,cs),
(534,2142,o),
(338,1998,o),
(338,1734,cs),
(338,1532,l),
(614,1532,l)
);
},
{
closed = 1;
nodes = (
(70,1488,l),
(70,1284,l),
(886,1284,l),
(886,1488,l)
);
},
{
closed = 1;
nodes = (
(338,412,l),
(338,96,o),
(498,-28,o),
(686,-28,cs),
(782,-28,o),
(850,-12,o),
(890,0,c),
(890,220,l),
(866,216,o),
(814,204,o),
(770,204,cs),
(690,204,o),
(614,248,o),
(614,412,c),
(614,1572,l),
(338,1572,l)
);
}
);
width = 964;
},
{
layerId = "5C20EF92-B63D-42A8-8878-93C2863E0093";
shapes = (
{
closed = 1;
nodes = (
(916,1608,ls),
(916,1760,o),
(1076,1788,o),
(1176,1788,cs),
(1228,1788,o),
(1272,1780,o),
(1296,1776,c),
(1296,2116,l),
(1224,2132,o),
(1156,2140,o),
(1024,2140,cs),
(688,2140,o),
(404,2076,o),
(404,1608,cs),
(404,1368,l),
(916,1368,l,{
name = hr00;
})
);
},
{
closed = 1;
nodes = (
(216,1488,l),
(216,1120,l),
(1172,1120,l),
(1172,1488,l)
);
},
{
closed = 1;
nodes = (
(404,436,l),
(404,108,o),
(584,-28,o),
(912,-28,cs),
(1008,-28,o),
(1100,-20,o),
(1196,16,c),
(1196,392,l),
(1160,388,o),
(1132,388,o),
(1076,388,cs),
(956,388,o),
(916,416,o),
(916,512,c),
(916,1540,l),
(404,1540,l)
);
}
);
width = 1512;
}
);
unicode = 429;
userData = {
interface.gridadjust.original = "{'width': 941, 'leftMargin': 30, 'rightMargin': 83}";
"interface.width-adjustments" = (
-16
);
};
}
{
glyphname = Trthook;
kernLeft = T;
kernRight = T;
layers = (
{
layerId = "B1F27B51-9973-4381-9301-4FE46FE1CA59";
shapes = (
{
closed = 1;
nodes = (
(800,0,l),
(800,-232,ls),
(800,-454,o),
(898,-572,o),
(1072,-572,c),
(1140,-572,l),
(1140,-508,l),
(1078,-508,l),
(936,-508,o),
(864,-420,o),
(864,-232,cs),
(864,0,l)
);
},
{
alignment = -1;
ref = T;
}
);
width = 1664;
},
{
layerId = "C698F293-3EC0-4A5A-A3A0-0FDB1F5CF265";
shapes = (
{
closed = 1;
nodes = (
(758,0,l),
(758,-168,ls),
(758,-432,o),
(962,-576,o),
(1186,-576,c),
(1322,-576,l),
(1322,-356,l),
(1246,-356,l),
(1118,-356,o),
(1006,-324,o),
(1006,-164,cs),
(1006,0,l)
);
},
{
ref = T;
}
);
width = 1764;
},
{
layerId = "5C20EF92-B63D-42A8-8878-93C2863E0093";
shapes = (
{
closed = 1;
nodes = (
(692,0,l),
(692,-44,ls),
(692,-528,o),
(1002,-576,o),
(1296,-576,c),
(1536,-576,l),
(1536,-164,l),
(1444,-164,l),
(1346,-164,o),
(1240,-140,o),
(1240,-48,cs),
(1240,0,l)
);
},
{
ref = T;
}
);
width = 1932;
}
);
metricLeft = T;
metricRight = T;
unicode = 430;
userData = {
interface.gridadjust.original = "{'width': 1680, 'leftMargin': 67, 'rightMargin': 63}";
"interface.width-adjustments" = (
-16
);
};
}
{
glyphname = Upsilon2;
layers = (
{
layerId = "B1F27B51-9973-4381-9301-4FE46FE1CA59";
shapes = (
{
closed = 1;
nodes = (
(175,408,o),
(535,-28,o),
(1016,-28,cs),
(1500,-28,o),
(1857,405,o),
(1856,1000,cs),
(1855,1436,o),
(1676,1764,o),
(1276,1968,c),
(1276,1984,l),
(1856,1984,l),
(1856,2048,l),
(1212,2048,l),
(1212,1956,l),
(1538,1783,o),
(1794,1494,o),
(1792,1004,cs),
(1790,461,o),
(1481,38,o),
(1016,36,cs),
(554,34,o),
(238,461,o),
(240,1004,cs),
(242,1498,o),
(492,1782,o),
(820,1956,c),
(820,2048,l),
(176,2048,l),
(176,1984,l),
(756,1984,l),
(756,1968,l),
(358,1764,o),
(177,1433,o),
(176,1000,cs)
);
}
);
width = 2032;
},
{
layerId = "C698F293-3EC0-4A5A-A3A0-0FDB1F5CF265";
shapes = (
{
closed = 1;
nodes = (
(146,384,o),
(522,-28,o),
(1050,-28,cs),
(1578,-28,o),
(1954,384,o),
(1954,968,cs),
(1954,1356,o),
(1790,1644,o),
(1526,1812,c),
(1526,1828,l),
(1954,1828,l),
(1954,2048,l),
(1226,2048,l),
(1226,1768,l),
(1490,1656,o),
(1714,1352,o),
(1714,968,cs),
(1714,540,o),
(1438,204,o),
(1050,204,cs),
(662,204,o),
(386,540,o),
(386,968,cs),
(386,1352,o),
(610,1656,o),
(874,1768,c),
(874,2048,l),
(146,2048,l),
(146,1828,l),
(574,1828,l),
(574,1812,l),
(310,1640,o),
(146,1356,o),
(146,968,cs)
);
}
);
width = 2100;
},
{
layerId = "5C20EF92-B63D-42A8-8878-93C2863E0093";
shapes = (
{
closed = 1;
nodes = (
(100,364,o),
(520,-28,o),
(1112,-28,cs),
(1704,-28,o),
(2124,364,o),
(2124,916,c),
(2124,1228,o),
(1988,1448,o),
(1772,1584,c),
(1772,1600,l),
(2124,1600,l),
(2124,2048,l),
(1256,2048,l),
(1256,1488,l),
(1440,1416,o),
(1556,1212,o),
(1556,972,cs),
(1556,672,o),
(1372,460,o),
(1112,460,cs),
(852,460,o),
(668,672,o),
(668,972,c),
(668,1212,o),
(784,1416,o),
(968,1488,c),
(968,2048,l),
(100,2048,l),
(100,1600,l),
(452,1600,l),
(452,1584,l),
(236,1448,o),
(100,1228,o),
(100,916,cs)
);
}
);
width = 2224;
}
);
unicode = 433;
userData = {
interface.gridadjust.original = "{'width': 1871, 'leftMargin': 164, 'rightMargin': 163}";
"interface.width-adjustments" = (
-16
);
};
}
{
glyphname = Tonefive;
layers = (
{
layerId = "B1F27B51-9973-4381-9301-4FE46FE1CA59";
shapes = (
{
closed = 1;
nodes = (
(52,2048,l),
(52,1984,l),
(384,1984,l),
(384,2048,l)
);
},
{
alignment = -1;
pos = (-48,0);
ref = five;
}
);
width = 1506;
},
{
associatedMasterId = "B1F27B51-9973-4381-9301-4FE46FE1CA59";
layerId = "64AB79B3-1332-4181-BA6A-2F36CD0AA979";
name = "May 22, 21 14:06";
shapes = (
{
closed = 1;
nodes = (
(52,2048,l),
(52,1984,l),
(384,1984,l),
(384,2048,l)
);
},
{
alignment = -1;
pos = (-48,0);
ref = five;
}
);
width = 1506;
},
{
layerId = "C698F293-3EC0-4A5A-A3A0-0FDB1F5CF265";
shapes = (
{
closed = 1;
nodes = (
(70,2048,l),
(70,1828,l),
(514,1828,l),
(514,2048,l,{
name = hr00;
})
);
},
{
ref = five;
}
);
width = 1636;
},
{
layerId = "5C20EF92-B63D-42A8-8878-93C2863E0093";
shapes = (
{
closed = 1;
nodes = (
(104,2048,l),
(104,1604,l),
(548,1604,l),
(548,2048,l)
);
},
{
pos = (80,0);
ref = five;
}
);
width = 1864;
}
);
unicode = 444;
userData = {
interface.gridadjust.original = "{'width': 1587, 'leftMargin': 89, 'rightMargin': 43}";
"interface.width-adjustments" = (
-16
);
};
}
{
glyphname = tonefive;
layers = (
{
layerId = "B1F27B51-9973-4381-9301-4FE46FE1CA59";
shapes = (
{
closed = 1;
nodes = (
(305,845,o),
(452,928,o),
(606,926,cs),
(844,923,o),
(998,749,o),
(998,484,cs),
(998,210,o),
(828,40,o),
(554,40,cs),
(309,40,o),
(151,190,o),
(160,412,c),
(96,396,l),
(97,145,o),
(281,-24,o),
(554,-24,cs),
(867,-24,o),
(1063,178,o),
(1060,496,cs),
(1058,791,o),
(869,994,o),
(600,990,cs),
(464,988,o),
(331,931,o),
(254,842,c),
(316,1424,l),
(1012,1424,l),
(1012,1488,l),
(258,1488,l),
(178,726,l),
(240,720,l,{
name = hr00;
})
);
},
{
closed = 1;
nodes = (
(24,1488,l),
(24,1424,l),
(364,1424,l),
(364,1488,l)
);
}
);
width = 1080;
},
{
layerId = "C698F293-3EC0-4A5A-A3A0-0FDB1F5CF265";
shapes = (
{
closed = 1;
nodes = (
(554,724,o),
(634,792,o),
(790,792,cs),
(994,792,o),
(1098,672,o),
(1098,496,cs),
(1098,324,o),
(1002,200,o),
(782,200,cs),
(602,200,o),
(474,296,o),
(474,444,c),
(210,420,l),
(210,120,o),
(526,-24,o),
(782,-24,cs),
(1202,-24,o),
(1370,204,o),
(1370,496,cs),
(1370,828,o),
(1174,1020,o),
(842,1012,c),
(738,1008,o),
(614,968,o),
(554,928,c),
(594,1252,l),
(1294,1252,l),
(1294,1488,l),
(362,1488,l),
(266,668,l),
(502,648,l,{
name = hr00;
})
);
},
{
closed = 1;
nodes = (
(106,1488,l),
(106,1252,l),
(522,1252,l),
(522,1488,l)
);
}
);
width = 1476;
},
{
layerId = "5C20EF92-B63D-42A8-8878-93C2863E0093";
shapes = (
{
closed = 1;
nodes = (
(923,636,o),
(987,640,o),
(1084,640,cs),
(1211,640,o),
(1291,592,o),
(1292,520,cs),
(1291,436,o),
(1227,392,o),
(1096,392,cs),
(963,392,o),
(883,408,o),
(868,476,c),
(352,460,l),
(351,116,o),
(695,-24,o),
(1096,-24,cs),
(1599,-24,o),
(1807,184,o),
(1808,472,cs),
(1807,776,o),
(1599,956,o),
(1244,956,cs),
(1095,956,o),
(987,928,o),
(924,900,c),
(960,1096,l),
(1684,1096,l),
(1684,1488,l),
(544,1488,l),
(420,640,l),
(896,624,l,{
name = hr00;
})
);
},
{
closed = 1;
nodes = (
(252,1488,l),
(252,1096,l),
(704,1096,l),
(704,1488,l)
);
}
);
width = 2060;
}
);
unicode = 445;
userData = {
interface.gridadjust.original = "{'width': 1411, 'leftMargin': 55, 'rightMargin': 90}";
"interface.width-adjustments" = (
-16
);
};
}
{
glyphname = uni0223;
layers = (
{
layerId = "B1F27B51-9973-4381-9301-4FE46FE1CA59";
shapes = (
{
closed = 1;
nodes = (
(287,1140,o),
(48,942,o),
(48,566,cs),
(48,187,o),
(305,-28,o),
(756,-28,cs),
(848,-28,ls),
(1297,-28,o),
(1554,188,o),
(1554,566,cs),
(1554,941,o),
(1314,1140,o),
(862,1140,cs),
(740,1140,ls)
);
},
{
closed = 1;
nodes = (
(1276,1076,o),
(1490,902,o),
(1490,566,cs),
(1490,225,o),
(1262,36,o),
(848,36,cs),
(754,36,ls),
(341,36,o),
(112,225,o),
(112,566,cs),
(112,905,o),
(323,1076,o),
(740,1076,cs),
(862,1076,ls)
);
},
{
closed = 1;
nodes = (
(720,1140,ls),
(334,1140,o),
(120,1316,o),
(120,1634,cs),
(120,1872,o),
(220,2019,o),
(410,2060,c),
(410,2128,l),
(180,2080,o),
(56,1907,o),
(56,1634,cs),
(56,1281,o),
(299,1076,o),
(720,1076,cs),
(882,1076,ls),
(1301,1076,o),
(1546,1282,o),
(1546,1634,cs),
(1546,1918,o),
(1405,2100,o),
(1154,2140,c),
(1154,2074,l),
(1366,2041,o),
(1482,1885,o),
(1482,1634,cs),
(1482,1319,o),
(1266,1140,o),
(884,1140,cs)
);
}
);
width = 1602;
},
{
background = {
shapes = (
{
closed = 1;
nodes = (
(444,1212,o),
(112,1004,o),
(112,596,cs),
(112,176,o),
(444,-28,o),
(872,-28,cs),
(904,-28,ls),
(1332,-28,o),
(1664,176,o),
(1664,600,cs),
(1664,1004,o),
(1332,1212,o),
(904,1212,cs),
(872,1212,l,{
name = hr00;
})
);
},
{
closed = 1;
nodes = (
(1192,996,o),
(1380,868,o),
(1380,600,cs),
(1380,324,o),
(1192,208,o),
(904,208,cs),
(872,208,ls),
(584,208,o),
(396,324,o),
(396,596,cs),
(396,868,o),
(584,996,o),
(872,996,cs),
(904,996,l)
);
},
{
closed = 1;
nodes = (
(612,1232,o),
(396,1292,o),
(396,1532,cs),
(396,1704,o),
(484,1772,o),
(656,1816,c),
(656,2032,l),
(356,2016,o),
(112,1864,o),
(112,1532,cs),
(112,1148,o),
(464,1016,o),
(860,1016,cs),
(916,1016,ls),
(1312,1016,o),
(1664,1148,o),
(1664,1532,cs),
(1664,1864,o),
(1424,2016,o),
(1120,2032,c),
(1120,1816,l),
(1292,1772,o),
(1380,1704,o),
(1380,1532,cs),
(1380,1292,o),
(1168,1232,o),
(916,1232,cs),
(860,1232,l)
);
}
);
};
layerId = "C698F293-3EC0-4A5A-A3A0-0FDB1F5CF265";
shapes = (
{
closed = 1;
nodes = (
(422,1208,o),
(94,1004,o),
(94,596,cs),
(94,176,o),
(422,-28,o),
(850,-28,cs),
(882,-28,ls),
(1310,-28,o),
(1638,176,o),
(1638,600,cs),
(1638,1004,o),
(1310,1208,o),
(882,1208,cs),
(850,1208,l)
);
},
{
closed = 1;
nodes = (
(1166,1000,o),
(1362,868,o),
(1362,600,cs),
(1362,324,o),
(1166,192,o),
(882,192,cs),
(850,192,ls),
(562,192,o),
(370,324,o),
(370,596,cs),
(370,868,o),
(562,1000,o),
(850,1000,cs),
(882,1000,l)
);
},
{
closed = 1;
nodes = (
(838,1220,ls),
(590,1220,o),
(370,1292,o),
(370,1572,cs),
(370,1772,o),
(462,1868,o),
(634,1936,c),
(634,2140,l),
(334,2128,o),
(94,1928,o),
(94,1572,cs),
(94,1160,o),
(442,1016,o),
(838,1016,cs),
(894,1016,ls),
(1290,1016,o),
(1638,1160,o),
(1638,1572,cs),
(1638,1928,o),
(1398,2128,o),
(1098,2140,c),
(1098,1936,l),
(1270,1868,o),
(1362,1772,o),
(1362,1572,cs),
(1362,1292,o),
(1146,1220,o),
(894,1220,c)
);
}
);
width = 1732;
},
{
layerId = "5C20EF92-B63D-42A8-8878-93C2863E0093";
shapes = (
{
closed = 1;
nodes = (
(504,1276,o),
(180,1100,o),
(180,652,cs),
(180,216,o),
(504,-28,o),
(968,-28,cs),
(996,-28,ls),
(1456,-28,o),
(1780,216,o),
(1780,652,cs),
(1780,1100,o),
(1452,1276,o),
(996,1276,cs),
(968,1276,l,{
name = hr00;
})
);
},
{
closed = 1;
nodes = (
(1180,916,o),
(1260,800,o),
(1260,652,cs),
(1260,504,o),
(1180,388,o),
(996,388,cs),
(968,388,ls),
(792,388,o),
(700,504,o),
(700,652,cs),
(700,800,o),
(792,916,o),
(968,916,cs),
(996,916,l)
);
},
{
closed = 1;
nodes = (
(968,1328,ls),
(772,1328,o),
(700,1400,o),
(700,1560,cs),
(700,1672,o),
(756,1728,o),
(812,1740,c),
(812,2140,l),
(428,2144,o),
(180,1952,o),
(180,1572,cs),
(180,1132,o),
(504,972,o),
(968,972,cs),
(992,972,ls),
(1460,972,o),
(1780,1132,o),
(1780,1572,cs),
(1780,1960,o),
(1528,2144,o),
(1148,2140,c),
(1148,1740,l),
(1204,1728,o),
(1268,1672,o),
(1268,1560,cs),
(1268,1404,o),
(1192,1328,o),
(992,1328,cs)
);
}
);
width = 1960;
}
);
unicode = 547;
userData = {
interface.gridadjust.original = "{'width': 1818, 'leftMargin': 138, 'rightMargin': 138}";
"interface.width-adjustments" = (
-16
);
};
}
{
glyphname = zhook;
kernLeft = z;
kernRight = z;
layers = (
{
layerId = "B1F27B51-9973-4381-9301-4FE46FE1CA59";
shapes = (
{
closed = 1;
nodes = (
(1304,-256,l),
(1304,-214,ls),
(1304,-40,o),
(1206,64,o),
(1032,64,cs),
(258,64,l),
(1184,1472,l),
(1184,1536,l),
(244,1536,l),
(244,1472,l),
(1108,1472,l),
(184,64,l),
(184,0,l),
(1028,0,ls),
(1182,0,o),
(1240,-72,o),
(1240,-250,cs),
(1240,-256,l)
);
}
);
width = 1368;
},
{
background = {
shapes = (
{
ref = z;
}
);
};
layerId = "C698F293-3EC0-4A5A-A3A0-0FDB1F5CF265";
shapes = (
{
closed = 1;
nodes = (
(1382,-320,l),
(1382,-184,ls),
(1382,44,o),
(1234,220,o),
(974,220,cs),
(462,220,l),
(1322,1348,l),
(1322,1536,l),
(138,1536,l),
(138,1316,l),
(1018,1316,l),
(154,200,l),
(154,0,l),
(974,0,ls),
(1134,0,o),
(1170,-116,o),
(1170,-244,cs),
(1170,-320,l)
);
}
);
width = 1476;
},
{
layerId = "5C20EF92-B63D-42A8-8878-93C2863E0093";
shapes = (
{
closed = 1;
nodes = (
(1572,-408,l),
(1572,-196,l),
(1572,196,o),
(1336,416,o),
(908,416,cs),
(832,416,l),
(1480,1248,l),
(1480,1536,l),
(200,1536,l),
(200,1120,l),
(804,1120,l),
(156,284,l),
(156,0,l),
(908,0,ls),
(1096,0,o),
(1124,-164,o),
(1124,-288,cs),
(1124,-408,l)
);
}
);
width = 1652;
}
);
unicode = 549;
userData = {
interface.gridadjust.original = "{'width': 1456, 'leftMargin': 122, 'rightMargin': 62}";
"interface.width-adjustments" = (
-16
);
};
}
{
glyphname = uni023A;
kernLeft = A;
kernRight = A;
layers = (
{
layerId = "B1F27B51-9973-4381-9301-4FE46FE1CA59";
shapes = (
{
closed = 1;
nodes = (
(1260,2308,l),
(348,-260,l),
(416,-260,l),
(1328,2308,l)
);
},
{
alignment = -1;
ref = A;
}
);
width = 1672;
},
{
layerId = "C698F293-3EC0-4A5A-A3A0-0FDB1F5CF265";
shapes = (
{
closed = 1;
nodes = (
(1322,2308,l),
(410,-260,l),
(638,-260,l),
(1550,2308,l)
);
},
{
ref = A;
}
);
width = 1860;
},
{
layerId = "5C20EF92-B63D-42A8-8878-93C2863E0093";
shapes = (
{
closed = 1;
nodes = (
(1532,2308,l),
(756,-260,l),
(1040,-260,l),
(1816,2308,l)
);
},
{
ref = A;
}
);
width = 2240;
}
);
metricLeft = A;
metricRight = A;
unicode = 570;
userData = {
interface.gridadjust.original = "{'width': 1855, 'leftMargin': -226, 'rightMargin': -8}";
};
}
{
glyphname = uni023C;
kernLeft = c;
kernRight = c;
layers = (
{
layerId = "B1F27B51-9973-4381-9301-4FE46FE1CA59";
shapes = (
{
closed = 1;
nodes = (
(1352,2048,l),
(148,-576,l),
(224,-576,l),
(1420,2048,l)
);
},
{
alignment = -1;
pos = (46,0);
ref = c;
}
);
width = 1568;
},
{
layerId = "C698F293-3EC0-4A5A-A3A0-0FDB1F5CF265";
shapes = (
{
closed = 1;
nodes = (
(1214,2048,l),
(162,-576,l),
(354,-576,l),
(1402,2048,l)
);
},
{
ref = c;
}
);
width = 1528;
},
{
layerId = "5C20EF92-B63D-42A8-8878-93C2863E0093";
shapes = (
{
closed = 1;
nodes = (
(1124,2048,l),
(324,-576,l),
(604,-576,l),
(1408,2048,l)
);
},
{
ref = c;
}
);
width = 1708;
}
);
metricLeft = c;
metricRight = c;
unicode = 572;
userData = {
interface.gridadjust.original = "{'width': 1480, 'leftMargin': 110, 'rightMargin': -48}";
"interface.width-adjustments" = (
-16
);
};
}
{
glyphname = uni0240;
kernLeft = z;
kernRight = rthook;
layers = (
{
layerId = "B1F27B51-9973-4381-9301-4FE46FE1CA59";
shapes = (
{
closed = 1;
nodes = (
(236,0,l),
(288,0,ls),
(800,0,o),
(868,-574,o),
(1180,-574,cs),
(1218,-574,o),
(1262,-566,o),
(1304,-546,c),
(1304,-490,l),
(1252,-506,o),
(1222,-510,o),
(1196,-510,cs),
(893,-510,o),
(850,64,o),
(288,64,cs),
(240,64,l)
);
},
{
closed = 1;
nodes = (
(1184,1472,l),
(1184,1536,l),
(244,1536,l),
(244,1472,l),
(1108,1472,l),
(184,64,l),
(184,0,l),
(258,0,l),
(258,64,l)
);
}
);
width = 1368;
},
{
layerId = "C698F293-3EC0-4A5A-A3A0-0FDB1F5CF265";
shapes = (
{
closed = 1;
nodes = (
(454,0,l),
(506,0,ls),
(946,0,o),
(946,-576,o),
(1306,-576,cs),
(1438,-576,o),
(1538,-500,o),
(1598,-440,c),
(1506,-280,l),
(1458,-324,o),
(1398,-356,o),
(1322,-356,cs),
(1106,-356,o),
(1038,220,o),
(534,220,cs),
(454,220,l)
);
},
{
closed = 1;
nodes = (
(1334,1348,l),
(1334,1536,l),
(150,1536,l),
(150,1316,l),
(1030,1316,l),
(166,200,l),
(166,0,l),
(474,0,l),
(474,220,l)
);
}
);
width = 1484;
},
{
layerId = "5C20EF92-B63D-42A8-8878-93C2863E0093";
shapes = (
{
closed = 1;
nodes = (
(624,0,l),
(688,0,ls),
(1054,0,o),
(1062,-576,o),
(1556,-576,cs),
(1762,-576,o),
(1914,-472,o),
(2028,-368,c),
(1856,-12,l),
(1810,-48,o),
(1702,-136,o),
(1608,-136,cs),
(1330,-136,o),
(1326,416,o),
(840,416,cs),
(624,416,l)
);
},
{
closed = 1;
nodes = (
(1480,1248,l),
(1480,1536,l),
(200,1536,l),
(200,1120,l),
(804,1120,l),
(156,284,l),
(156,0,l),
(832,0,l),
(832,416,l)
);
}
);
width = 1964;
}
);
metricLeft = z;
unicode = 576;
userData = {
interface.gridadjust.original = "{'width': 1403, 'leftMargin': 122, 'rightMargin': -160}";
"interface.width-adjustments" = (
-16
);
};
}
{
glyphname = uni0241;
layers = (
{
background = {
shapes = (
{
closed = 1;
nodes = (
(652,482,l),
(676,482,l),
(1073,480,o),
(1296,708,o),
(1296,1116,cs),
(1296,1404,ls),
(1296,1800,o),
(1084,2032,o),
(724,2032,cs),
(377,2032,o),
(144,1833,o),
(124,1520,c),
(188,1520,l),
(202,1793,o),
(410,1966,o),
(724,1966,cs),
(1051,1966,o),
(1232,1766,o),
(1232,1404,cs),
(1232,1116,ls),
(1232,738,o),
(1037,542,o),
(664,544,c),
(652,544,l,{
name = hr00;
})
);
},
{
closed = 1;
nodes = (
(640,544,l),
(640,0,l),
(704,0,l),
(704,544,l)
);
}
);
};
layerId = "B1F27B51-9973-4381-9301-4FE46FE1CA59";
shapes = (
{
closed = 1;
nodes = (
(620,482,l),
(644,482,l),
(1041,480,o),
(1264,708,o),
(1264,1116,cs),
(1264,1448,ls),
(1264,1844,o),
(1052,2076,o),
(692,2076,cs),
(345,2076,o),
(112,1877,o),
(92,1564,c),
(156,1564,l),
(170,1837,o),
(378,2010,o),
(692,2010,cs),
(1019,2010,o),
(1200,1810,o),
(1200,1448,cs),
(1200,1116,ls),
(1200,738,o),
(1005,542,o),
(632,544,c),
(620,544,l,{
name = hr00;
})
);
},
{
closed = 1;
nodes = (
(608,544,l),
(608,0,l),
(672,0,l),
(672,544,l)
);
}
);
width = 1356;
},
{
background = {
shapes = (
{
closed = 1;
nodes = (
(664,384,l),
(724,384,ls),
(1180,384,o),
(1400,732,o),
(1400,1128,cs),
(1400,1288,ls),
(1400,1684,o),
(1180,2032,o),
(724,2032,cs),
(368,2032,o),
(132,1792,o),
(120,1472,c),
(388,1472,l),
(400,1664,o),
(524,1792,o),
(724,1792,cs),
(1032,1792,o),
(1116,1536,o),
(1116,1288,cs),
(1116,1128,ls),
(1116,876,o),
(1036,624,o),
(724,624,c),
(664,624,l)
);
},
{
closed = 1;
nodes = (
(592,624,l),
(592,0,l),
(880,0,l),
(880,624,l)
);
}
);
};
layerId = "C698F293-3EC0-4A5A-A3A0-0FDB1F5CF265";
shapes = (
{
closed = 1;
nodes = (
(642,384,l),
(702,384,ls),
(1158,384,o),
(1378,732,o),
(1378,1128,cs),
(1378,1332,ls),
(1378,1728,o),
(1158,2076,o),
(702,2076,cs),
(346,2076,o),
(110,1836,o),
(98,1516,c),
(366,1516,l),
(378,1708,o),
(502,1836,o),
(702,1836,cs),
(1010,1836,o),
(1094,1580,o),
(1094,1332,cs),
(1094,1128,ls),
(1094,876,o),
(1014,624,o),
(702,624,c),
(642,624,l)
);
},
{
closed = 1;
nodes = (
(570,624,l),
(570,0,l),
(858,0,l),
(858,624,l)
);
}
);
width = 1476;
},
{
background = {
shapes = (
{
closed = 1;
nodes = (
(616,328,l),
(808,328,ls),
(1294,328,o),
(1574,644,o),
(1576,1084,cs),
(1576,1264,ls),
(1574,1712,o),
(1290,2032,o),
(812,2032,cs),
(422,2032,o),
(106,1792,o),
(112,1392,c),
(628,1392,l),
(622,1500,o),
(682,1596,o),
(824,1596,cs),
(1026,1596,o),
(1026,1384,o),
(1028,1264,cs),
(1028,1084,ls),
(1026,880,o),
(994,760,o),
(824,760,cs),
(616,760,l,{
name = hr00;
})
);
},
{
closed = 1;
nodes = (
(576,760,l),
(576,0,l),
(1116,0,l),
(1116,760,l)
);
}
);
};
layerId = "5C20EF92-B63D-42A8-8878-93C2863E0093";
shapes = (
{
closed = 1;
nodes = (
(616,328,l),
(808,328,ls),
(1294,328,o),
(1576,644,o),
(1576,1084,cs),
(1576,1308,ls),
(1576,1756,o),
(1290,2076,o),
(812,2076,cs),
(422,2076,o),
(106,1836,o),
(112,1436,c),
(628,1436,l),
(622,1544,o),
(682,1640,o),
(824,1640,cs),
(1026,1640,o),
(1028,1428,o),
(1028,1308,cs),
(1028,1084,ls),
(1028,880,o),
(994,760,o),
(824,760,cs),
(616,760,l,{
name = hr00;
})
);
},
{
closed = 1;
nodes = (
(576,760,l),
(576,0,l),
(1116,0,l),
(1116,760,l)
);
}
);
width = 1688;
}
);
unicode = 577;
userData = {
interface.gridadjust.original = "{'width': 1526, 'leftMargin': 88, 'rightMargin': 156}";
"interface.width-adjustments" = (
-16
);
};
}
{
glyphname = epsilon1rev;
kernLeft = epsilongreek;
kernRight = epsilongreek;
layers = (
{
anchors = (
{
name = top;
pos = (720,1792);
}
);
layerId = "B1F27B51-9973-4381-9301-4FE46FE1CA59";
shapes = (
{
closed = 1;
nodes = (
(628,826,l),
(628,762,l),
(780,762,ls),
(1024,762,o),
(1223,615,o),
(1222,388,cs),
(1221,179,o),
(1034,36,o),
(740,36,cs),
(435,36,o),
(268,200,o),
(216,452,c),
(156,452,l),
(200,167,o),
(400,-28,o),
(740,-28,cs),
(1084,-28,o),
(1286,151,o),
(1286,392,cs),
(1286,664,o),
(1054,825,o),
(736,826,c)
);
},
{
closed = 1;
nodes = (
(736,762,l),
(1069,760,o),
(1255,896,o),
(1254,1140,cs),
(1253,1391,o),
(1051,1556,o),
(744,1556,cs),
(470,1556,o),
(278,1408,o),
(232,1128,c),
(296,1128,l),
(346,1379,o),
(505,1492,o),
(744,1492,cs),
(1014,1492,o),
(1187,1359,o),
(1190,1148,cs),
(1193,945,o),
(1042,826,o),
(780,826,cs),
(628,826,l),
(628,762,l)
);
}
);
width = 1534;
},
{
anchors = (
{
name = top;
pos = (754,1792);
}
);
layerId = "C698F293-3EC0-4A5A-A3A0-0FDB1F5CF265";
shapes = (
{
closed = 1;
nodes = (
(598,800,l),
(598,688,l),
(782,688,ls),
(998,688,o),
(1134,573,o),
(1134,428,cs),
(1134,284,o),
(982,188,o),
(750,188,cs),
(526,188,o),
(410,272,o),
(370,448,c),
(122,448,l),
(156,159,o),
(398,-28,o),
(762,-28,cs),
(1119,-28,o),
(1382,150,o),
(1382,416,cs),
(1382,579,o),
(1284,800,o),
(806,800,c)
);
},
{
closed = 1;
nodes = (
(806,736,l),
(1274,736,o),
(1354,940,o),
(1354,1104,cs),
(1354,1388,o),
(1116,1556,o),
(766,1556,cs),
(416,1556,o),
(189,1390,o),
(150,1112,c),
(398,1112,l),
(431,1251,o),
(560,1344,o),
(766,1344,cs),
(977,1344,o),
(1114,1246,o),
(1114,1104,cs),
(1114,976,o),
(1005,892,o),
(782,892,cs),
(598,892,l),
(598,736,l)
);
}
);
width = 1576;
},
{
anchors = (
{
name = top;
pos = (808,1792);
}
);
layerId = "5C20EF92-B63D-42A8-8878-93C2863E0093";
shapes = (
{
closed = 1;
nodes = (
(552,808,l),
(552,612,l),
(792,612,ls),
(898,612,o),
(1038,592,o),
(1040,480,cs),
(1038,420,o),
(970,348,o),
(816,348,cs),
(650,348,o),
(578,384,o),
(580,440,c),
(68,440,l),
(66,116,o),
(426,-28,o),
(772,-28,cs),
(1206,-28,o),
(1550,140,o),
(1552,420,cs),
(1550,672,o),
(1314,808,o),
(928,808,c)
);
},
{
closed = 1;
nodes = (
(928,752,l),
(1274,752,o),
(1526,916,o),
(1528,1120,c),
(1526,1404,o),
(1206,1556,o),
(772,1556,cs),
(402,1556,o),
(86,1384,o),
(88,1088,c),
(608,1088,l),
(606,1164,o),
(694,1180,o),
(808,1180,cs),
(950,1180,o),
(1006,1116,o),
(1008,1064,c),
(1006,996,o),
(918,952,o),
(792,952,cs),
(552,952,l),
(552,752,l)
);
}
);
width = 1676;
}
);
metricLeft = a;
metricRight = a;
note = "epsilon mirrored";
unicode = 604;
userData = {
interface.gridadjust.original = "{'width': 1517, 'leftMargin': 135, 'rightMargin': 135}";
"interface.width-adjustments" = (
-16
);
};
}
{
glyphname = epsilon1revclosed;
kernLeft = epsilongreek;
kernRight = epsilongreek;
layers = (
{
layerId = "B1F27B51-9973-4381-9301-4FE46FE1CA59";
shapes = (
{
closed = 1;
nodes = (
(1003,-28,o),
(1220,139,o),
(1220,392,cs),
(1220,653,o),
(1002,825,o),
(670,826,c),
(562,826,l),
(562,762,l),
(714,762,ls),
(971,762,o),
(1157,604,o),
(1156,388,cs),
(1155,176,o),
(964,36,o),
(674,36,cs),
(324,36,o),
(152,279,o),
(152,772,c),
(88,772,l),
(88,244,o),
(287,-28,o),
(674,-28,cs)
);
},
{
closed = 1;
nodes = (
(1003,760,o),
(1189,896,o),
(1188,1140,cs),
(1187,1391,o),
(985,1556,o),
(678,1556,cs),
(291,1556,o),
(88,1285,o),
(88,768,c),
(152,768,l),
(152,1253,o),
(325,1492,o),
(678,1492,cs),
(948,1492,o),
(1121,1359,o),
(1124,1148,cs),
(1127,945,o),
(976,826,o),
(714,826,cs),
(562,826,l),
(562,762,l),
(670,762,l)
);
}
);
width = 1328;
},
{
layerId = "C698F293-3EC0-4A5A-A3A0-0FDB1F5CF265";
shapes = (
{
closed = 1;
nodes = (
(1155,-28,o),
(1418,150,o),
(1418,416,cs),
(1418,579,o),
(1320,800,o),
(842,800,c),
(634,800,l),
(634,688,l),
(818,688,ls),
(1034,688,o),
(1170,573,o),
(1170,428,cs),
(1170,284,o),
(1021,188,o),
(798,188,cs),
(490,188,o),
(342,417,o),
(342,792,c),
(106,792,l),
(106,282,o),
(343,-28,o),
(798,-28,cs)
);
},
{
closed = 1;
nodes = (
(1310,736,o),
(1390,940,o),
(1390,1104,cs),
(1390,1388,o),
(1152,1556,o),
(802,1556,cs),
(345,1556,o),
(106,1267,o),
(106,792,c),
(342,792,l),
(342,1135,o),
(496,1344,o),
(814,1344,cs),
(1016,1344,o),
(1150,1246,o),
(1150,1104,cs),
(1150,976,o),
(1041,892,o),
(818,892,cs),
(634,892,l),
(634,736,l),
(842,736,l)
);
}
);
width = 1540;
},
{
layerId = "5C20EF92-B63D-42A8-8878-93C2863E0093";
shapes = (
{
closed = 1;
nodes = (
(1239,-28,o),
(1547,140,o),
(1548,420,cs),
(1547,672,o),
(1347,808,o),
(976,808,c),
(824,808,l),
(824,620,l),
(840,620,ls),
(951,620,o),
(1027,588,o),
(1028,480,cs),
(1027,420,o),
(995,352,o),
(864,352,cs),
(723,352,o),
(619,460,o),
(620,784,c),
(104,784,l),
(103,204,o),
(491,-28,o),
(824,-28,cs)
);
},
{
closed = 1;
nodes = (
(1303,752,o),
(1519,916,o),
(1520,1120,cs),
(1519,1404,o),
(1239,1556,o),
(824,1556,cs),
(467,1556,o),
(103,1340,o),
(104,784,c),
(620,784,l),
(619,1132,o),
(767,1180,o),
(860,1180,cs),
(979,1180,o),
(999,1116,o),
(1000,1064,cs),
(999,996,o),
(951,944,o),
(840,944,cs),
(824,944,l),
(824,752,l),
(976,752,ls)
);
}
);
width = 1688;
}
);
metricLeft = "=|epsilonclosed";
metricRight = "=|epsilonclosed";
note = "mirror of epsilonclosed";
unicode = 606;
userData = {
interface.gridadjust.original = "{'width': 1478, 'leftMargin': 135, 'rightMargin': 135}";
"interface.width-adjustments" = (
-16
);
};
}
{
glyphname = ghook;
kernLeft = c;
kernRight = g;
layers = (
{
layerId = "B1F27B51-9973-4381-9301-4FE46FE1CA59";
shapes = (
{
closed = 1;
nodes = (
(1328,1780,ls),
(1328,1949,o),
(1377,2012,o),
(1518,2012,cs),
(1544,2012,o),
(1581,2010,o),
(1616,2006,c),
(1616,2070,l),
(1582,2074,o),
(1545,2076,o),
(1518,2076,cs),
(1342,2076,o),
(1264,1987,o),
(1264,1780,cs),
(1264,1504,l),
(1328,1504,l,{
name = hr00;
})
);
},
{
alignment = -1;
pos = (-4,0);
ref = g;
}
);
width = 1564;
},
{
layerId = "C698F293-3EC0-4A5A-A3A0-0FDB1F5CF265";
shapes = (
{
closed = 1;
nodes = (
(1478,1664,ls),
(1478,1824,o),
(1574,1872,o),
(1702,1872,cs),
(1730,1872,o),
(1758,1868,o),
(1778,1864,c),
(1778,2064,l),
(1742,2076,o),
(1690,2076,o),
(1642,2076,cs),
(1418,2076,o),
(1250,1928,o),
(1250,1664,cs),
(1250,1464,l),
(1478,1464,l)
);
},
{
ref = g;
}
);
width = 1684;
},
{
layerId = "5C20EF92-B63D-42A8-8878-93C2863E0093";
shapes = (
{
closed = 1;
nodes = (
(1696,1548,ls),
(1696,1640,o),
(1825,1660,o),
(1924,1660,cs),
(1965,1660,o),
(1957,1660,o),
(2048,1652,c),
(2048,2060,l),
(1981,2064,o),
(1909,2076,o),
(1772,2076,cs),
(1485,2076,o),
(1144,2032,o),
(1144,1548,cs),
(1144,1436,l),
(1696,1436,l)
);
},
{
pos = (8,0);
ref = g;
}
);
width = 1896;
}
);
unicode = 608;
userData = {
interface.gridadjust.original = "{'width': 1667, 'leftMargin': 129, 'rightMargin': -13}";
"interface.width-adjustments" = (
-16
);
};
}
{
glyphname = eshshortrev;
layers = (
{
layerId = "B1F27B51-9973-4381-9301-4FE46FE1CA59";
shapes = (
{
closed = 1;
nodes = (
(542,1208,ls),
(542,1410,o),
(392,1560,o),
(190,1560,cs),
(140,1560,o),
(84,1552,o),
(48,1538,c),
(48,1478,l),
(96,1490,o),
(150,1496,o),
(190,1496,cs),
(356,1496,o),
(478,1378,o),
(478,1208,cs),
(478,154,l),
(542,154,l)
);
},
{
closed = 1;
nodes = (
(478,-258,ls),
(478,-460,o),
(628,-610,o),
(834,-610,cs),
(872,-610,o),
(934,-606,o),
(982,-594,c),
(982,-530,l),
(934,-540,o),
(872,-546,o),
(836,-546,cs),
(664,-546,o),
(542,-424,o),
(542,-258,cs),
(542,724,l),
(478,724,l)
);
}
);
width = 1020;
},
{
layerId = "C698F293-3EC0-4A5A-A3A0-0FDB1F5CF265";
shapes = (
{
closed = 1;
nodes = (
(746,1056,ls),
(746,1380,o),
(558,1556,o),
(246,1556,cs),
(190,1556,o),
(130,1548,o),
(74,1532,c),
(86,1316,l),
(122,1324,o),
(174,1328,o),
(222,1328,cs),
(382,1328,o),
(474,1228,o),
(474,1056,cs),
(474,0,l),
(746,0,l)
);
},
{
closed = 1;
nodes = (
(474,-108,ls),
(474,-432,o),
(662,-608,o),
(974,-608,cs),
(1030,-608,o),
(1090,-600,o),
(1150,-588,c),
(1134,-368,l),
(1098,-376,o),
(1046,-380,o),
(998,-380,cs),
(842,-380,o),
(746,-284,o),
(746,-108,cs),
(746,952,l),
(474,952,l)
);
}
);
width = 1220;
},
{
guides = (
{
pos = (-136,1516);
},
{
pos = (-136,-600);
}
);
layerId = "5C20EF92-B63D-42A8-8878-93C2863E0093";
shapes = (
{
closed = 1;
nodes = (
(972,1012,ls),
(972,1360,o),
(735,1556,o),
(360,1556,cs),
(279,1556,o),
(199,1544,o),
(124,1528,c),
(120,1132,l),
(151,1144,o),
(179,1148,o),
(236,1148,cs),
(371,1148,o),
(452,1100,o),
(452,1012,cs),
(452,0,l),
(972,0,l,{
name = hr00;
})
);
},
{
closed = 1;
nodes = (
(452,-64,ls),
(452,-420,o),
(687,-608,o),
(1056,-608,cs),
(1155,-608,o),
(1231,-592,o),
(1296,-576,c),
(1304,-188,l),
(1267,-196,o),
(1239,-200,o),
(1180,-200,cs),
(1047,-200,o),
(972,-156,o),
(972,-64,cs),
(972,956,l),
(452,956,l)
);
}
);
width = 1420;
}
);
unicode = 645;
userData = {
interface.gridadjust.original = "{'width': 1158, 'leftMargin': 41, 'rightMargin': 41}";
"interface.width-adjustments" = (
-16
);
};
}
{
glyphname = trthook;
kernLeft = t;
kernRight = rthook;
layers = (
{
layerId = "B1F27B51-9973-4381-9301-4FE46FE1CA59";
shapes = (
{
closed = 1;
nodes = (
(112,1536,l),
(112,1472,l),
(720,1472,l),
(720,1536,l)
);
},
{
closed = 1;
nodes = (
(336,-258,ls),
(336,-474,o),
(500,-610,o),
(688,-610,cs),
(736,-610,o),
(772,-602,o),
(812,-586,c),
(792,-526,l),
(758,-538,o),
(728,-546,o),
(688,-546,cs),
(536,-546,o),
(400,-436,o),
(400,-258,cs),
(400,1904,l),
(336,1904,l)
);
}
);
width = 956;
},
{
layerId = "C698F293-3EC0-4A5A-A3A0-0FDB1F5CF265";
shapes = (
{
closed = 1;
nodes = (
(66,1536,l),
(66,1336,l),
(862,1336,l),
(862,1536,l)
);
},
{
closed = 1;
nodes = (
(298,-212,ls),
(298,-480,o),
(514,-608,o),
(714,-608,cs),
(802,-608,o),
(858,-592,o),
(890,-580,c),
(842,-368,l),
(822,-372,o),
(790,-380,o),
(738,-380,cs),
(634,-380,o),
(534,-348,o),
(534,-148,cs),
(534,1904,l),
(298,1904,l)
);
}
);
width = 988;
},
{
layerId = "5C20EF92-B63D-42A8-8878-93C2863E0093";
shapes = (
{
closed = 1;
nodes = (
(44,1536,l),
(44,1136,l),
(1056,1136,l),
(1056,1536,l)
);
},
{
closed = 1;
nodes = (
(240,-108,l),
(236,-432,o),
(436,-592,o),
(816,-572,cs),
(940,-564,o),
(1036,-540,o),
(1084,-524,c),
(1004,-136,l),
(984,-140,o),
(928,-152,o),
(896,-152,cs),
(824,-152,o),
(792,-120,o),
(792,-56,cs),
(792,1904,l),
(240,1904,l)
);
}
);
width = 1148;
}
);
metricLeft = t;
metricRight = t;
unicode = 648;
userData = {
interface.gridadjust.original = "{'width': 932, 'leftMargin': 8, 'rightMargin': 96}";
"interface.width-adjustments" = (
-16
);
};
}
{
glyphname = qhook;
kernLeft = c;
kernRight = g;
layers = (
{
anchors = (
{
name = bottom;
pos = (1300,-576);
},
{
name = bottom0315;
pos = (20,-696);
},
{
name = cross;
pos = (1300,-224);
},
{
name = top;
pos = (740,1792);
}
);
layerId = "B1F27B51-9973-4381-9301-4FE46FE1CA59";
shapes = (
{
closed = 1;
nodes = (
(1332,1743,o),
(1381,1796,o),
(1522,1796,cs),
(1548,1796,o),
(1585,1794,o),
(1620,1790,c),
(1620,1854,l),
(1586,1858,o),
(1549,1860,o),
(1522,1860,cs),
(1346,1860,o),
(1268,1781,o),
(1268,1536,c),
(1332,1536,l)
);
},
{
closed = 1;
nodes = (
(1332,1536,l),
(1268,1536,l),
(1268,1144,l),
(1260,1144,l),
(1177,1399,o),
(987,1560,o),
(740,1560,cs),
(377,1560,o),
(148,1218,o),
(148,764,cs),
(148,312,o),
(380,-32,o),
(740,-32,cs),
(984,-32,o),
(1180,128,o),
(1260,384,c),
(1268,384,l),
(1268,-576,l),
(1332,-576,l)
);
},
{
closed = 1;
nodes = (
(1268,348,o),
(1064,32,o),
(740,32,cs),
(416,32,o),
(212,348,o),
(212,764,cs),
(212,1180,o),
(414,1496,o),
(740,1496,cs),
(1066,1496,o),
(1268,1180,o),
(1268,764,cs)
);
}
);
width = 1700;
},
{
anchors = (
{
name = bottom;
pos = (1362,-576);
},
{
name = bottom0315;
pos = (-6,-680);
},
{
name = cross;
pos = (1358,-224);
},
{
name = top;
pos = (790,1792);
}
);
layerId = "C698F293-3EC0-4A5A-A3A0-0FDB1F5CF265";
shapes = (
{
closed = 1;
nodes = (
(1478,1640,o),
(1560,1696,o),
(1702,1696,cs),
(1724,1696,o),
(1753,1693,o),
(1778,1688,c),
(1778,1888,l),
(1756,1895,o),
(1704,1900,o),
(1642,1900,cs),
(1398,1900,o),
(1250,1769,o),
(1250,1536,c),
(1478,1536,l)
);
},
{
closed = 1;
nodes = (
(1478,1536,l),
(1250,1536,l),
(1250,1292,l),
(1222,1292,l),
(1170,1372,o),
(1078,1556,o),
(778,1556,cs),
(390,1556,o),
(122,1248,o),
(122,764,cs),
(122,276,o),
(390,-32,o),
(774,-32,cs),
(1070,-32,o),
(1170,152,o),
(1222,236,c),
(1242,236,l),
(1242,-576,l),
(1478,-576,l)
);
},
{
closed = 1;
nodes = (
(1246,420,o),
(1090,180,o),
(806,180,cs),
(510,180,o),
(358,440,o),
(358,768,cs),
(358,1092,o),
(506,1344,o),
(806,1344,cs),
(1094,1344,o),
(1246,1112,o),
(1246,768,cs)
);
}
);
width = 1840;
},
{
anchors = (
{
name = bottom;
pos = (1404,-552);
},
{
name = bottom0315;
pos = (-84,-656);
},
{
name = cross;
pos = (1412,-224);
},
{
name = top;
pos = (824,1792);
}
);
layerId = "5C20EF92-B63D-42A8-8878-93C2863E0093";
shapes = (
{
closed = 1;
nodes = (
(1684,1601,o),
(1718,1630,o),
(1812,1628,cs),
(1889,1626,o),
(1965,1608,o),
(1988,1600,c),
(1988,1940,l),
(1937,1952,o),
(1841,1972,o),
(1716,1972,cs),
(1302,1972,o),
(1136,1861,o),
(1136,1536,c),
(1684,1536,l)
);
},
{
closed = 1;
nodes = (
(1684,1536,l),
(1136,1536,l),
(1136,1268,l),
(1124,1268,l),
(1064,1424,o),
(920,1556,o),
(692,1556,cs),
(388,1556,o),
(92,1324,o),
(92,768,c),
(92,236,o),
(368,-20,o),
(696,-20,cs),
(912,-20,o),
(1060,96,o),
(1124,252,c),
(1132,252,l),
(1132,-576,l),
(1684,-576,l)
);
},
{
closed = 1;
nodes = (
(1144,544,o),
(1052,404,o),
(900,404,cs),
(748,404,o),
(660,540,o),
(660,768,cs),
(660,996,o),
(748,1132,o),
(900,1132,cs),
(1052,1132,o),
(1144,996,o),
(1144,768,c)
);
}
);
width = 2036;
}
);
metricLeft = q;
metricRight = f;
note = "decomposed q + custom tail
!post:removeoverlap";
unicode = 672;
userData = {
interface.gridadjust.original = "{'width': 1662, 'leftMargin': 127, 'rightMargin': -14}";
"interface.width-adjustments" = (
-16
);
};
}
{
glyphname = uni02AB;
layers = (
{
layerId = "B1F27B51-9973-4381-9301-4FE46FE1CA59";
shapes = (
{
closed = 1;
nodes = (
(554,64,l),
(554,0,l),
(1574,0,l),
(1574,64,l)
);
},
{
closed = 1;
nodes = (
(1534,1536,l),
(1502,1536,l),
(534,64,l),
(534,0,l),
(566,0,l),
(1534,1472,l)
);
},
{
closed = 1;
nodes = (
(254,1536,l),
(254,1472,l),
(1520,1472,l),
(1520,1536,l)
);
},
{
closed = 1;
nodes = (
(224,2048,l),
(224,0,l),
(288,0,l),
(288,2048,l)
);
}
);
width = 1660;
},
{
layerId = "C698F293-3EC0-4A5A-A3A0-0FDB1F5CF265";
shapes = (
{
closed = 1;
nodes = (
(770,220,l),
(770,0,l),
(1854,0,l),
(1854,220,l)
);
},
{
closed = 1;
nodes = (
(1834,1536,l),
(1698,1536,l),
(666,200,l),
(666,0,l),
(806,0,l),
(1834,1348,l)
);
},
{
closed = 1;
nodes = (
(330,1536,l),
(330,1316,l),
(1714,1316,l),
(1714,1536,l)
);
},
{
closed = 1;
nodes = (
(194,2048,l),
(194,0,l),
(430,0,l),
(430,2048,l)
);
}
);
width = 1992;
},
{
layerId = "5C20EF92-B63D-42A8-8878-93C2863E0093";
shapes = (
{
closed = 1;
nodes = (
(984,416,l),
(984,0,l),
(2204,0,l),
(2204,416,l)
);
},
{
closed = 1;
nodes = (
(2188,1536,l),
(1816,1536,l),
(864,284,l),
(864,0,l),
(1236,0,l),
(2188,1248,l)
);
},
{
closed = 1;
nodes = (
(396,1536,l),
(396,1120,l),
(2024,1120,l),
(2024,1536,l)
);
},
{
closed = 1;
nodes = (
(140,2048,l),
(140,0,l),
(692,0,l),
(692,2048,l)
);
}
);
width = 2368;
}
);
unicode = 683;
userData = {
interface.gridadjust.original = "{'width': 1767, 'leftMargin': 256, 'rightMargin': 98}";
"interface.width-adjustments" = (
-16
);
};
}
{
glyphname = hturnlthook;
kernLeft = t;
kernRight = g;
layers = (
{
layerId = "B1F27B51-9973-4381-9301-4FE46FE1CA59";
shapes = (
{
closed = 1;
nodes = (
(180,1502,o),
(216,1504,o),
(242,1504,cs),
(384,1504,o),
(432,1442,o),
(432,1272,cs),
(432,504,ls),
(432,196,o),
(648,-20,o),
(956,-20,cs),
(1168,-20,o),
(1344,84,o),
(1416,244,c),
(1424,244,l),
(1424,-576,l),
(1488,-576,l),
(1488,1536,l),
(1424,1536,l),
(1424,504,ls),
(1424,236,o),
(1228,44,o),
(956,44,cs),
(684,44,o),
(496,232,o),
(496,504,cs),
(496,1272,ls),
(496,1480,o),
(418,1568,o),
(242,1568,cs),
(216,1568,o),
(178,1566,o),
(144,1562,c),
(144,1498,l)
);
}
);
width = 1736;
},
{
layerId = "C698F293-3EC0-4A5A-A3A0-0FDB1F5CF265";
shapes = (
{
closed = 1;
nodes = (
(118,1348,o),
(146,1352,o),
(174,1352,cs),
(302,1352,o),
(398,1304,o),
(398,1144,cs),
(398,560,ls),
(398,164,o),
(606,-20,o),
(922,-20,cs),
(1162,-20,o),
(1302,80,o),
(1374,240,c),
(1394,240,l),
(1394,-576,l),
(1630,-576,l),
(1630,1536,l),
(1394,1536,l),
(1394,612,ls),
(1394,344,o),
(1222,192,o),
(990,192,cs),
(766,192,o),
(634,332,o),
(634,576,cs),
(634,1144,ls),
(634,1408,o),
(458,1556,o),
(234,1556,cs),
(186,1556,o),
(134,1556,o),
(98,1544,c),
(98,1344,l)
);
}
);
width = 1824;
},
{
layerId = "5C20EF92-B63D-42A8-8878-93C2863E0093";
shapes = (
{
closed = 1;
nodes = (
(80,1136,o),
(120,1140,o),
(160,1140,cs),
(256,1140,o),
(368,1120,o),
(368,1028,cs),
(368,556,ls),
(368,220,o),
(580,-20,o),
(904,-20,cs),
(1132,-20,o),
(1300,96,o),
(1368,292,c),
(1384,292,l),
(1384,-576,l),
(1916,-576,l),
(1916,1536,l),
(1364,1536,l),
(1364,672,ls),
(1364,520,o),
(1276,428,o),
(1140,428,cs),
(1000,428,o),
(920,520,o),
(920,672,cs),
(920,1028,ls),
(920,1480,o),
(644,1556,o),
(308,1556,cs),
(176,1556,o),
(100,1544,o),
(36,1540,c),
(36,1132,l)
);
}
);
width = 2056;
}
);
metricLeft = x;
metricRight = g;
unicode = 686;
userData = {
interface.gridadjust.original = "{'width': 1766, 'leftMargin': 41, 'rightMargin': 214}";
"interface.width-adjustments" = (
-16
);
};
}
{
glyphname = hhooksuper;
layers = (
{
layerId = "B1F27B51-9973-4381-9301-4FE46FE1CA59";
shapes = (
{
closed = 1;
nodes = (
(214,2388,o),
(240,2420,o),
(320,2420,cs),
(348,2420,o),
(372,2416,o),
(406,2408,c),
(406,2472,l),
(374,2480,o),
(350,2484,o),
(320,2484,cs),
(202,2484,o),
(154,2426,o),
(154,2268,cs),
(154,900,l),
(214,900,l),
(214,2268,ls)
);
},
{
closed = 1;
nodes = (
(206,1772,o),
(342,1956,o),
(538,1956,cs),
(696,1956,o),
(814,1836,o),
(814,1660,cs),
(814,900,l),
(878,900,l),
(878,1660,ls),
(878,1872,o),
(736,2016,o),
(546,2016,cs),
(386,2016,o),
(174,1908,o),
(174,1636,c),
(206,1636,l)
);
}
);
width = 1038;
},
{
layerId = "C698F293-3EC0-4A5A-A3A0-0FDB1F5CF265";
shapes = (
{
closed = 1;
nodes = (
(422,2220,o),
(458,2236,o),
(490,2236,cs),
(526,2236,o),
(570,2228,o),
(590,2224,c),
(590,2456,l),
(518,2472,o),
(454,2484,o),
(382,2484,cs),
(210,2484,o),
(170,2352,o),
(170,2160,cs),
(170,896,l),
(422,896,l),
(422,2144,l)
);
},
{
closed = 1;
nodes = (
(390,1664,o),
(458,1808,o),
(614,1808,cs),
(726,1808,o),
(798,1740,o),
(798,1548,cs),
(798,896,l),
(1050,896,l),
(1050,1596,ls),
(1050,1892,o),
(914,2016,o),
(698,2016,cs),
(466,2016,o),
(326,1792,o),
(326,1480,c),
(390,1484,l)
);
}
);
width = 1220;
},
{
layerId = "5C20EF92-B63D-42A8-8878-93C2863E0093";
shapes = (
{
closed = 1;
nodes = (
(538,2116,o),
(582,2196,o),
(720,2196,cs),
(746,2196,o),
(766,2196,o),
(804,2184,c),
(804,2480,l),
(794,2480,o),
(646,2488,o),
(596,2488,cs),
(342,2488,o),
(198,2416,o),
(200,2076,cs),
(200,900,l),
(540,900,l),
(540,2032,l)
);
},
{
closed = 1;
nodes = (
(498,1620,o),
(558,1724,o),
(720,1724,cs),
(850,1724,o),
(894,1640,o),
(896,1464,cs),
(896,900,l),
(1240,900,l),
(1240,1596,ls),
(1238,1892,o),
(1090,2016,o),
(848,2016,cs),
(582,2016,o),
(434,1792,o),
(436,1480,c),
(500,1484,l)
);
}
);
width = 1432;
}
);
unicode = 689;
userData = {
interface.gridadjust.original = "{'width': 1156, 'leftMargin': 138, 'rightMargin': 137}";
"interface.width-adjustments" = (
-16
);
};
}
{
glyphname = finaltsadi;
layers = (
{
layerId = "B1F27B51-9973-4381-9301-4FE46FE1CA59";
shapes = (
{
closed = 1;
nodes = (
(156,930,o),
(179,928,o),
(202,928,cs),
(340,928,o),
(451,1005,o),
(498,1132,c),
(490,1246,l),
(458,1095,o),
(343,992,o),
(194,992,cs),
(174,992,o),
(151,994,o),
(128,1000,c),
(128,934,l)
);
},
{
closed = 1;
nodes = (
(764,524,l),
(740,518,o),
(716,516,o),
(692,516,cs),
(604,516,o),
(552,548,o),
(552,676,cs),
(552,1988,l),
(488,1988,l),
(488,676,ls),
(488,510,o),
(566,452,o),
(692,452,cs),
(716,452,o),
(740,454,o),
(764,460,c)
);
}
);
width = 884;
},
{
layerId = "C698F293-3EC0-4A5A-A3A0-0FDB1F5CF265";
shapes = (
{
closed = 1;
nodes = (
(126,880,o),
(166,876,o),
(210,876,cs),
(398,876,o),
(530,1100,o),
(530,1408,c),
(466,1408,l),
(462,1236,o),
(402,1112,o),
(254,1112,cs),
(202,1112,o),
(158,1124,o),
(114,1144,c),
(114,888,l)
);
},
{
closed = 1;
nodes = (
(854,712,l),
(834,704,o),
(790,696,o),
(754,696,cs),
(718,696,o),
(682,716,o),
(682,788,cs),
(682,1996,l),
(430,1996,l),
(430,772,ls),
(430,580,o),
(474,452,o),
(646,452,cs),
(718,452,o),
(778,460,o),
(854,476,c)
);
}
);
width = 964;
},
{
layerId = "5C20EF92-B63D-42A8-8878-93C2863E0093";
shapes = (
{
closed = 1;
nodes = (
(113,896,o),
(133,892,o),
(164,892,cs),
(393,892,o),
(541,1116,o),
(540,1432,c),
(472,1424,l),
(473,1288,o),
(373,1236,o),
(232,1236,cs),
(185,1236,o),
(133,1240,o),
(96,1252,c),
(96,900,l)
);
},
{
closed = 1;
nodes = (
(1040,780,l),
(1009,772,o),
(985,768,o),
(964,768,cs),
(829,768,o),
(781,852,o),
(780,932,cs),
(780,2008,l),
(440,2008,l),
(440,888,ls),
(441,552,o),
(581,476,o),
(840,476,cs),
(909,476,o),
(1033,488,o),
(1040,488,c)
);
}
);
width = 1136;
}
);
unicode = 693;
userData = {
interface.gridadjust.original = "{'width': 850, 'leftMargin': 55, 'rightMargin': 55}";
"interface.width-adjustments" = (
-16
);
};
}
{
glyphname = commareversedmod;
layers = (
{
layerId = "B1F27B51-9973-4381-9301-4FE46FE1CA59";
shapes = (
{
closed = 1;
nodes = (
(436,1364,l),
(408,1516,o),
(360,1762,o),
(312,2032,cs),
(292,2144,l),
(224,2144,l),
(244,2040,ls),
(281,1846,o),
(336,1514,o),
(384,1364,c)
);
}
);
width = 660;
},
{
layerId = "C698F293-3EC0-4A5A-A3A0-0FDB1F5CF265";
shapes = (
{
closed = 1;
nodes = (
(544,1364,l),
(518,1490,o),
(461,1760,o),
(432,2032,cs),
(420,2144,l),
(164,2144,l),
(180,2036,ls),
(214,1808,o),
(316,1500,o),
(364,1364,c)
);
}
);
width = 708;
},
{
layerId = "5C20EF92-B63D-42A8-8878-93C2863E0093";
shapes = (
{
closed = 1;
nodes = (
(714,1364,l),
(682,1474,o),
(590,1760,o),
(590,2032,cs),
(590,2144,l),
(174,2144,l),
(182,2032,ls),
(203,1742,o),
(326,1474,o),
(374,1364,c)
);
}
);
width = 888;
}
);
unicode = 701;
userData = {
interface.gridadjust.original = "{'width': 626, 'leftMargin': 110, 'rightMargin': 110}";
"interface.width-adjustments" = (
-16
);
};
}
{
color = (204,240,242,1);
glyphname = arrowheaddownmod;
layers = (
{
layerId = "B1F27B51-9973-4381-9301-4FE46FE1CA59";
shapes = (
{
closed = 1;
nodes = (
(588,820,l),
(1036,1792,l),
(966,1792,l),
(568,928,l),
(522,820,l)
);
},
{
closed = 1;
nodes = (
(584,820,l),
(538,928,l),
(140,1792,l),
(70,1792,l),
(518,820,l)
);
}
);
width = 1106;
},
{
layerId = "C698F293-3EC0-4A5A-A3A0-0FDB1F5CF265";
shapes = (
{
closed = 1;
nodes = (
(706,804,l),
(1114,1800,l),
(874,1800,l),
(634,1180,l),
(538,804,l)
);
},
{
closed = 1;
nodes = (
(682,804,l),
(582,1180,l),
(346,1800,l),
(106,1800,l),
(518,804,l)
);
}
);
width = 1220;
},
{
layerId = "5C20EF92-B63D-42A8-8878-93C2863E0093";
shapes = (
{
closed = 1;
nodes = (
(884,780,l),
(1260,1872,l),
(924,1872,l),
(716,1276,l),
(628,780,l)
);
},
{
closed = 1;
nodes = (
(792,780,l),
(704,1276,l),
(504,1872,l),
(160,1872,l),
(540,780,l)
);
}
);
width = 1420;
}
);
unicode = 709;
userData = {
interface.gridadjust.original = "{'width': 1090, 'leftMargin': 41, 'rightMargin': 41}";
"interface.width-adjustments" = (
-16
);
};
}
{
color = (204,240,242,1);
glyphname = uptackmod;
layers = (
{
layerId = "B1F27B51-9973-4381-9301-4FE46FE1CA59";
shapes = (
{
closed = 1;
nodes = (
(644,264,l),
(644,328,l),
(208,328,l),
(208,264,l)
);
},
{
closed = 1;
nodes = (
(458,264,l),
(458,684,l),
(394,684,l),
(394,264,l)
);
}
);
width = 850;
},
{
layerId = "C698F293-3EC0-4A5A-A3A0-0FDB1F5CF265";
shapes = (
{
closed = 1;
nodes = (
(762,236,l),
(762,428,l),
(202,428,l),
(202,236,l)
);
},
{
closed = 1;
nodes = (
(586,236,l),
(586,700,l),
(378,700,l),
(378,236,l)
);
}
);
width = 964;
},
{
layerId = "5C20EF92-B63D-42A8-8878-93C2863E0093";
shapes = (
{
closed = 1;
nodes = (
(964,192,l),
(964,484,l),
(200,484,l),
(200,192,l)
);
},
{
closed = 1;
nodes = (
(740,192,l),
(740,852,l),
(424,852,l),
(424,192,l)
);
}
);
width = 1164;
}
);
unicode = 724;
userData = {
interface.gridadjust.original = "{'width': 781.0, 'leftMargin': 110, 'rightMargin': 110.0}";
"interface.width-adjustments" = (
-16
);
};
}
{
color = (204,240,242,1);
glyphname = downtackmod;
layers = (
{
layerId = "B1F27B51-9973-4381-9301-4FE46FE1CA59";
shapes = (
{
closed = 1;
nodes = (
(644,620,l),
(644,684,l),
(208,684,l),
(208,620,l)
);
},
{
closed = 1;
nodes = (
(458,264,l),
(458,684,l),
(394,684,l),
(394,264,l)
);
}
);
width = 852;
},
{
layerId = "C698F293-3EC0-4A5A-A3A0-0FDB1F5CF265";
shapes = (
{
closed = 1;
nodes = (
(762,548,l),
(762,740,l),
(202,740,l),
(202,548,l)
);
},
{
closed = 1;
nodes = (
(586,236,l),
(586,740,l),
(378,740,l),
(378,236,l)
);
}
);
width = 964;
},
{
layerId = "5C20EF92-B63D-42A8-8878-93C2863E0093";
shapes = (
{
closed = 1;
nodes = (
(964,544,l),
(964,836,l),
(200,836,l),
(200,544,l)
);
},
{
closed = 1;
nodes = (
(740,192,l),
(740,836,l),
(424,836,l),
(424,192,l)
);
}
);
width = 1164;
}
);
unicode = 725;
userData = {
interface.gridadjust.original = "{'width': 781.0, 'leftMargin': 110, 'rightMargin': 110.0}";
"interface.width-adjustments" = (
-16
);
};
}
{
color = (204,240,242,1);
glyphname = breve;
layers = (
{
anchors = (
{
name = _top;
pos = (552,1792);
},
{
name = mkmktop_acc;
pos = (552,2212);
}
);
layerId = "B1F27B51-9973-4381-9301-4FE46FE1CA59";
shapes = (
{
closed = 1;
nodes = (
(712,1942,o),
(656,1884,o),
(552,1884,cs),
(448,1884,o),
(392,1942,o),
(392,2048,c),
(328,2048,l),
(328,1907,o),
(412,1820,o),
(552,1820,cs),
(692,1820,o),
(776,1907,o),
(776,2048,c),
(712,2048,l)
);
}
);
width = 1104;
},
{
anchors = (
{
name = _top;
pos = (610,1792);
},
{
name = mkmktop_acc;
pos = (610,2236);
}
);
layerId = "C698F293-3EC0-4A5A-A3A0-0FDB1F5CF265";
shapes = (
{
closed = 1;
nodes = (
(806,1944,o),
(750,1852,o),
(610,1852,cs),
(470,1852,o),
(418,1944,o),
(418,2048,c),
(198,2048,l),
(198,1832,o),
(358,1680,o),
(610,1680,cs),
(866,1680,o),
(1026,1832,o),
(1026,2048,c),
(806,2048,l)
);
}
);
width = 1220;
},
{
anchors = (
{
name = _top;
pos = (710,1792);
},
{
name = mkmktop_acc;
pos = (710,2276);
}
);
layerId = "5C20EF92-B63D-42A8-8878-93C2863E0093";
shapes = (
{
closed = 1;
nodes = (
(909,2000,o),
(853,1920,o),
(710,1920,cs),
(561,1920,o),
(505,2004,o),
(506,2088,c),
(162,2088,l),
(161,1828,o),
(373,1660,o),
(710,1660,cs),
(1045,1660,o),
(1257,1828,o),
(1258,2088,c),
(910,2088,l)
);
}
);
width = 1420;
}
);
unicode = 728;
userData = {
interface.gridadjust.original = "{'width': 1206, 'leftMargin': 176, 'rightMargin': 201}";
"interface.width-adjustments" = (
-16
);
};
}
{
color = (204,240,242,1);
glyphname = ogonek;
layers = (
{
anchors = (
{
name = _ogonek;
pos = (342,0);
}
);
layerId = "B1F27B51-9973-4381-9301-4FE46FE1CA59";
shapes = (
{
closed = 1;
nodes = (
(366,-608,o),
(420,-586,o),
(478,-544,c),
(440,-492,l),
(392,-527,o),
(353,-544,o),
(294,-544,cs),
(192,-544,o),
(122,-492,o),
(122,-374,cs),
(122,-249,o),
(204,-138,o),
(342,0,c),
(278,0,l),
(147,-123,o),
(58,-228,o),
(58,-374,cs),
(58,-527,o),
(156,-608,o),
(294,-608,cs)
);
}
);
width = 612;
},
{
anchors = (
{
name = _ogonek;
pos = (536,0);
}
);
associatedMasterId = "B1F27B51-9973-4381-9301-4FE46FE1CA59";
background = {
shapes = (
{
closed = 1;
nodes = (
(444,-600,o),
(516,-568,o),
(560,-540,c),
(544,-364,l),
(516,-380,o),
(468,-400,o),
(408,-400,cs),
(328,-400,o),
(304,-364,o),
(304,-304,cs),
(304,-184,o),
(416,-88,o),
(536,0,c),
(428,84,l),
(164,-36,o),
(64,-188,o),
(64,-336,cs),
(64,-508,o),
(184,-600,o),
(348,-600,cs)
);
},
{
closed = 0;
nodes = (
(-84,38,l),
(-382,-98,o),
(-476,-184,o),
(-476,-336,cs),
(-476,-482,o),
(-392,-576,o),
(-256,-576,cs),
(-186,-576,o),
(-94,-552,o),
(-40,-516,c)
);
},
{
closed = 0;
nodes = (
(516,38,l),
(306,-80,o),
(204,-204,o),
(204,-354,cs),
(204,-506,o),
(308,-576,o),
(408,-576,cs),
(478,-576,o),
(534,-546,o),
(572,-518,c)
);
}
);
};
layerId = "52D975C4-1382-4F77-8F34-B262951668A6";
name = "Sep 4 19, 07:14";
shapes = (
{
closed = 1;
nodes = (
(506,-527,o),
(458,-544,o),
(408,-544,cs),
(306,-544,o),
(236,-468,o),
(236,-354,cs),
(236,-219,o),
(332,-114,o),
(536,0,c),
(482,42,l),
(274,-80,o),
(172,-198,o),
(172,-354,cs),
(172,-503,o),
(270,-608,o),
(408,-608,cs),
(471,-608,o),
(534,-586,o),
(592,-544,c),
(554,-492,l)
);
}
);
width = 676;
},
{
anchors = (
{
name = _ogonek;
pos = (578,0);
}
);
layerId = "C698F293-3EC0-4A5A-A3A0-0FDB1F5CF265";
shapes = (
{
closed = 1;
nodes = (
(486,-600,o),
(558,-568,o),
(602,-540,c),
(586,-364,l),
(558,-380,o),
(510,-400,o),
(450,-400,cs),
(370,-400,o),
(346,-364,o),
(346,-304,cs),
(346,-184,o),
(458,-88,o),
(578,0,c),
(470,84,l),
(206,-36,o),
(106,-188,o),
(106,-336,cs),
(106,-508,o),
(226,-600,o),
(390,-600,cs)
);
}
);
width = 708;
},
{
anchors = (
{
name = _ogonek;
pos = (708,0);
}
);
layerId = "5C20EF92-B63D-42A8-8878-93C2863E0093";
shapes = (
{
closed = 1;
nodes = (
(615,-556,o),
(695,-524,o),
(748,-496,c),
(684,-248,l),
(659,-252,o),
(635,-264,o),
(600,-264,cs),
(547,-264,o),
(507,-228,o),
(508,-160,cs),
(507,-80,o),
(579,-40,o),
(708,0,c),
(252,136,l),
(135,84,o),
(87,-120,o),
(140,-292,cs),
(191,-460,o),
(323,-556,o),
(508,-556,cs)
);
}
);
width = 880;
}
);
unicode = 731;
userData = {
interface.gridadjust.original = "{'width': 776, 'leftMargin': 66, 'rightMargin': 214}";
"interface.width-adjustments" = (
-16
);
};
}
{
color = (204,240,242,1);
glyphname = tilde;
layers = (
{
anchors = (
{
name = _top;
pos = (668,1792);
},
{
name = top;
pos = (668,2304);
}
);
layerId = "B1F27B51-9973-4381-9301-4FE46FE1CA59";
shapes = (
{
closed = 1;
nodes = (
(285,1895,o),
(368,1960,o),
(472,1960,cs),
(642,1960,o),
(693,1796,o),
(864,1796,cs),
(985,1796,o),
(1099,1878,o),
(1128,2000,c),
(1064,2016,l),
(1043,1922,o),
(955,1860,o),
(864,1860,cs),
(717,1860,o),
(657,2024,o),
(472,2024,cs),
(336,2024,o),
(227,1937,o),
(208,1812,c),
(272,1804,l)
);
}
);
width = 1336;
},
{
anchors = (
{
name = _top;
pos = (588,1804);
},
{
name = mkmktop_acc;
pos = (588,2128);
}
);
associatedMasterId = "B1F27B51-9973-4381-9301-4FE46FE1CA59";
layerId = "E4FC7430-E13F-4722-BE3C-2B68207F3BFD";
name = "Dec 25 18, 15:42";
shapes = (
{
closed = 0;
nodes = (
(1008,2008,l),
(983,1903,o),
(890,1828,o),
(784,1828,cs),
(627,1828,o),
(566,1992,o),
(388,1992,cs),
(268,1992,o),
(172,1916,o),
(156,1808,c)
);
}
);
width = 1172;
},
{
anchors = (
{
name = _top;
pos = (682,1792);
},
{
name = top;
pos = (682,2304);
}
);
layerId = "C698F293-3EC0-4A5A-A3A0-0FDB1F5CF265";
shapes = (
{
closed = 1;
nodes = (
(374,1804,o),
(430,1872,o),
(506,1872,cs),
(658,1872,o),
(686,1744,o),
(870,1744,cs),
(1042,1744,o),
(1174,1876,o),
(1174,2084,c),
(994,2100,l),
(994,2016,o),
(934,1948,o),
(858,1948,cs),
(714,1948,o),
(646,2076,o),
(494,2076,cs),
(322,2076,o),
(190,1932,o),
(190,1728,c),
(374,1720,l)
);
}
);
width = 1364;
},
{
anchors = (
{
name = _top;
pos = (704,1792);
},
{
name = top;
pos = (704,2304);
}
);
layerId = "5C20EF92-B63D-42A8-8878-93C2863E0093";
shapes = (
{
closed = 1;
nodes = (
(432,1828,o),
(472,1880,o),
(536,1880,cs),
(638,1880,o),
(699,1714,o),
(908,1716,cs),
(1095,1718,o),
(1244,1865,o),
(1248,2148,c),
(980,2148,l),
(978,2051,o),
(949,1993,o),
(872,1992,cs),
(777,1991,o),
(707,2157,o),
(500,2156,cs),
(311,2155,o),
(160,2016,o),
(160,1728,c),
(432,1728,l)
);
}
);
width = 1408;
}
);
unicode = 732;
userData = {
interface.gridadjust.original = "{'width': 1352, 'leftMargin': 175, 'rightMargin': 194}";
"interface.width-adjustments" = (
-16
);
};
}
{
glyphname = glottalstopreversed.numr;
layers = (
{
layerId = "B1F27B51-9973-4381-9301-4FE46FE1CA59";
shapes = (
{
closed = 1;
nodes = (
(976,1620,l),
(945,1878,o),
(787,2016,o),
(524,2016,cs),
(238,2016,o),
(52,1838,o),
(52,1554,cs),
(52,1286,o),
(231,1112,o),
(496,1114,c),
(520,1114,l),
(520,1176,l,{
name = hr00;
}),
(508,1176,l),
(267,1174,o),
(116,1316,o),
(116,1554,cs),
(116,1802,o),
(273,1952,o),
(524,1952,cs),
(750,1952,o),
(883,1839,o),
(912,1620,c)
);
},
{
closed = 1;
nodes = (
(532,1176,l),
(468,1176,l),
(468,896,l),
(532,896,l)
);
}
);
width = 1026;
},
{
layerId = "C698F293-3EC0-4A5A-A3A0-0FDB1F5CF265";
shapes = (
{
closed = 1;
nodes = (
(1102,1608,l),
(1102,1860,o),
(882,2016,o),
(614,2016,cs),
(334,2016,o),
(118,1836,o),
(118,1516,cs),
(118,1192,o),
(330,1032,o),
(610,1032,c),
(658,1032,l),
(658,1240,l),
(614,1240,ls),
(426,1240,o),
(370,1348,o),
(370,1520,cs),
(370,1692,o),
(438,1804,o),
(610,1804,cs),
(750,1804,o),
(834,1720,o),
(846,1608,c)
);
},
{
closed = 1;
nodes = (
(730,1240,l),
(478,1240,l),
(478,896,l),
(730,896,l)
);
}
);
width = 1220;
},
{
layerId = "5C20EF92-B63D-42A8-8878-93C2863E0093";
shapes = (
{
closed = 1;
nodes = (
(1192,1584,l),
(1194,1832,o),
(1010,2016,o),
(720,2016,cs),
(426,2016,o),
(238,1840,o),
(236,1512,cs),
(238,1272,o),
(390,1032,o),
(648,1032,cs),
(880,1032,l),
(880,1268,l),
(724,1268,ls),
(634,1268,o),
(574,1360,o),
(572,1488,cs),
(574,1636,o),
(646,1732,o),
(748,1732,cs),
(826,1732,o),
(890,1680,o),
(888,1584,c)
);
},
{
closed = 1;
nodes = (
(888,1268,l),
(556,1268,l),
(556,900,l),
(888,900,l)
);
}
);
width = 1428;
}
);
unicode = 740;
userData = {
interface.gridadjust.original = "{'width': 1176, 'leftMargin': 96, 'rightMargin': 97}";
"interface.width-adjustments" = (
-16
);
};
}
{
color = (204,240,242,1);
glyphname = uni02EA;
layers = (
{
layerId = "B1F27B51-9973-4381-9301-4FE46FE1CA59";
shapes = (
{
closed = 1;
nodes = (
(88,64,l),
(88,0,l),
(620,0,l),
(620,64,l)
);
},
{
closed = 1;
nodes = (
(28,1248,l),
(28,0,l),
(92,0,l),
(92,1248,l)
);
}
);
width = 642;
},
{
layerId = "C698F293-3EC0-4A5A-A3A0-0FDB1F5CF265";
shapes = (
{
closed = 1;
nodes = (
(254,220,l),
(254,0,l),
(874,0,l),
(874,220,l)
);
},
{
closed = 1;
nodes = (
(94,1248,l),
(94,0,l),
(366,0,l),
(366,1248,l)
);
}
);
width = 964;
},
{
layerId = "5C20EF92-B63D-42A8-8878-93C2863E0093";
shapes = (
{
closed = 1;
nodes = (
(536,416,l),
(536,0,l),
(1304,0,l),
(1304,416,l)
);
},
{
closed = 1;
nodes = (
(212,1248,l),
(212,0,l),
(732,0,l),
(732,1248,l)
);
}
);
width = 1512;
}
);
unicode = 746;
userData = {
interface.gridadjust.original = "{'width': 1023.0, 'leftMargin': 188, 'rightMargin': 55.0}";
"interface.width-adjustments" = (
-16
);
};
}
{
color = (204,240,242,1);
glyphname = uni02ED;
layers = (
{
layerId = "B1F27B51-9973-4381-9301-4FE46FE1CA59";
shapes = (
{
closed = 1;
nodes = (
(116,2040,l),
(116,1976,l),
(992,1976,l),
(992,2040,l)
);
},
{
closed = 1;
nodes = (
(116,1740,l),
(116,1676,l),
(992,1676,l),
(992,1740,l)
);
}
);
width = 1100;
},
{
layerId = "C698F293-3EC0-4A5A-A3A0-0FDB1F5CF265";
shapes = (
{
closed = 1;
nodes = (
(158,2112,l),
(158,1928,l),
(1066,1928,l),
(1066,2112,l)
);
},
{
closed = 1;
nodes = (
(158,1796,l),
(158,1608,l),
(1066,1608,l),
(1066,1796,l)
);
}
);
width = 1220;
},
{
layerId = "5C20EF92-B63D-42A8-8878-93C2863E0093";
shapes = (
{
closed = 1;
nodes = (
(236,2200,l),
(236,1916,l),
(1196,1916,l),
(1196,2200,l)
);
},
{
closed = 1;
nodes = (
(236,1848,l),
(236,1564,l),
(1196,1564,l),
(1196,1848,l)
);
}
);
width = 1432;
}
);
unicode = 749;
userData = {
interface.gridadjust.original = "{'width': 1074, 'leftMargin': 83, 'rightMargin': 83}";
"interface.width-adjustments" = (
-16
);
};
}
{
color = (204,240,242,1);
glyphname = uni02F0;
layers = (
{
layerId = "B1F27B51-9973-4381-9301-4FE46FE1CA59";
shapes = (
{
closed = 1;
nodes = (
(456,-100,l),
(402,-100,l),
(152,-740,l),
(220,-740,l),
(388,-312,l)
);
},
{
closed = 1;
nodes = (
(700,-740,l),
(466,-100,l),
(410,-100,l),
(476,-312,l),
(632,-740,l)
);
}
);
width = 856;
},
{
layerId = "C698F293-3EC0-4A5A-A3A0-0FDB1F5CF265";
shapes = (
{
closed = 1;
nodes = (
(534,-100,l),
(418,-100,l),
(130,-748,l),
(298,-748,l),
(466,-344,l)
);
},
{
closed = 1;
nodes = (
(834,-748,l),
(550,-100,l),
(434,-100,l),
(502,-344,l),
(666,-748,l)
);
}
);
width = 964;
},
{
layerId = "5C20EF92-B63D-42A8-8878-93C2863E0093";
shapes = (
{
closed = 1;
nodes = (
(636,-100,l),
(456,-100,l),
(192,-764,l),
(432,-764,l),
(572,-400,l)
);
},
{
closed = 1;
nodes = (
(964,-764,l),
(700,-100,l),
(524,-100,l),
(584,-400,l),
(728,-764,l)
);
}
);
width = 1156;
}
);
unicode = 752;
userData = {
interface.gridadjust.original = "{'width': 843, 'leftMargin': 69, 'rightMargin': 69}";
"interface.width-adjustments" = (
-16
);
};
}
{
color = (250,227,227,1);
glyphname = caroncmb;
layers = (
{
anchors = (
{
name = _top;
pos = (-864,1648);
}
);
layerId = "B1F27B51-9973-4381-9301-4FE46FE1CA59";
shapes = (
{
closed = 1;
nodes = (
(-854,1728,l),
(-486,2044,l),
(-486,2052,l),
(-566,2052,l),
(-862,1800,l),
(-1156,2052,l),
(-1238,2052,l),
(-1238,2044,l),
(-870,1728,l)
);
}
);
width = 0;
},
{
anchors = (
{
name = _top;
pos = (-844,1648);
}
);
layerId = "C698F293-3EC0-4A5A-A3A0-0FDB1F5CF265";
shapes = (
{
closed = 1;
nodes = (
(-764,1724,l),
(-420,2100,l),
(-420,2116,l),
(-644,2116,l),
(-848,1884,l),
(-1044,2116,l),
(-1268,2116,l),
(-1268,2100,l),
(-928,1724,l)
);
}
);
width = 0;
},
{
anchors = (
{
name = _top;
pos = (-896,1648);
}
);
layerId = "5C20EF92-B63D-42A8-8878-93C2863E0093";
shapes = (
{
closed = 1;
nodes = (
(-748,1704,l),
(-256,2092,l),
(-256,2112,l),
(-664,2112,l),
(-896,1940,l),
(-1128,2112,l),
(-1524,2112,l),
(-1524,2084,l),
(-1044,1704,l)
);
}
);
width = 0;
}
);
unicode = 780;
}
{
color = (250,227,227,1);
glyphname = tackleftsubnosp;
layers = (
{
layerId = "B1F27B51-9973-4381-9301-4FE46FE1CA59";
shapes = (
{
closed = 1;
nodes = (
(-580,-486,l),
(-580,-90,l),
(-644,-90,l),
(-644,-486,l)
);
},
{
closed = 1;
nodes = (
(-580,-320,l),
(-580,-256,l),
(-976,-256,l),
(-976,-320,l)
);
}
);
width = 0;
},
{
layerId = "C698F293-3EC0-4A5A-A3A0-0FDB1F5CF265";
shapes = (
{
closed = 1;
nodes = (
(-580,-612,l),
(-580,-84,l),
(-788,-84,l),
(-788,-612,l)
);
},
{
closed = 1;
nodes = (
(-596,-444,l),
(-596,-252,l),
(-1128,-252,l),
(-1128,-444,l)
);
}
);
width = 0;
},
{
layerId = "5C20EF92-B63D-42A8-8878-93C2863E0093";
shapes = (
{
closed = 1;
nodes = (
(-548,-780,l),
(-548,-96,l),
(-856,-96,l),
(-856,-780,l)
);
},
{
closed = 1;
nodes = (
(-576,-580,l),
(-576,-292,l),
(-1352,-292,l),
(-1352,-580,l)
);
}
);
width = 0;
}
);
unicode = 792;
}
{
color = (250,227,227,1);
glyphname = cedillanosp;
layers = (
{
layerId = "B1F27B51-9973-4381-9301-4FE46FE1CA59";
shapes = (
{
closed = 1;
nodes = (
(-836,-132,l),
(-690,-129,o),
(-615,-189,o),
(-614,-304,cs),
(-613,-402,o),
(-673,-447,o),
(-822,-452,c),
(-820,-516,l),
(-644,-510,o),
(-551,-445,o),
(-550,-304,cs),
(-549,-180,o),
(-622,-93,o),
(-758,-72,c),
(-744,8,l),
(-808,8,l)
);
}
);
width = 0;
},
{
layerId = "C698F293-3EC0-4A5A-A3A0-0FDB1F5CF265";
shapes = (
{
closed = 1;
nodes = (
(-1008,-188,l),
(-856,-200,o),
(-792,-224,o),
(-792,-316,cs),
(-792,-408,o),
(-888,-444,o),
(-1008,-444,c),
(-1000,-600,l),
(-724,-600,o),
(-580,-480,o),
(-580,-308,cs),
(-580,-148,o),
(-684,-88,o),
(-788,-72,c),
(-768,0,l),
(-964,0,l)
);
}
);
width = 0;
},
{
layerId = "5C20EF92-B63D-42A8-8878-93C2863E0093";
shapes = (
{
closed = 1;
nodes = (
(-1236,-188,l),
(-1100,-192,o),
(-1048,-220,o),
(-1048,-276,cs),
(-1048,-344,o),
(-1092,-372,o),
(-1160,-372,c),
(-1148,-668,l),
(-788,-668,o),
(-596,-524,o),
(-596,-308,cs),
(-596,-152,o),
(-704,-88,o),
(-812,-72,c),
(-796,20,l),
(-1192,20,l)
);
}
);
width = 0;
}
);
unicode = 807;
}
{
color = (250,227,227,1);
glyphname = tildevertsupnosp;
layers = (
{
layerId = "B1F27B51-9973-4381-9301-4FE46FE1CA59";
shapes = (
{
closed = 1;
nodes = (
(-761,1592,o),
(-674,1661,o),
(-674,1760,cs),
(-674,1879,o),
(-798,1945,o),
(-798,2034,cs),
(-798,2096,o),
(-734,2140,o),
(-682,2152,c),
(-680,2216,l),
(-774,2198,o),
(-862,2128,o),
(-862,2028,cs),
(-862,1911,o),
(-738,1844,o),
(-738,1756,cs),
(-738,1693,o),
(-803,1650,o),
(-854,1638,c),
(-856,1574,l)
);
}
);
width = 0;
},
{
layerId = "C698F293-3EC0-4A5A-A3A0-0FDB1F5CF265";
shapes = (
{
closed = 1;
nodes = (
(-800,1552,o),
(-696,1632,o),
(-696,1760,cs),
(-696,1868,o),
(-780,1972,o),
(-780,2040,cs),
(-780,2084,o),
(-740,2104,o),
(-696,2104,c),
(-696,2268,l),
(-872,2268,o),
(-984,2196,o),
(-984,2072,cs),
(-984,1964,o),
(-888,1868,o),
(-888,1796,cs),
(-888,1756,o),
(-924,1716,o),
(-984,1716,c),
(-984,1552,l)
);
}
);
width = 0;
},
{
layerId = "5C20EF92-B63D-42A8-8878-93C2863E0093";
shapes = (
{
closed = 1;
nodes = (
(-896,1524,o),
(-732,1560,o),
(-732,1708,cs),
(-732,1860,o),
(-840,1972,o),
(-840,2088,cs),
(-840,2116,o),
(-820,2160,o),
(-740,2160,c),
(-740,2384,l),
(-944,2384,o),
(-1124,2360,o),
(-1124,2188,cs),
(-1124,2048,o),
(-1024,1888,o),
(-1024,1816,cs),
(-1024,1788,o),
(-1020,1748,o),
(-1136,1748,c),
(-1136,1524,l)
);
}
);
width = 0;
}
);
unicode = 830;
}
{
color = (250,227,227,1);
glyphname = iotasubnosp;
layers = (
{
layerId = "B1F27B51-9973-4381-9301-4FE46FE1CA59";
shapes = (
{
closed = 1;
nodes = (
(-796,-484,ls),
(-796,-575,o),
(-738,-640,o),
(-664,-640,cs),
(-646,-640,o),
(-614,-636,o),
(-600,-632,c),
(-618,-570,l),
(-627,-573,o),
(-651,-576,o),
(-664,-576,cs),
(-702,-576,o),
(-732,-539,o),
(-732,-484,cs),
(-732,-80,l),
(-796,-80,l)
);
}
);
width = 0;
},
{
layerId = "C698F293-3EC0-4A5A-A3A0-0FDB1F5CF265";
shapes = (
{
closed = 1;
nodes = (
(-948,-468,ls),
(-948,-648,o),
(-852,-724,o),
(-716,-724,cs),
(-660,-724,o),
(-624,-712,o),
(-612,-708,c),
(-612,-568,l),
(-624,-568,o),
(-652,-572,o),
(-672,-572,cs),
(-720,-572,o),
(-740,-532,o),
(-740,-462,cs),
(-740,-96,l),
(-948,-96,l)
);
}
);
width = 0;
},
{
layerId = "5C20EF92-B63D-42A8-8878-93C2863E0093";
shapes = (
{
closed = 1;
nodes = (
(-1088,-460,ls),
(-1088,-648,o),
(-960,-724,o),
(-808,-724,cs),
(-752,-724,o),
(-708,-716,o),
(-660,-700,c),
(-660,-520,l),
(-680,-524,o),
(-700,-524,o),
(-724,-524,cs),
(-792,-524,o),
(-808,-504,o),
(-808,-464,cs),
(-808,-96,l),
(-1088,-96,l)
);
}
);
width = 0;
}
);
note = "similar or identical to uni1FBE";
unicode = 837;
}
{
color = (250,227,227,1);
glyphname = uni035B;
layers = (
{
layerId = "B1F27B51-9973-4381-9301-4FE46FE1CA59";
shapes = (
{
closed = 1;
nodes = (
(-882,1922,l),
(-598,1922,l),
(-682,1624,l),
(-616,1624,l),
(-514,1986,l),
(-798,1986,l),
(-714,2284,l),
(-780,2284,l)
);
}
);
width = 0;
},
{
layerId = "C698F293-3EC0-4A5A-A3A0-0FDB1F5CF265";
shapes = (
{
closed = 1;
nodes = (
(-1064,1872,l),
(-772,1872,l),
(-856,1624,l),
(-688,1624,l),
(-552,2036,l),
(-844,2036,l),
(-760,2284,l),
(-928,2284,l)
);
}
);
width = 0;
},
{
layerId = "5C20EF92-B63D-42A8-8878-93C2863E0093";
shapes = (
{
closed = 1;
nodes = (
(-1324,1832,l),
(-940,1832,l),
(-1028,1624,l),
(-780,1624,l),
(-596,2076,l),
(-980,2076,l),
(-896,2284,l),
(-1144,2284,l)
);
}
);
width = 0;
}
);
unicode = 859;
}
{
color = (250,227,227,1);
glyphname = uni0366;
layers = (
{
layerId = "B1F27B51-9973-4381-9301-4FE46FE1CA59";
shapes = (
{
closed = 1;
nodes = (
(-492,1632,o),
(-344,1774,o),
(-344,2016,cs),
(-344,2032,ls),
(-344,2282,o),
(-494,2420,o),
(-684,2420,cs),
(-874,2420,o),
(-1036,2280,o),
(-1036,2032,cs),
(-1036,2016,ls),
(-1036,1774,o),
(-876,1632,o),
(-684,1632,cs)
);
},
{
closed = 1;
nodes = (
(-860,1696,o),
(-972,1834,o),
(-972,2014,cs),
(-972,2034,ls),
(-972,2218,o),
(-860,2356,o),
(-680,2356,cs),
(-512,2356,o),
(-408,2232,o),
(-408,2034,cs),
(-408,2014,ls),
(-408,1824,o),
(-512,1696,o),
(-684,1696,cs)
);
}
);
width = 0;
},
{
layerId = "C698F293-3EC0-4A5A-A3A0-0FDB1F5CF265";
shapes = (
{
closed = 1;
nodes = (
(-588,1632,o),
(-444,1788,o),
(-444,2016,cs),
(-444,2032,ls),
(-444,2264,o),
(-588,2420,o),
(-804,2420,cs),
(-1016,2420,o),
(-1164,2268,o),
(-1164,2032,cs),
(-1164,2016,ls),
(-1164,1784,o),
(-1016,1632,o),
(-804,1632,cs)
);
},
{
closed = 1;
nodes = (
(-928,1780,o),
(-984,1872,o),
(-984,2018,cs),
(-984,2032,ls),
(-984,2180,o),
(-928,2272,o),
(-804,2272,cs),
(-680,2272,o),
(-624,2180,o),
(-624,2032,cs),
(-624,2016,ls),
(-624,1872,o),
(-680,1780,o),
(-804,1780,cs)
);
}
);
width = 0;
},
{
layerId = "5C20EF92-B63D-42A8-8878-93C2863E0093";
shapes = (
{
closed = 1;
nodes = (
(-706,1632,o),
(-578,1804,o),
(-580,2016,cs),
(-580,2032,ls),
(-578,2248,o),
(-706,2420,o),
(-960,2420,cs),
(-1210,2420,o),
(-1342,2248,o),
(-1344,2032,cs),
(-1344,2016,ls),
(-1342,1800,o),
(-1210,1632,o),
(-960,1632,cs)
);
},
{
closed = 1;
nodes = (
(-1062,1828,o),
(-1094,1916,o),
(-1096,2016,cs),
(-1096,2032,ls),
(-1094,2128,o),
(-1062,2224,o),
(-960,2224,cs),
(-854,2224,o),
(-826,2128,o),
(-828,2032,cs),
(-828,2016,ls),
(-826,1920,o),
(-854,1828,o),
(-960,1828,cs)
);
}
);
width = 0;
}
);
unicode = 870;
}
{
color = (250,227,227,1);
glyphname = uni0367;
layers = (
{
anchors = (
{
name = _marktop;
pos = (-708,1608);
},
{
name = _mkmktop;
pos = (-708,2500);
}
);
layerId = "B1F27B51-9973-4381-9301-4FE46FE1CA59";
shapes = (
{
closed = 1;
nodes = (
(-470,1652,l),
(-424,1652,l),
(-424,2412,l),
(-488,2412,l),
(-488,1820,l)
);
},
{
closed = 1;
nodes = (
(-488,1804,o),
(-560,1704,o),
(-732,1704,cs),
(-888,1704,o),
(-928,1768,o),
(-928,1972,cs),
(-928,2412,l),
(-992,2412,l),
(-992,1942,ls),
(-992,1744,o),
(-922,1640,o),
(-740,1640,cs),
(-542,1640,o),
(-448,1772,o),
(-448,2008,c),
(-488,2004,l)
);
}
);
width = 0;
},
{
anchors = (
{
name = _marktop;
pos = (-812,1608);
},
{
name = _mkmktop;
pos = (-812,2500);
}
);
layerId = "C698F293-3EC0-4A5A-A3A0-0FDB1F5CF265";
shapes = (
{
closed = 1;
nodes = (
(-628,1652,l),
(-492,1652,l),
(-492,2412,l),
(-672,2412,l),
(-672,1828,l)
);
},
{
closed = 1;
nodes = (
(-648,1864,o),
(-700,1784,o),
(-824,1784,cs),
(-916,1784,o),
(-956,1840,o),
(-956,1960,cs),
(-956,2412,l),
(-1136,2412,l),
(-1136,1962,ls),
(-1136,1732,o),
(-1036,1640,o),
(-876,1640,cs),
(-668,1640,o),
(-584,1792,o),
(-584,2008,c),
(-648,2004,l)
);
}
);
width = 0;
},
{
anchors = (
{
name = _marktop;
pos = (-956,1608);
},
{
name = _mkmktop;
pos = (-956,2500);
}
);
layerId = "5C20EF92-B63D-42A8-8878-93C2863E0093";
shapes = (
{
closed = 1;
nodes = (
(-824,1652,l),
(-596,1652,l),
(-596,2412,l),
(-852,2412,l),
(-852,1840,l)
);
},
{
closed = 1;
nodes = (
(-828,1916,o),
(-856,1836,o),
(-972,1836,cs),
(-1024,1836,o),
(-1068,1868,o),
(-1068,1940,cs),
(-1068,2412,l),
(-1316,2412,l),
(-1316,1940,ls),
(-1316,1728,o),
(-1208,1640,o),
(-1052,1640,cs),
(-856,1640,o),
(-744,1796,o),
(-744,2008,c),
(-828,2004,l)
);
}
);
width = 0;
}
);
unicode = 871;
}
{
glyphname = uni0372;
layers = (
{
layerId = "B1F27B51-9973-4381-9301-4FE46FE1CA59";
shapes = (
{
closed = 1;
nodes = (
(1496,2004,l),
(1496,1240,l),
(1560,1240,l),
(1560,2004,l,{
name = hr00;
})
);
},
{
closed = 1;
nodes = (
(168,2004,l),
(168,1240,l),
(232,1240,l),
(232,2004,l)
);
},
{
closed = 1;
nodes = (
(818,2048,l),
(818,0,l),
(882,0,l),
(882,2048,l)
);
},
{
closed = 1;
nodes = (
(168,2048,l),
(168,1984,l),
(1560,1984,l),
(1560,2048,l)
);
}
);
width = 1728;
},
{
layerId = "C698F293-3EC0-4A5A-A3A0-0FDB1F5CF265";
shapes = (
{
closed = 1;
nodes = (
(1438,2004,l),
(1438,1240,l),
(1666,1240,l),
(1666,2004,l,{
name = hr00;
})
);
},
{
closed = 1;
nodes = (
(130,2004,l),
(130,1240,l),
(358,1240,l),
(358,2004,l)
);
},
{
closed = 1;
nodes = (
(774,2048,l),
(774,0,l),
(1022,0,l),
(1022,2048,l)
);
},
{
closed = 1;
nodes = (
(130,2048,l),
(130,1828,l),
(1666,1828,l),
(1666,2048,l)
);
}
);
width = 1796;
},
{
layerId = "5C20EF92-B63D-42A8-8878-93C2863E0093";
shapes = (
{
closed = 1;
nodes = (
(1436,2004,l),
(1436,1240,l),
(1872,1240,l),
(1872,2004,l,{
name = hr00;
})
);
},
{
closed = 1;
nodes = (
(92,2004,l),
(92,1240,l),
(528,1240,l),
(528,2004,l)
);
},
{
closed = 1;
nodes = (
(708,2048,l),
(708,0,l),
(1256,0,l),
(1256,2048,l)
);
},
{
closed = 1;
nodes = (
(92,2048,l),
(92,1600,l),
(1872,1600,l),
(1872,2048,l)
);
}
);
width = 1920;
}
);
unicode = 882;
userData = {
interface.gridadjust.original = "{'width': 1680, 'leftMargin': 67, 'rightMargin': 16}";
"interface.width-adjustments" = (
-16
);
};
}
{
glyphname = Pi;
kernLeft = B;
layers = (
{
anchors = (
{
name = right;
pos = (1604,0);
}
);
layerId = "B1F27B51-9973-4381-9301-4FE46FE1CA59";
shapes = (
{
closed = 1;
nodes = (
(236,2048,l),
(236,0,l),
(300,0,l),
(300,1984,l),
(1544,1984,l),
(1544,0,l),
(1608,0,l),
(1608,2048,l)
);
}
);
width = 1846;
},
{
anchors = (
{
name = right;
pos = (1754,0);
}
);
layerId = "C698F293-3EC0-4A5A-A3A0-0FDB1F5CF265";
shapes = (
{
closed = 1;
nodes = (
(230,2048,l),
(230,0,l),
(478,0,l),
(478,1828,l),
(1510,1828,l),
(1510,0,l),
(1758,0,l),
(1758,2048,l)
);
}
);
width = 1988;
},
{
anchors = (
{
name = right;
pos = (2008,0);
}
);
layerId = "5C20EF92-B63D-42A8-8878-93C2863E0093";
shapes = (
{
closed = 1;
nodes = (
(224,2048,l),
(224,0,l),
(772,0,l),
(772,1608,l),
(1464,1608,l),
(1464,0,l),
(2012,0,l),
(2012,2048,l)
);
}
);
width = 2236;
}
);
unicode = 928;
userData = {
interface.gridadjust.original = "{'width': 2013.0, 'leftMargin': 242, 'rightMargin': 245.0}";
"interface.width-adjustments" = (
-16
);
};
}
{
glyphname = Sigma;
layers = (
{
layerId = "B1F27B51-9973-4381-9301-4FE46FE1CA59";
shapes = (
{
closed = 1;
nodes = (
(168,64,l),
(148,0,l),
(1560,0,l),
(1560,64,l)
);
},
{
closed = 1;
nodes = (
(136,2048,l),
(136,1984,l),
(1504,1984,l),
(1504,2048,l)
);
},
{
closed = 1;
nodes = (
(164,2048,l),
(128,2048,l),
(128,1992,l),
(970,978,l),
(128,56,l),
(128,0,l),
(162,0,l),
(1040,960,l),
(1040,992,l)
);
}
);
width = 1688;
},
{
layerId = "C698F293-3EC0-4A5A-A3A0-0FDB1F5CF265";
shapes = (
{
closed = 1;
nodes = (
(274,232,l),
(274,0,l),
(1570,0,l),
(1570,232,l)
);
},
{
closed = 1;
nodes = (
(226,2004,l),
(226,1772,l),
(1506,1772,l),
(1506,2004,l)
);
},
{
closed = 1;
nodes = (
(334,2004,l),
(162,2004,l),
(162,1792,l),
(814,996,l),
(162,208,l),
(162,0,l),
(334,0,l),
(1118,984,l),
(1118,1012,l)
);
}
);
width = 1732;
},
{
layerId = "5C20EF92-B63D-42A8-8878-93C2863E0093";
shapes = (
{
closed = 1;
nodes = (
(436,440,l),
(436,0,l),
(1736,0,l),
(1736,440,l)
);
},
{
closed = 1;
nodes = (
(544,2064,l),
(544,1620,l),
(1728,1620,l),
(1728,2064,l)
);
},
{
closed = 1;
nodes = (
(696,2064,l),
(236,2064,l),
(236,1852,l),
(832,1036,l),
(236,212,l),
(236,0,l),
(696,0,l),
(1396,1028,l),
(1396,1044,l)
);
}
);
width = 1972;
}
);
unicode = 931;
userData = {
interface.gridadjust.original = "{'width': 1616, 'leftMargin': 98, 'rightMargin': 108}";
"interface.width-adjustments" = (
-16
);
};
}
{
glyphname = Phi;
kernLeft = Omicrongreek;
kernRight = Omicrongreek;
layers = (
{
background = {
shapes = (
{
closed = 1;
nodes = (
(449,1728,o),
(120,1419,o),
(120,992,cs),
(120,566,o),
(444,258,o),
(876,258,cs),
(960,258,ls),
(1392,258,o),
(1716,566,o),
(1716,992,cs),
(1716,1421,o),
(1394,1726,o),
(960,1726,cs),
(876,1726,l)
);
},
{
closed = 1;
nodes = (
(1382,1664,o),
(1654,1362,o),
(1652,992,cs),
(1650,621,o),
(1381,322,o),
(960,322,cs),
(876,322,ls),
(454,322,o),
(184,622,o),
(184,992,cs),
(184,1364,o),
(444,1662,o),
(880,1662,cs),
(960,1662,l)
);
},
{
closed = 1;
nodes = (
(950,-22,l),
(950,1982,l),
(886,1982,l),
(886,-22,l)
);
}
);
};
layerId = "B1F27B51-9973-4381-9301-4FE46FE1CA59";
shapes = (
{
closed = 1;
nodes = (
(1360,288,o),
(1684,596,o),
(1684,1022,cs),
(1684,1451,o),
(1364,1756,o),
(928,1756,cs),
(844,1756,l),
(417,1758,o),
(88,1449,o),
(88,1022,cs),
(88,596,o),
(412,288,o),
(844,288,cs),
(928,288,ls)
);
},
{
closed = 1;
nodes = (
(422,352,o),
(152,652,o),
(152,1022,cs),
(152,1394,o),
(412,1692,o),
(848,1692,cs),
(928,1692,l),
(1350,1694,o),
(1622,1392,o),
(1620,1022,cs),
(1618,651,o),
(1349,352,o),
(928,352,cs),
(844,352,ls)
);
},
{
closed = 1;
nodes = (
(854,2048,l),
(854,-2,l),
(918,-2,l),
(918,2048,l)
);
}
);
width = 1770;
},
{
background = {
shapes = (
{
closed = 1;
nodes = (
(1628,240,o),
(1968,544,o),
(1968,996,cs),
(1968,1444,o),
(1620,1748,o),
(1164,1748,cs),
(952,1748,ls),
(496,1748,o),
(144,1440,o),
(144,992,cs),
(144,544,o),
(488,240,o),
(956,240,cs),
(1160,240,l)
);
},
{
closed = 1;
nodes = (
(612,468,o),
(384,672,o),
(384,992,cs),
(384,1312,o),
(616,1520,o),
(952,1520,cs),
(1168,1520,ls),
(1500,1520,o),
(1728,1316,o),
(1728,996,cs),
(1728,676,o),
(1508,468,o),
(1160,468,cs),
(956,468,l)
);
},
{
closed = 1;
nodes = (
(940,2004,l),
(940,0,l),
(1180,0,l),
(1180,2004,l)
);
}
);
};
layerId = "C698F293-3EC0-4A5A-A3A0-0FDB1F5CF265";
shapes = (
{
closed = 1;
nodes = (
(1606,270,o),
(1946,574,o),
(1946,1026,cs),
(1946,1474,o),
(1598,1778,o),
(1142,1778,cs),
(930,1778,ls),
(474,1778,o),
(122,1470,o),
(122,1022,cs),
(122,574,o),
(466,270,o),
(934,270,cs),
(1138,270,l)
);
},
{
closed = 1;
nodes = (
(590,498,o),
(362,702,o),
(362,1022,cs),
(362,1342,o),
(594,1550,o),
(930,1550,cs),
(1146,1550,ls),
(1478,1550,o),
(1706,1346,o),
(1706,1026,cs),
(1706,706,o),
(1486,498,o),
(1138,498,cs),
(934,498,l)
);
},
{
closed = 1;
nodes = (
(918,2048,l),
(918,0,l),
(1158,0,l),
(1158,2048,l)
);
}
);
width = 2068;
},
{
layerId = "5C20EF92-B63D-42A8-8878-93C2863E0093";
shapes = (
{
closed = 1;
nodes = (
(2029,236,o),
(2393,532,o),
(2392,1004,cs),
(2391,1508,o),
(2033,1812,o),
(1492,1812,cs),
(1088,1812,ls),
(545,1812,o),
(185,1504,o),
(184,1000,cs),
(183,524,o),
(553,236,o),
(1088,236,cs),
(1496,236,l)
);
},
{
closed = 1;
nodes = (
(885,712,o),
(713,788,o),
(712,1000,cs),
(711,1248,o),
(885,1340,o),
(1088,1340,cs),
(1496,1340,ls),
(1705,1340,o),
(1873,1252,o),
(1872,1004,cs),
(1871,792,o),
(1701,712,o),
(1500,712,cs),
(1088,712,l)
);
},
{
closed = 1;
nodes = (
(1028,2048,l),
(1028,0,l),
(1560,0,l),
(1560,2048,l)
);
}
);
width = 2576;
}
);
unicode = 934;
userData = {
interface.gridadjust.original = "{'width': 2019, 'leftMargin': 103, 'rightMargin': 94}";
"interface.width-adjustments" = (
-16
);
};
}
{
glyphname = Psi;
layers = (
{
layerId = "B1F27B51-9973-4381-9301-4FE46FE1CA59";
shapes = (
{
closed = 1;
nodes = (
(1644,1132,ls),
(1644,770,o),
(1388,516,o),
(1028,516,cs),
(966,516,ls),
(606,516,o),
(352,771,o),
(352,1132,cs),
(352,2048,l),
(288,2048,l),
(288,1132,ls),
(288,736,o),
(571,452,o),
(966,452,cs),
(1028,452,ls),
(1426,452,o),
(1706,736,o),
(1706,1132,cs),
(1708,2048,l),
(1644,2048,l)
);
},
{
closed = 1;
nodes = (
(966,2048,l),
(966,0,l),
(1030,0,l),
(1030,2048,l)
);
}
);
width = 1996;
},
{
layerId = "C698F293-3EC0-4A5A-A3A0-0FDB1F5CF265";
shapes = (
{
closed = 1;
nodes = (
(1674,1276,ls),
(1674,906,o),
(1427,716,o),
(1094,716,cs),
(1054,716,ls),
(720,716,o),
(474,906,o),
(474,1276,cs),
(474,2048,l),
(226,2048,l),
(226,1276,l),
(226,772,o),
(582,496,o),
(1054,496,cs),
(1094,496,ls),
(1566,496,o),
(1922,772,o),
(1922,1276,c),
(1922,2048,l),
(1674,2048,l)
);
},
{
closed = 1;
nodes = (
(950,2048,l),
(950,0,l),
(1198,0,l),
(1198,2048,l)
);
}
);
width = 2148;
},
{
layerId = "5C20EF92-B63D-42A8-8878-93C2863E0093";
shapes = (
{
closed = 1;
nodes = (
(1744,1448,ls),
(1744,1088,o),
(1628,1000,o),
(1388,1000,cs),
(1092,1000,l),
(780,1000,o),
(668,1160,o),
(668,1448,cs),
(668,2048,l),
(132,2048,l),
(132,1448,l),
(132,884,o),
(488,572,o),
(1060,572,cs),
(1364,572,l),
(1932,572,o),
(2288,884,o),
(2288,1448,c),
(2288,2048,l),
(1744,2048,l)
);
},
{
closed = 1;
nodes = (
(960,2048,l),
(960,0,l),
(1500,0,l),
(1500,2048,l)
);
}
);
width = 2420;
}
);
metricLeft = H;
metricRight = H;
unicode = 936;
userData = {
interface.gridadjust.original = "{'width': 1947.0, 'leftMargin': 114, 'rightMargin': 135.0}";
"interface.width-adjustments" = (
-16
);
};
}
{
glyphname = delta;
kernLeft = deltagreek;
kernRight = deltagreek;
layers = (
{
layerId = "B1F27B51-9973-4381-9301-4FE46FE1CA59";
shapes = (
{
closed = 1;
nodes = (
(134,1589,o),
(243,1467,o),
(496,1362,c),
(496,1358,l),
(166,1284,o),
(-26,1032,o),
(-26,676,cs),
(-26,668,ls),
(-26,252,o),
(214,-28,o),
(570,-28,cs),
(928,-28,o),
(1166,250,o),
(1166,668,cs),
(1166,674,ls),
(1166,1001,o),
(997,1220,o),
(628,1372,cs),
(301,1506,o),
(198,1600,o),
(198,1762,cs),
(198,1963,o),
(340,2076,o),
(594,2076,cs),
(728,2076,o),
(851,2048,o),
(966,1990,c),
(966,2058,l),
(866,2110,o),
(730,2140,o),
(596,2140,cs),
(307,2140,o),
(134,2001,o),
(134,1768,cs)
);
},
{
closed = 1;
nodes = (
(38,1033,o),
(241,1264,o),
(602,1318,c),
(952,1166,o),
(1100,975,o),
(1102,674,cs),
(1102,668,ls),
(1102,288,o),
(890,36,o),
(570,36,cs),
(248,36,o),
(38,286,o),
(38,668,cs),
(38,676,ls)
);
}
);
width = 1140;
},
{
layerId = "C698F293-3EC0-4A5A-A3A0-0FDB1F5CF265";
shapes = (
{
closed = 1;
nodes = (
(242,1572,o),
(350,1440,o),
(522,1372,c),
(522,1364,l),
(278,1304,o),
(74,1048,o),
(74,728,cs),
(74,700,ls),
(74,288,o),
(318,-28,o),
(742,-28,cs),
(1158,-28,o),
(1406,288,o),
(1406,700,cs),
(1406,728,ls),
(1406,1096,o),
(1230,1352,o),
(826,1496,cs),
(574,1588,o),
(522,1680,o),
(522,1752,cs),
(522,1846,o),
(610,1914,o),
(770,1914,cs),
(906,1914,o),
(1058,1866,o),
(1138,1834,c),
(1138,2070,l),
(1014,2118,o),
(910,2142,o),
(766,2142,cs),
(438,2142,o),
(242,1986,o),
(242,1750,cs)
);
},
{
closed = 1;
nodes = (
(350,1004,o),
(470,1244,o),
(742,1244,c),
(978,1196,o),
(1130,952,o),
(1130,728,cs),
(1130,700,ls),
(1130,424,o),
(1010,192,o),
(742,192,cs),
(470,192,o),
(350,424,o),
(350,700,cs),
(350,728,l)
);
}
);
width = 1476;
},
{
layerId = "5C20EF92-B63D-42A8-8878-93C2863E0093";
shapes = (
{
closed = 1;
nodes = (
(433,1556,o),
(514,1439,o),
(688,1332,c),
(692,1324,l),
(438,1259,o),
(255,1009,o),
(256,728,cs),
(256,700,ls),
(255,263,o),
(565,-28,o),
(1032,-28,cs),
(1491,-28,o),
(1799,280,o),
(1800,740,cs),
(1800,768,ls),
(1799,1156,o),
(1560,1421,o),
(1068,1580,cs),
(957,1616,o),
(912,1647,o),
(912,1688,cs),
(912,1742,o),
(970,1764,o),
(1112,1764,cs),
(1232,1764,o),
(1348,1745,o),
(1428,1712,c),
(1428,2084,l),
(1293,2123,o),
(1179,2140,o),
(1060,2140,cs),
(677,2140,o),
(431,1968,o),
(432,1700,cs)
);
},
{
closed = 1;
nodes = (
(767,1017,o),
(873,1164,o),
(1032,1164,c),
(1176,1137,o),
(1287,978,o),
(1288,800,cs),
(1288,780,ls),
(1287,535,o),
(1190,384,o),
(1032,384,cs),
(869,384,o),
(767,537,o),
(768,780,cs),
(768,800,l)
);
}
);
width = 2056;
}
);
unicode = 948;
userData = {
interface.gridadjust.original = "{'width': 1602, 'leftMargin': 135, 'rightMargin': 135}";
"interface.width-adjustments" = (
-16
);
};
}
{
glyphname = theta;
layers = (
{
layerId = "B1F27B51-9973-4381-9301-4FE46FE1CA59";
shapes = (
{
closed = 1;
nodes = (
(28,1020,l),
(28,956,l),
(1100,956,l),
(1100,1020,l)
);
},
{
closed = 1;
nodes = (
(1132,1676,o),
(936,1996,o),
(564,1996,cs),
(190,1996,o),
(-4,1676,o),
(-4,1054,cs),
(-4,914,ls),
(-4,292,o),
(194,-28,o),
(564,-28,cs),
(934,-28,o),
(1132,292,o),
(1132,914,cs),
(1132,1054,ls)
);
},
{
closed = 1;
nodes = (
(1068,328,o),
(893,36,o),
(564,36,cs),
(235,36,o),
(60,328,o),
(60,914,cs),
(60,1054,ls),
(60,1640,o),
(231,1932,o),
(564,1932,cs),
(895,1932,o),
(1068,1640,o),
(1068,1054,cs),
(1068,914,ls)
);
}
);
width = 1128;
},
{
layerId = "C698F293-3EC0-4A5A-A3A0-0FDB1F5CF265";
shapes = (
{
closed = 1;
nodes = (
(254,1108,l),
(254,888,l),
(1230,888,l),
(1230,1108,l)
);
},
{
closed = 1;
nodes = (
(1374,1756,o),
(1126,2032,o),
(738,2032,cs),
(354,2032,o),
(102,1756,o),
(102,1132,c),
(102,888,l),
(102,260,o),
(358,-28,o),
(742,-28,cs),
(1126,-28,o),
(1374,260,o),
(1374,888,c),
(1374,1132,l)
);
},
{
closed = 1;
nodes = (
(1134,432,o),
(978,184,o),
(742,184,cs),
(510,184,o),
(338,432,o),
(338,844,cs),
(338,1176,ls),
(338,1588,o),
(506,1820,o),
(738,1820,cs),
(974,1820,o),
(1134,1588,o),
(1134,1176,c),
(1134,844,l)
);
}
);
width = 1476;
},
{
layerId = "5C20EF92-B63D-42A8-8878-93C2863E0093";
shapes = (
{
closed = 1;
nodes = (
(528,1232,l),
(528,844,l),
(1576,844,l),
(1576,1232,l)
);
},
{
closed = 1;
nodes = (
(1774,1812,o),
(1462,2092,o),
(1032,2092,cs),
(594,2092,o),
(286,1808,o),
(288,1240,c),
(288,816,l),
(286,240,o),
(594,-28,o),
(1036,-28,cs),
(1470,-28,o),
(1774,240,o),
(1776,816,c),
(1776,1240,l)
);
},
{
closed = 1;
nodes = (
(1246,448,o),
(1166,404,o),
(1036,404,cs),
(874,404,o),
(818,480,o),
(820,756,cs),
(820,1312,ls),
(818,1572,o),
(874,1664,o),
(1032,1664,cs),
(1166,1664,o),
(1246,1600,o),
(1248,1312,c),
(1248,756,l)
);
}
);
width = 2064;
}
);
unicode = 952;
userData = {
interface.gridadjust.original = "{'width': 1602, 'leftMargin': 164, 'rightMargin': 166}";
"interface.width-adjustments" = (
-16
);
};
}
{
glyphname = phigreek;
kernLeft = c;
kernRight = b;
layers = (
{
layerId = "B1F27B51-9973-4381-9301-4FE46FE1CA59";
shapes = (
{
closed = 1;
nodes = (
(844,-24,l),
(1260,12,o),
(1532,323,o),
(1532,768,cs),
(1532,1206,o),
(1257,1519,o),
(840,1552,c),
(808,1552,l),
(391,1519,o),
(114,1206,o),
(116,768,cs),
(114,324,o),
(391,11,o),
(804,-24,c)
);
},
{
closed = 1;
nodes = (
(858,-576,l),
(858,2080,l),
(794,2080,l),
(794,-576,l)
);
},
{
closed = 1;
nodes = (
(800,40,l),
(375,82,o),
(180,417,o),
(180,768,cs),
(180,1118,o),
(378,1447,o),
(800,1488,c),
(848,1488,l),
(1270,1447,o),
(1468,1116,o),
(1468,768,cs),
(1468,416,o),
(1275,82,o),
(848,40,c)
);
}
);
width = 1646;
},
{
guides = (
{
orientation = center;
angle = 90;
pos = (916,52);
}
);
layerId = "C698F293-3EC0-4A5A-A3A0-0FDB1F5CF265";
shapes = (
{
closed = 1;
nodes = (
(1058,-24,l),
(1517,13,o),
(1802,321,o),
(1802,768,cs),
(1802,1207,o),
(1517,1515,o),
(1058,1552,c),
(866,1552,l),
(407,1515,o),
(122,1207,o),
(122,768,cs),
(122,323,o),
(405,15,o),
(862,-24,c)
);
},
{
closed = 1;
nodes = (
(1078,-576,l),
(1078,2080,l),
(846,2080,l),
(846,-576,l)
);
},
{
closed = 1;
nodes = (
(878,180,l),
(554,213,o),
(358,467,o),
(358,768,cs),
(358,1069,o),
(554,1316,o),
(878,1348,c),
(1046,1348,l),
(1370,1316,o),
(1566,1069,o),
(1566,768,cs),
(1566,467,o),
(1370,213,o),
(1046,180,c)
);
}
);
width = 1924;
},
{
background = {
shapes = (
{
closed = 1;
nodes = (
(1675,-28,o),
(1953,289,o),
(1952,764,cs),
(1953,1239,o),
(1675,1556,o),
(1196,1556,cs),
(719,1556,o),
(441,1239,o),
(440,764,cs),
(441,289,o),
(719,-28,o),
(1196,-28,cs)
);
},
{
closed = 1;
nodes = (
(1060,404,o),
(973,539,o),
(972,768,cs),
(973,997,o),
(1060,1132,o),
(1200,1132,cs),
(1341,1132,o),
(1425,997,o),
(1424,768,cs),
(1425,539,o),
(1341,404,o),
(1200,404,cs)
);
}
);
};
layerId = "5C20EF92-B63D-42A8-8878-93C2863E0093";
shapes = (
{
closed = 1;
nodes = (
(1428,-24,l),
(1966,19,o),
(2261,320,o),
(2260,768,cs),
(2261,1209,o),
(1963,1509,o),
(1428,1552,c),
(972,1552,l),
(439,1509,o),
(141,1209,o),
(140,768,cs),
(141,322,o),
(434,22,o),
(968,-24,c)
);
},
{
closed = 1;
nodes = (
(1452,-576,l),
(1452,2080,l),
(948,2080,l),
(948,-576,l)
);
},
{
closed = 1;
nodes = (
(1012,288,l),
(802,309,o),
(673,491,o),
(672,768,cs),
(673,1040,o),
(802,1219,o),
(1012,1240,c),
(1392,1240,l),
(1602,1219,o),
(1729,1040,o),
(1728,768,cs),
(1729,491,o),
(1602,309,o),
(1392,288,c)
);
}
);
width = 2400;
}
);
unicode = 981;
userData = {
interface.gridadjust.original = "{'width': 2043, 'leftMargin': 136, 'rightMargin': 131}";
"interface.width-adjustments" = (
-16
);
};
}
{
glyphname = pisymbolgreek;
layers = (
{
anchors = (
{
name = bottom;
pos = (936,0);
},
{
name = top;
pos = (936,1792);
}
);
background = {
shapes = (
{
closed = 1;
nodes = (
(132,1488,l),
(132,1424,l),
(1828,1424,l),
(1828,1488,l)
);
},
{
closed = 1;
nodes = (
(1664,1286,o),
(1720,1052,o),
(1724,796,cs),
(1731,330,o),
(1573,36,o),
(1334,36,cs),
(1120,36,o),
(992,263,o),
(992,616,cs),
(992,1024,l),
(928,1024,l),
(928,696,ls),
(928,234,o),
(1068,-28,o),
(1328,-28,cs),
(1614,-28,o),
(1790,288,o),
(1788,772,cs),
(1787,1038,o),
(1732,1285,o),
(1624,1488,c),
(1554,1488,l)
);
},
{
closed = 1;
nodes = (
(190,1289,o),
(132,1040,o),
(132,780,cs),
(132,287,o),
(303,-28,o),
(588,-28,cs),
(849,-28,o),
(992,235,o),
(992,696,cs),
(992,1024,l),
(928,1024,l),
(928,616,ls),
(928,264,o),
(799,36,o),
(586,36,cs),
(347,36,o),
(194,324,o),
(196,780,cs),
(197,1044,o),
(254,1280,o),
(366,1488,c),
(296,1488,l)
);
}
);
};
layerId = "B1F27B51-9973-4381-9301-4FE46FE1CA59";
shapes = (
{
closed = 1;
nodes = (
(92,1536,l),
(92,1472,l),
(1788,1472,l),
(1788,1536,l)
);
},
{
closed = 1;
nodes = (
(98,1332,o),
(32,1080,o),
(32,780,cs),
(32,288,o),
(224,-28,o),
(532,-28,cs),
(812,-28,o),
(972,230,o),
(972,696,cs),
(972,992,l),
(908,992,l),
(908,616,ls),
(908,264,o),
(760,36,o),
(530,36,cs),
(274,36,o),
(96,324,o),
(96,786,cs),
(98,1064,o),
(160,1322,o),
(296,1536,c),
(226,1536,l)
);
},
{
closed = 1;
nodes = (
(1720,1322,o),
(1784,1064,o),
(1784,786,cs),
(1786,324,o),
(1606,36,o),
(1350,36,cs),
(1122,36,o),
(972,264,o),
(972,616,cs),
(972,992,l),
(908,992,l),
(908,696,ls),
(908,230,o),
(1068,-28,o),
(1348,-28,cs),
(1658,-28,o),
(1848,288,o),
(1848,780,cs),
(1848,1080,o),
(1784,1332,o),
(1654,1536,c),
(1584,1536,l)
);
}
);
width = 1880;
},
{
anchors = (
{
name = bottom;
pos = (1118,0);
},
{
name = top;
pos = (1118,1792);
}
);
background = {
shapes = (
{
closed = 1;
nodes = (
(128,1488,l),
(128,1268,l),
(2164,1268,l),
(2164,1488,l)
);
},
{
closed = 1;
nodes = (
(1704,1260,o),
(1784,1024,o),
(1792,780,c),
(1792,456,o),
(1728,192,o),
(1560,192,cs),
(1392,192,o),
(1268,316,o),
(1268,648,c),
(1268,988,l),
(1076,988,l),
(1076,648,l),
(1076,216,o),
(1256,-28,o),
(1576,-28,cs),
(1936,-28,o),
(2068,356,o),
(2068,780,c),
(2068,1080,o),
(1980,1320,o),
(1880,1488,c),
(1592,1488,l)
);
},
{
closed = 1;
nodes = (
(280,1320,o),
(192,1080,o),
(192,780,c),
(192,356,o),
(324,-28,o),
(684,-28,cs),
(1004,-28,o),
(1184,216,o),
(1184,648,c),
(1184,988,l),
(992,988,l),
(992,648,l),
(992,316,o),
(868,192,o),
(700,192,cs),
(532,192,o),
(468,460,o),
(468,780,c),
(476,1024,o),
(556,1260,o),
(668,1488,c),
(380,1488,l)
);
}
);
};
layerId = "C698F293-3EC0-4A5A-A3A0-0FDB1F5CF265";
shapes = (
{
closed = 1;
nodes = (
(102,1536,l),
(102,1316,l),
(2138,1316,l),
(2138,1536,l)
);
},
{
closed = 1;
nodes = (
(196,1306,o),
(126,1058,o),
(126,780,cs),
(126,270,o),
(328,-28,o),
(674,-28,cs),
(992,-28,o),
(1170,214,o),
(1170,648,c),
(1170,1024,l),
(982,1024,l),
(982,648,ls),
(982,352,o),
(868,192,o),
(694,192,cs),
(496,192,o),
(374,400,o),
(374,760,cs),
(374,1006,o),
(414,1206,o),
(608,1536,c),
(340,1536,l)
);
},
{
closed = 1;
nodes = (
(1826,1206,o),
(1866,1006,o),
(1866,760,cs),
(1866,400,o),
(1746,192,o),
(1546,192,cs),
(1372,192,o),
(1258,352,o),
(1258,648,cs),
(1258,1024,l),
(1070,1024,l),
(1070,648,l),
(1070,214,o),
(1248,-28,o),
(1566,-28,cs),
(1912,-28,o),
(2114,270,o),
(2114,780,cs),
(2114,1058,o),
(2044,1306,o),
(1900,1536,c),
(1632,1536,l)
);
}
);
width = 2240;
},
{
anchors = (
{
name = bottom;
pos = (1434,0);
},
{
name = top;
pos = (1432,1792);
}
);
layerId = "5C20EF92-B63D-42A8-8878-93C2863E0093";
shapes = (
{
closed = 1;
nodes = (
(132,1536,l),
(132,1200,l),
(2736,1200,l),
(2736,1536,l)
);
},
{
closed = 1;
nodes = (
(392,1316,o),
(300,1038,o),
(296,750,cs),
(290,216,o),
(552,-28,o),
(948,-28,cs),
(1364,-28,o),
(1548,304,o),
(1548,774,cs),
(1548,944,l),
(1156,944,l),
(1156,704,ls),
(1156,500,o),
(1086,388,o),
(986,388,cs),
(870,388,o),
(812,536,o),
(812,766,cs),
(812,988,o),
(892,1254,o),
(1028,1536,c),
(548,1536,l)
);
},
{
closed = 1;
nodes = (
(1978,1254,o),
(2056,988,o),
(2056,766,cs),
(2056,536,o),
(1998,388,o),
(1882,388,cs),
(1782,388,o),
(1712,500,o),
(1712,704,cs),
(1712,944,l),
(1320,944,l),
(1320,774,ls),
(1320,304,o),
(1506,-28,o),
(1920,-28,cs),
(2316,-28,o),
(2578,216,o),
(2572,750,cs),
(2570,1038,o),
(2476,1316,o),
(2320,1536,c),
(1840,1536,l)
);
}
);
width = 2868;
}
);
unicode = 982;
userData = {
interface.gridadjust.original = "{'width': 2211.0, 'leftMargin': 109, 'rightMargin': 65.0}";
"interface.width-adjustments" = (
-16
);
};
}
{
glyphname = stigma;
layers = (
{
background = {
shapes = (
{
closed = 1;
nodes = (
(1140,-512,o),
(1260,-402,o),
(1260,-232,cs),
(1260,-70,o),
(1145,12,o),
(854,88,cs),
(724,122,ls),
(311,231,o),
(188,388,o),
(192,748,cs),
(192,764,ls),
(192,1192,o),
(398,1452,o),
(734,1452,cs),
(1006,1454,o),
(1194,1280,o),
(1196,1024,c),
(1260,1024,l),
(1260,1318,o),
(1046,1516,o),
(728,1516,cs),
(364,1516,o),
(130,1224,o),
(128,764,cs),
(128,748,ls),
(122,364,o),
(261,179,o),
(710,60,cs),
(816,32,ls),
(1101,-43,o),
(1196,-102,o),
(1196,-238,cs),
(1196,-364,o),
(1106,-448,o),
(956,-448,c),
(956,-512,l)
);
}
);
};
layerId = "B1F27B51-9973-4381-9301-4FE46FE1CA59";
shapes = (
{
closed = 1;
nodes = (
(1108,-512,o),
(1228,-402,o),
(1228,-232,cs),
(1228,-70,o),
(1113,12,o),
(822,88,cs),
(692,122,ls),
(279,231,o),
(160,388,o),
(160,748,cs),
(160,806,ls),
(160,1234,o),
(366,1494,o),
(702,1496,cs),
(974,1498,o),
(1162,1322,o),
(1164,1024,c),
(1228,1024,l),
(1228,1360,o),
(1014,1558,o),
(696,1558,cs),
(332,1558,o),
(96,1266,o),
(96,806,cs),
(96,748,ls),
(96,364,o),
(229,179,o),
(678,60,cs),
(784,32,ls),
(1069,-43,o),
(1164,-102,o),
(1164,-238,cs),
(1164,-364,o),
(1074,-448,o),
(924,-448,c),
(924,-512,l)
);
}
);
width = 1308;
},
{
background = {
shapes = (
{
closed = 1;
nodes = (
(1256,-524,o),
(1396,-376,o),
(1396,-160,cs),
(1396,24,o),
(1296,108,o),
(1124,160,c),
(732,272,l),
(548,328,o),
(400,440,o),
(400,716,cs),
(400,772,ls),
(400,1024,o),
(484,1296,o),
(792,1296,cs),
(992,1296,o),
(1116,1148,o),
(1128,976,c),
(1388,976,l),
(1376,1276,o),
(1148,1516,o),
(792,1516,cs),
(340,1516,o),
(124,1168,o),
(124,772,cs),
(124,716,ls),
(124,276,o),
(356,124,o),
(616,56,c),
(972,-28,l),
(1056,-44,o),
(1124,-88,o),
(1124,-172,cs),
(1124,-252,o),
(1056,-296,o),
(952,-296,c),
(952,-524,l)
);
}
);
};
layerId = "C698F293-3EC0-4A5A-A3A0-0FDB1F5CF265";
shapes = (
{
closed = 1;
nodes = (
(1234,-524,o),
(1374,-376,o),
(1374,-160,cs),
(1374,24,o),
(1274,108,o),
(1102,160,c),
(710,272,l),
(526,328,o),
(378,440,o),
(378,716,cs),
(378,812,ls),
(378,1064,o),
(462,1336,o),
(770,1336,cs),
(970,1336,o),
(1094,1188,o),
(1106,976,c),
(1366,976,l),
(1354,1316,o),
(1126,1556,o),
(770,1556,cs),
(318,1556,o),
(102,1208,o),
(102,812,cs),
(102,716,ls),
(102,276,o),
(334,124,o),
(594,56,c),
(950,-28,l),
(1034,-44,o),
(1102,-88,o),
(1102,-172,cs),
(1102,-252,o),
(1034,-296,o),
(930,-296,c),
(930,-524,l)
);
}
);
width = 1476;
},
{
background = {
shapes = (
{
closed = 1;
nodes = (
(1198,-564,o),
(1570,-508,o),
(1572,-88,cs),
(1570,156,o),
(1442,272,o),
(1284,324,c),
(1032,396,l),
(794,464,o),
(634,548,o),
(636,800,cs),
(636,824,ls),
(634,1004,o),
(666,1104,o),
(840,1104,cs),
(978,1104,o),
(1034,1008,o),
(1036,896,c),
(1520,896,l),
(1522,1304,o),
(1242,1516,o),
(852,1516,cs),
(362,1516,o),
(114,1212,o),
(116,812,cs),
(116,788,ls),
(114,332,o),
(370,188,o),
(676,80,c),
(980,-24,l),
(1038,-40,o),
(1050,-64,o),
(1052,-88,cs),
(1050,-156,o),
(982,-180,o),
(864,-180,c),
(864,-568,l)
);
}
);
};
layerId = "5C20EF92-B63D-42A8-8878-93C2863E0093";
shapes = (
{
closed = 1;
nodes = (
(1198,-564,o),
(1570,-508,o),
(1572,-88,cs),
(1570,156,o),
(1442,272,o),
(1284,324,c),
(1032,396,l),
(794,464,o),
(636,548,o),
(636,800,cs),
(636,864,ls),
(636,1044,o),
(666,1144,o),
(840,1144,cs),
(978,1144,o),
(1034,1048,o),
(1036,896,c),
(1520,896,l),
(1522,1344,o),
(1242,1556,o),
(852,1556,cs),
(362,1556,o),
(116,1252,o),
(116,852,cs),
(116,788,ls),
(116,332,o),
(370,188,o),
(676,80,c),
(980,-24,l),
(1038,-40,o),
(1050,-64,o),
(1052,-88,cs),
(1050,-156,o),
(982,-180,o),
(864,-180,c),
(864,-568,l)
);
}
);
width = 1688;
}
);
unicode = 987;
userData = {
interface.gridadjust.original = "{'width': 1480, 'leftMargin': 127, 'rightMargin': 80}";
"interface.width-adjustments" = (
-16
);
};
}
{
glyphname = digamma;
layers = (
{
layerId = "B1F27B51-9973-4381-9301-4FE46FE1CA59";
shapes = (
{
closed = 1;
nodes = (
(176,1536,l),
(176,-572,l),
(240,-572,l),
(240,1536,l)
);
},
{
closed = 1;
nodes = (
(200,788,l),
(200,724,l),
(1064,724,l),
(1064,788,l)
);
},
{
closed = 1;
nodes = (
(200,1536,l),
(200,1472,l),
(1184,1472,l),
(1184,1536,l)
);
},
{
closed = 1;
nodes = (
(1064,788,l),
(1000,788,l),
(1000,472,l),
(1064,472,l)
);
}
);
width = 1354;
},
{
layerId = "C698F293-3EC0-4A5A-A3A0-0FDB1F5CF265";
shapes = (
{
closed = 1;
nodes = (
(178,1536,l),
(178,-572,l),
(450,-572,l),
(450,1536,l)
);
},
{
closed = 1;
nodes = (
(390,788,l),
(390,572,l),
(1182,572,l),
(1182,788,l)
);
},
{
closed = 1;
nodes = (
(390,1536,l),
(390,1320,l),
(1302,1320,l),
(1302,1536,l)
);
},
{
closed = 1;
nodes = (
(1182,788,l),
(962,788,l),
(962,328,l),
(1182,328,l)
);
}
);
width = 1476;
},
{
layerId = "5C20EF92-B63D-42A8-8878-93C2863E0093";
shapes = (
{
closed = 1;
nodes = (
(188,1536,l),
(188,-572,l),
(708,-572,l),
(708,1536,l)
);
},
{
closed = 1;
nodes = (
(548,836,l),
(548,424,l),
(1384,424,l),
(1384,836,l)
);
},
{
closed = 1;
nodes = (
(548,1536,l),
(548,1124,l),
(1508,1124,l),
(1508,1536,l)
);
},
{
closed = 1;
nodes = (
(1384,836,l),
(968,836,l),
(968,140,l),
(1384,140,l)
);
}
);
width = 1692;
}
);
unicode = 989;
userData = {
interface.gridadjust.original = "{'width': 1452.0, 'leftMargin': 210, 'rightMargin': 117.0}";
"interface.width-adjustments" = (
-16
);
};
}
{
glyphname = sampi;
layers = (
{
layerId = "B1F27B51-9973-4381-9301-4FE46FE1CA59";
shapes = (
{
closed = 1;
nodes = (
(1297,1526,o),
(1668,866,o),
(1668,-572,c),
(1732,-536,l),
(1731,876,o),
(1327,1595,o),
(240,2120,c),
(176,2082,l,{
name = hr00;
})
);
},
{
closed = 1;
nodes = (
(1190,1354,l),
(130,722,l),
(158,664,l),
(1224,1302,l)
);
},
{
closed = 1;
nodes = (
(1538,704,l),
(434,46,l),
(460,-12,l),
(1572,650,l)
);
}
);
width = 1860;
},
{
layerId = "C698F293-3EC0-4A5A-A3A0-0FDB1F5CF265";
shapes = (
{
closed = 1;
nodes = (
(1366,1440,o),
(1622,736,o),
(1622,-600,c),
(1874,-464,l),
(1874,864,o),
(1538,1628,o),
(366,2144,c),
(118,2008,l,{
name = hr00;
})
);
},
{
closed = 1;
nodes = (
(1234,1416,l),
(158,792,l),
(266,600,l),
(1346,1224,l)
);
},
{
closed = 1;
nodes = (
(1538,788,l),
(462,164,l),
(570,-28,l),
(1650,596,l)
);
}
);
width = 1988;
},
{
layerId = "5C20EF92-B63D-42A8-8878-93C2863E0093";
shapes = (
{
closed = 1;
nodes = (
(1265,1472,o),
(1637,864,o),
(1636,-600,c),
(2116,-348,l),
(2117,956,o),
(1809,1724,o),
(584,2188,c),
(100,1928,l,{
name = hr00;
})
);
},
{
closed = 1;
nodes = (
(1332,1488,l),
(228,880,l),
(440,520,l),
(1540,1136,l)
);
},
{
closed = 1;
nodes = (
(1636,940,l),
(532,332,l),
(744,-28,l),
(1844,584,l)
);
}
);
width = 2212;
}
);
unicode = 993;
userData = {
interface.gridadjust.original = "{'width': 1921, 'leftMargin': 62, 'rightMargin': 103}";
"interface.width-adjustments" = (
-16
);
};
}
{
glyphname = afii10018;
kernLeft = B;
kernRight = B;
layers = (
{
layerId = "B1F27B51-9973-4381-9301-4FE46FE1CA59";
shapes = (
{
closed = 1;
nodes = (
(1056,0,ls),
(1409,0,o),
(1628,214,o),
(1628,556,cs),
(1628,866,o),
(1403,1068,o),
(1056,1068,cs),
(352,1068,l),
(352,1984,l),
(1400,1984,l),
(1400,2048,l),
(288,2048,l),
(288,0,l)
);
},
{
closed = 1;
nodes = (
(352,1004,l),
(1056,1004,ls),
(1364,1004,o),
(1564,828,o),
(1564,560,cs),
(1564,248,o),
(1376,64,o),
(1056,64,cs),
(352,64,l)
);
}
);
width = 1812;
},
{
layerId = "C698F293-3EC0-4A5A-A3A0-0FDB1F5CF265";
shapes = (
{
closed = 1;
nodes = (
(994,0,ls),
(1434,0,o),
(1674,248,o),
(1674,604,cs),
(1674,960,o),
(1434,1188,o),
(994,1188,cs),
(474,1188,l),
(474,1828,l),
(1462,1828,l),
(1462,2048,l),
(226,2048,l),
(226,0,l)
);
},
{
closed = 1;
nodes = (
(474,968,l),
(994,968,ls),
(1274,968,o),
(1430,804,o),
(1430,608,cs),
(1430,408,o),
(1274,216,o),
(994,216,cs),
(474,216,l)
);
}
);
width = 1812;
},
{
layerId = "5C20EF92-B63D-42A8-8878-93C2863E0093";
shapes = (
{
closed = 1;
nodes = (
(896,0,ls),
(1412,0,o),
(1756,280,o),
(1756,688,cs),
(1756,1096,o),
(1412,1360,o),
(896,1360,cs),
(688,1360,l),
(688,1600,l),
(1572,1600,l),
(1572,2048,l),
(132,2048,l),
(132,0,l)
);
},
{
closed = 1;
nodes = (
(688,936,l),
(896,936,ls),
(1096,936,o),
(1204,832,o),
(1204,692,cs),
(1204,544,o),
(1096,436,o),
(896,436,cs),
(688,436,l)
);
}
);
width = 1820;
}
);
metricLeft = H;
metricRight = B;
note = "\012Originally composed of afii10046 and Gamma\012";
unicode = 1041;
userData = {
interface.gridadjust.original = "{'width': 1777, 'leftMargin': 172, 'rightMargin': 157}";
"interface.width-adjustments" = (
-16
);
};
}
{
glyphname = afii10021;
kernRight = Decyrillic;
layers = (
{
layerId = "B1F27B51-9973-4381-9301-4FE46FE1CA59";
shapes = (
{
closed = 1;
nodes = (
(124,-500,l),
(124,0,l),
(1764,0,l),
(1764,-492,l),
(1828,-492,l),
(1828,64,l),
(1580,64,l),
(1580,2048,l),
(498,2048,l),
(464,1108,ls),
(444,551,o),
(341,261,o),
(186,64,c),
(60,64,l),
(60,-500,l)
);
},
{
closed = 1;
nodes = (
(432,309,o),
(510,598,o),
(528,1108,cs),
(560,1984,l),
(1516,1984,l),
(1516,64,l),
(266,64,l)
);
}
);
width = 1972;
},
{
layerId = "C698F293-3EC0-4A5A-A3A0-0FDB1F5CF265";
shapes = (
{
closed = 1;
nodes = (
(286,-496,l),
(286,0,l),
(1730,0,l),
(1730,-492,l),
(1966,-492,l),
(1966,220,l),
(1730,220,l),
(1730,2048,l),
(514,2048,l),
(470,1184,ls),
(442,596,o),
(318,344,o),
(182,220,c),
(50,220,l),
(50,-496,l)
);
},
{
closed = 1;
nodes = (
(602,416,o),
(682,736,o),
(706,1184,cs),
(738,1828,l),
(1494,1828,l),
(1494,220,l),
(478,220,l)
);
}
);
width = 2064;
},
{
layerId = "5C20EF92-B63D-42A8-8878-93C2863E0093";
shapes = (
{
closed = 1;
nodes = (
(600,-492,l),
(600,0,l),
(1696,0,l),
(1696,-492,l),
(2232,-492,l),
(2232,428,l),
(2016,428,l),
(2016,2048,l),
(568,2048,l),
(500,1180,ls),
(460,680,o),
(352,516,o),
(208,428,c),
(64,428,l),
(64,-492,l)
);
},
{
closed = 1;
nodes = (
(932,580,o),
(1008,804,o),
(1036,1180,cs),
(1068,1600,l),
(1480,1600,l),
(1480,428,l),
(844,428,l)
);
}
);
width = 2296;
}
);
metricLeft = A;
metricRight = t;
unicode = 1044;
userData = {
interface.gridadjust.original = "{'width': 2135, 'leftMargin': 63, 'rightMargin': 78}";
"interface.width-adjustments" = (
-16
);
};
}
{
glyphname = afii10026;
kernLeft = B;
kernRight = H;
layers = (
{
anchors = (
{
name = right;
pos = (1824,0);
},
{
name = top;
pos = (1056,2304);
}
);
layerId = "B1F27B51-9973-4381-9301-4FE46FE1CA59";
shapes = (
{
closed = 1;
nodes = (
(288,0,l),
(352,0,l),
(1752,1928,l),
(1760,1928,l),
(1760,0,l),
(1824,0,l),
(1824,2048,l),
(1760,2048,l),
(360,120,l),
(352,120,l),
(352,2048,l),
(288,2048,l)
);
}
);
width = 2112;
},
{
anchors = (
{
name = right;
pos = (1850,0);
},
{
name = top;
pos = (1038,2304);
}
);
layerId = "C698F293-3EC0-4A5A-A3A0-0FDB1F5CF265";
shapes = (
{
closed = 1;
nodes = (
(226,0,l),
(466,0,l),
(1582,1608,l),
(1602,1608,l),
(1602,0,l),
(1850,0,l),
(1850,2048,l),
(1610,2048,l),
(490,436,l),
(470,436,l),
(470,2048,l),
(226,2048,l)
);
}
);
width = 2076;
},
{
anchors = (
{
name = right;
pos = (1904,0);
},
{
name = top;
pos = (1020,2304);
}
);
layerId = "5C20EF92-B63D-42A8-8878-93C2863E0093";
shapes = (
{
closed = 1;
nodes = (
(132,0,l),
(596,0,l),
(1336,1076,l),
(1348,1076,l),
(1348,0,l),
(1904,0,l),
(1904,2048,l),
(1432,2048,l),
(704,976,l),
(688,976,l),
(688,2048,l),
(132,2048,l)
);
}
);
width = 2036;
}
);
metricLeft = N;
metricRight = N;
unicode = 1048;
userData = {
interface.gridadjust.original = "{'width': 2010, 'leftMargin': 241, 'rightMargin': 246}";
"interface.width-adjustments" = (
-16
);
};
}
{
glyphname = Kacyr;
kernLeft = B;
kernRight = K;
layers = (
{
anchors = (
{
name = cyrtic;
pos = (1468,88);
}
);
layerId = "B1F27B51-9973-4381-9301-4FE46FE1CA59";
shapes = (
{
closed = 1;
nodes = (
(1520,0,l),
(770,1050,l),
(1392,2048,l),
(1316,2048,l),
(714,1080,l),
(352,1080,l),
(352,2048,l),
(288,2048,l),
(288,0,l),
(352,0,l),
(352,1018,l),
(714,1018,l),
(1442,0,l)
);
}
);
width = 1584;
},
{
anchors = (
{
name = cyrtic;
pos = (1666,88);
}
);
layerId = "C698F293-3EC0-4A5A-A3A0-0FDB1F5CF265";
shapes = (
{
closed = 1;
nodes = (
(1726,0,l),
(870,1050,l),
(1698,2048,l),
(1402,2048,l),
(664,1160,l),
(474,1160,l),
(474,2048,l),
(226,2048,l),
(226,0,l),
(474,0,l),
(474,940,l),
(664,940,l),
(1430,0,l)
);
}
);
width = 1776;
},
{
anchors = (
{
name = cyrtic;
pos = (1852,248);
}
);
layerId = "5C20EF92-B63D-42A8-8878-93C2863E0093";
shapes = (
{
closed = 1;
nodes = (
(2092,0,l),
(1268,1064,l),
(2048,2048,l),
(1348,2048,l),
(760,1276,l),
(688,1276,l),
(688,2048,l),
(132,2048,l),
(132,0,l),
(688,0,l),
(688,828,l),
(766,828,l),
(1394,0,l)
);
}
);
width = 2108;
},
{
anchors = (
{
name = cyrtic;
pos = (1666,88);
}
);
associatedMasterId = "C698F293-3EC0-4A5A-A3A0-0FDB1F5CF265";
layerId = "70688F57-CA04-4DF6-8990-F8A9869891DC";
name = "Mar 6, 22 0:29";
shapes = (
{
closed = 1;
nodes = (
(1726,0,l),
(870,1148,l),
(1698,2048,l),
(1402,2048,l),
(582,1160,l),
(474,1160,l),
(474,2048,l),
(226,2048,l),
(226,0,l),
(474,0,l),
(474,940,l),
(726,940,l),
(1430,0,l)
);
}
);
width = 1776;
},
{
anchors = (
{
name = cyrtic;
pos = (1468,88);
}
);
associatedMasterId = "B1F27B51-9973-4381-9301-4FE46FE1CA59";
layerId = "69A91AEA-9ECD-4EE2-BD0B-A0E8E9259490";
name = "Mar 6, 22 0:29";
shapes = (
{
closed = 1;
nodes = (
(1520,0,l),
(770,1080,l),
(1392,2048,l),
(1316,2048,l),
(692,1080,l),
(352,1080,l),
(352,2048,l),
(288,2048,l),
(288,0,l),
(352,0,l),
(352,1018,l),
(734,1018,l),
(1442,0,l)
);
}
);
width = 1584;
}
);
metricLeft = K;
metricRight = K;
unicode = 1050;
}
{
glyphname = afii10040;
kernLeft = B;
kernRight = Decyrillic;
layers = (
{
layerId = "B1F27B51-9973-4381-9301-4FE46FE1CA59";
shapes = (
{
closed = 1;
nodes = (
(1520,64,l),
(1520,0,l),
(1696,0,l),
(1696,-484,l),
(1736,-484,l),
(1762,64,l)
);
},
{
closed = 1;
nodes = (
(1652,0,l),
(1652,2048,l),
(1588,2048,l),
(1588,64,l),
(352,64,l),
(352,2048,l),
(288,2048,l),
(288,0,l)
);
}
);
width = 1906;
},
{
layerId = "C698F293-3EC0-4A5A-A3A0-0FDB1F5CF265";
shapes = (
{
closed = 1;
nodes = (
(1538,236,l),
(1538,0,l),
(1682,0,l),
(1682,-484,l),
(1938,-484,l),
(1966,236,l)
);
},
{
closed = 1;
nodes = (
(1754,0,l),
(1754,2048,l),
(1518,2048,l),
(1518,228,l),
(462,228,l),
(462,2048,l),
(226,2048,l),
(226,0,l)
);
}
);
width = 2064;
},
{
layerId = "5C20EF92-B63D-42A8-8878-93C2863E0093";
shapes = (
{
closed = 1;
nodes = (
(1576,420,l),
(1576,0,l),
(1720,0,l),
(1720,-484,l),
(2236,-484,l),
(2260,420,l)
);
},
{
closed = 1;
nodes = (
(1928,0,l),
(1928,2048,l),
(1384,2048,l),
(1384,428,l),
(668,428,l),
(668,2048,l),
(132,2048,l),
(132,0,l)
);
}
);
width = 2324;
}
);
metricLeft = H;
metricRight = t;
unicode = 1062;
userData = {
interface.gridadjust.original = "{'width': 2071, 'leftMargin': 239, 'rightMargin': 91}";
"interface.width-adjustments" = (
-16
);
};
}
{
glyphname = efcyrillic;
kernLeft = c;
kernRight = b;
layers = (
{
guides = (
{
pos = (360,1352);
}
);
layerId = "B1F27B51-9973-4381-9301-4FE46FE1CA59";
shapes = (
{
closed = 1;
nodes = (
(1004,-524,l),
(1004,2048,l),
(940,2048,l),
(940,-524,l)
);
},
{
closed = 1;
nodes = (
(956,-32,l),
(956,1556,l),
(940,1556,l),
(503,1556,o),
(148,1200,o),
(148,760,cs),
(148,324,o),
(503,-32,o),
(940,-32,c)
);
},
{
closed = 1;
nodes = (
(539,30,o),
(212,358,o),
(212,760,cs),
(212,1164,o),
(538,1492,o),
(940,1492,c),
(948,1492,l),
(948,32,l),
(940,32,l)
);
},
{
closed = 1;
nodes = (
(1441,-32,o),
(1796,324,o),
(1796,760,cs),
(1796,1200,o),
(1441,1556,o),
(1004,1556,c),
(988,1556,l),
(988,-32,l),
(1004,-32,l)
);
},
{
closed = 1;
nodes = (
(996,32,l),
(996,1492,l),
(1004,1492,l),
(1406,1492,o),
(1732,1164,o),
(1732,760,cs),
(1732,359,o),
(1405,32,o),
(1004,32,c)
);
}
);
width = 1944;
},
{
associatedMasterId = "B1F27B51-9973-4381-9301-4FE46FE1CA59";
guides = (
{
pos = (484,768);
}
);
layerId = "E2371444-2723-489F-9EE6-147827953788";
name = "Dec 31 18, 20:11";
shapes = (
{
closed = 1;
nodes = (
(1024,-544,l),
(1024,2048,l),
(960,2048,l),
(960,-544,l)
);
},
{
closed = 1;
nodes = (
(1397,-32,o),
(1752,324,o),
(1752,760,cs),
(1752,1200,o),
(1397,1556,o),
(960,1556,cs),
(523,1556,o),
(168,1200,o),
(168,760,cs),
(168,324,o),
(523,-32,o),
(960,-32,cs)
);
}
);
width = 1984;
},
{
associatedMasterId = "C698F293-3EC0-4A5A-A3A0-0FDB1F5CF265";
layerId = "A13E543F-EFE8-4388-B950-5F3F681D1595";
name = "Dec 31 18, 20:06";
shapes = (
{
closed = 1;
nodes = (
(1156,-544,l),
(1156,2048,l),
(920,2048,l),
(920,-544,l)
);
},
{
closed = 1;
nodes = (
(1336,-32,o),
(1616,284,o),
(1616,760,cs),
(1616,1240,o),
(1336,1556,o),
(920,1556,cs),
(504,1556,o),
(224,1240,o),
(224,760,cs),
(224,284,o),
(504,-32,o),
(920,-32,cs)
);
},
{
closed = 1;
nodes = (
(604,180,o),
(460,452,o),
(460,760,cs),
(460,1068,o),
(604,1344,o),
(920,1344,cs),
(1236,1344,o),
(1380,1068,o),
(1380,760,cs),
(1380,452,o),
(1236,180,o),
(920,180,cs)
);
}
);
width = 2076;
},
{
layerId = "C698F293-3EC0-4A5A-A3A0-0FDB1F5CF265";
shapes = (
{
closed = 1;
nodes = (
(1054,-524,l),
(1054,2048,l),
(818,2048,l),
(818,-524,l)
);
},
{
closed = 1;
nodes = (
(890,-32,l),
(890,1556,l),
(818,1556,l),
(402,1556,o),
(122,1240,o),
(122,760,cs),
(122,284,o),
(402,-32,o),
(818,-32,c)
);
},
{
closed = 1;
nodes = (
(502,180,o),
(358,452,o),
(358,760,cs),
(358,1068,o),
(502,1344,o),
(818,1344,c),
(858,1344,l),
(858,180,l),
(818,180,l)
);
},
{
closed = 1;
nodes = (
(1470,-32,o),
(1750,284,o),
(1750,760,cs),
(1750,1240,o),
(1470,1556,o),
(1054,1556,c),
(982,1556,l),
(982,-32,l),
(1054,-32,l)
);
},
{
closed = 1;
nodes = (
(1014,180,l),
(1014,1344,l),
(1054,1344,l),
(1370,1344,o),
(1514,1068,o),
(1514,760,cs),
(1514,452,o),
(1370,180,o),
(1054,180,c)
);
}
);
width = 1872;
},
{
guides = (
{
pos = (-88,768);
}
);
layerId = "5C20EF92-B63D-42A8-8878-93C2863E0093";
shapes = (
{
closed = 1;
nodes = (
(1500,-520,l),
(1500,2048,l),
(948,2048,l),
(948,-520,l)
);
},
{
closed = 1;
nodes = (
(1032,-28,l),
(1032,1556,l),
(948,1556,l),
(442,1556,o),
(84,1228,o),
(84,764,cs),
(84,300,o),
(442,-28,o),
(948,-28,c)
);
},
{
closed = 1;
nodes = (
(781,384,o),
(656,541,o),
(656,764,cs),
(656,987,o),
(777,1144,o),
(948,1144,c),
(1000,1144,l),
(1000,384,l),
(948,384,l)
);
},
{
closed = 1;
nodes = (
(2006,-28,o),
(2364,300,o),
(2364,764,cs),
(2364,1228,o),
(2006,1556,o),
(1500,1556,c),
(1416,1556,l),
(1416,-28,l),
(1500,-28,l)
);
},
{
closed = 1;
nodes = (
(1448,384,l),
(1448,1144,l),
(1500,1144,l),
(1671,1144,o),
(1792,987,o),
(1792,764,cs),
(1792,541,o),
(1671,384,o),
(1500,384,c)
);
}
);
width = 2448;
},
{
associatedMasterId = "5C20EF92-B63D-42A8-8878-93C2863E0093";
guides = (
{
pos = (52,768);
}
);
layerId = "E38AA0FA-5654-44A2-B438-D87C6CA3ECC6";
name = "Dec 31 18, 19:59";
shapes = (
{
closed = 1;
nodes = (
(1492,-572,l),
(1492,2112,l),
(940,2112,l),
(940,-572,l)
);
},
{
closed = 1;
nodes = (
(1446,-28,o),
(1804,300,o),
(1804,764,cs),
(1804,1228,o),
(1446,1556,o),
(940,1556,cs),
(434,1556,o),
(76,1228,o),
(76,764,cs),
(76,300,o),
(434,-28,o),
(940,-28,cs)
);
},
{
closed = 1;
nodes = (
(1111,384,o),
(1232,541,o),
(1232,764,cs),
(1232,987,o),
(1111,1144,o),
(940,1144,cs),
(769,1144,o),
(648,987,o),
(648,764,cs),
(648,541,o),
(769,384,o),
(940,384,cs)
);
}
);
width = 2600;
}
);
metricLeft = o;
metricRight = o;
unicode = 1092;
userData = {
interface.gridadjust.original = "{'width': 2043, 'leftMargin': 135, 'rightMargin': 134}";
"interface.width-adjustments" = (
-16
);
};
}
{
glyphname = shchacyrillic;
kernLeft = m;
kernRight = t;
layers = (
{
layerId = "B1F27B51-9973-4381-9301-4FE46FE1CA59";
shapes = (
{
closed = 1;
nodes = (
(1764,64,l),
(1764,0,l),
(1940,0,l),
(1940,-444,l),
(1980,-444,l),
(2006,64,l)
);
},
{
alignment = -1;
ref = shacyrillic;
}
);
width = 2150;
},
{
layerId = "C698F293-3EC0-4A5A-A3A0-0FDB1F5CF265";
shapes = (
{
closed = 1;
nodes = (
(1818,220,l),
(1818,0,l),
(2018,0,l),
(2018,-440,l),
(2262,-440,l),
(2290,220,l)
);
},
{
ref = shacyrillic;
}
);
width = 2388;
},
{
layerId = "5C20EF92-B63D-42A8-8878-93C2863E0093";
shapes = (
{
closed = 1;
nodes = (
(2092,412,l),
(2092,0,l),
(2244,0,l),
(2244,-440,l),
(2732,-440,l),
(2764,412,l)
);
},
{
ref = shacyrillic;
}
);
width = 2828;
}
);
metricLeft = shacyrillic;
metricRight = t;
unicode = 1097;
userData = {
interface.gridadjust.original = "{'width': 2346, 'leftMargin': 196, 'rightMargin': 72}";
"interface.width-adjustments" = (
-16
);
};
}
{
glyphname = iucyrillic;
kernLeft = m;
kernRight = b;
layers = (
{
layerId = "B1F27B51-9973-4381-9301-4FE46FE1CA59";
shapes = (
{
closed = 1;
nodes = (
(124,780,l),
(124,716,l),
(752,716,l),
(752,780,l)
);
},
{
closed = 1;
nodes = (
(88,1536,l),
(88,0,l),
(152,0,l),
(152,1536,l)
);
},
{
closed = 1;
nodes = (
(1716,-32,o),
(1990,311,o),
(1990,764,cs),
(1990,1216,o),
(1715,1560,o),
(1354,1560,cs),
(992,1560,o),
(718,1217,o),
(718,764,cs),
(718,311,o),
(992,-32,o),
(1354,-32,cs)
);
},
{
closed = 1;
nodes = (
(1028,32,o),
(782,347,o),
(782,764,cs),
(782,1179,o),
(1030,1496,o),
(1354,1496,cs),
(1679,1496,o),
(1926,1180,o),
(1926,764,cs),
(1926,347,o),
(1680,32,o),
(1354,32,cs)
);
}
);
width = 2174;
},
{
layerId = "C698F293-3EC0-4A5A-A3A0-0FDB1F5CF265";
shapes = (
{
closed = 1;
nodes = (
(118,864,l),
(118,644,l),
(930,644,l),
(930,864,l)
);
},
{
closed = 1;
nodes = (
(82,1536,l),
(82,0,l),
(318,0,l),
(318,1536,l)
);
},
{
closed = 1;
nodes = (
(1818,-32,o),
(2098,284,o),
(2098,760,cs),
(2098,1240,o),
(1818,1556,o),
(1402,1556,cs),
(986,1556,o),
(706,1240,o),
(706,760,cs),
(706,284,o),
(986,-32,o),
(1402,-32,cs)
);
},
{
closed = 1;
nodes = (
(1086,180,o),
(942,452,o),
(942,760,cs),
(942,1068,o),
(1086,1344,o),
(1402,1344,cs),
(1718,1344,o),
(1862,1068,o),
(1862,760,cs),
(1862,452,o),
(1718,180,o),
(1402,180,cs)
);
}
);
width = 2244;
},
{
layerId = "5C20EF92-B63D-42A8-8878-93C2863E0093";
shapes = (
{
closed = 1;
nodes = (
(216,972,l),
(216,556,l),
(1064,556,l),
(1064,972,l)
);
},
{
closed = 1;
nodes = (
(80,1536,l),
(80,0,l),
(632,0,l),
(632,1536,l)
);
},
{
closed = 1;
nodes = (
(1999,-28,o),
(2283,312,o),
(2284,772,cs),
(2283,1228,o),
(1999,1556,o),
(1516,1556,cs),
(1031,1556,o),
(747,1228,o),
(748,772,cs),
(747,312,o),
(1031,-28,o),
(1516,-28,cs)
);
},
{
closed = 1;
nodes = (
(1331,404,o),
(1263,536,o),
(1264,772,cs),
(1263,1008,o),
(1331,1132,o),
(1516,1132,cs),
(1699,1132,o),
(1763,1004,o),
(1764,772,cs),
(1763,540,o),
(1699,404,o),
(1516,404,cs)
);
}
);
width = 2372;
}
);
unicode = 1102;
userData = {
interface.gridadjust.original = "{'width': 2300, 'leftMargin': 249, 'rightMargin': 45}";
"interface.width-adjustments" = (
-16
);
};
}
{
glyphname = Yuslittlecyrillic;
kernRight = A;
layers = (
{
background = {
shapes = (
{
closed = 1;
nodes = (
(758,2004,l),
(728,2004,l),
(12,0,l),
(80,0,l),
(758,1902,l)
);
},
{
closed = 1;
nodes = (
(1456,0,l),
(764,2004,l),
(732,2004,l),
(732,1902,l),
(1388,0,l)
);
},
{
closed = 1;
nodes = (
(320,740,l),
(300,676,l),
(1176,676,l),
(1176,740,l)
);
},
{
closed = 1;
nodes = (
(696,740,l),
(696,0,l),
(760,0,l),
(760,740,l)
);
}
);
};
layerId = "B1F27B51-9973-4381-9301-4FE46FE1CA59";
shapes = (
{
closed = 1;
nodes = (
(726,2048,l),
(696,2048,l),
(-20,0,l),
(48,0,l),
(726,1946,l)
);
},
{
closed = 1;
nodes = (
(1424,0,l),
(732,2048,l),
(700,2048,l),
(700,1946,l),
(1356,0,l)
);
},
{
closed = 1;
nodes = (
(288,740,l),
(268,676,l),
(1144,676,l),
(1144,740,l)
);
},
{
closed = 1;
nodes = (
(664,740,l),
(664,0,l),
(728,0,l),
(728,740,l)
);
}
);
width = 1396;
},
{
background = {
shapes = (
{
closed = 1;
nodes = (
(948,2004,l),
(772,2004,l),
(52,0,l),
(344,0,l),
(960,1788,l)
);
},
{
closed = 1;
nodes = (
(1728,0,l),
(1020,2004,l),
(844,2004,l),
(828,1800,l),
(1436,0,l)
);
},
{
closed = 1;
nodes = (
(400,832,l),
(400,596,l),
(1372,596,l),
(1372,832,l)
);
},
{
closed = 1;
nodes = (
(744,760,l),
(744,0,l),
(1020,0,l),
(1020,760,l)
);
}
);
};
layerId = "C698F293-3EC0-4A5A-A3A0-0FDB1F5CF265";
shapes = (
{
closed = 1;
nodes = (
(926,2048,l),
(750,2048,l),
(30,0,l),
(322,0,l),
(938,1832,l)
);
},
{
closed = 1;
nodes = (
(1706,0,l),
(998,2048,l),
(822,2048,l),
(806,1844,l),
(1414,0,l)
);
},
{
closed = 1;
nodes = (
(378,832,l),
(378,596,l),
(1350,596,l),
(1350,832,l)
);
},
{
closed = 1;
nodes = (
(722,760,l),
(722,0,l),
(998,0,l),
(998,760,l)
);
}
);
width = 1732;
},
{
background = {
shapes = (
{
closed = 1;
nodes = (
(1132,2004,l),
(848,2004,l),
(120,0,l),
(692,0,l),
(1308,1868,l)
);
},
{
closed = 1;
nodes = (
(2180,0,l),
(1448,2004,l),
(1164,2004,l),
(980,1880,l),
(1612,0,l)
);
},
{
closed = 1;
nodes = (
(500,892,l),
(500,556,l),
(1700,556,l),
(1700,892,l)
);
},
{
closed = 1;
nodes = (
(932,700,l),
(932,0,l),
(1348,0,l),
(1348,700,l)
);
}
);
};
layerId = "5C20EF92-B63D-42A8-8878-93C2863E0093";
shapes = (
{
closed = 1;
nodes = (
(1172,2048,l),
(848,2048,l),
(120,0,l),
(692,0,l),
(1308,1912,l)
);
},
{
closed = 1;
nodes = (
(2180,0,l),
(1448,2048,l),
(1124,2048,l),
(980,1924,l),
(1612,0,l)
);
},
{
closed = 1;
nodes = (
(500,892,l),
(500,556,l),
(1700,556,l),
(1700,892,l)
);
},
{
closed = 1;
nodes = (
(932,700,l),
(932,0,l),
(1348,0,l),
(1348,700,l)
);
}
);
width = 2304;
}
);
unicode = 1126;
userData = {
interface.gridadjust.original = "{'width': 1700, 'leftMargin': 56, 'rightMargin': -33}";
"interface.width-adjustments" = (
-16
);
};
}
{
glyphname = Ksicyrillic;
kernLeft = B;
kernRight = B;
layers = (
{
background = {
shapes = (
{
closed = 1;
nodes = (
(188,1940,l),
(656,1940,ls),
(977,1940,o),
(1164,1786,o),
(1164,1522,cs),
(1164,1238,o),
(945,1064,o),
(548,1064,cs),
(408,1064,l),
(408,1000,l),
(552,1000,ls),
(981,1000,o),
(1228,1204,o),
(1228,1524,cs),
(1228,1821,o),
(1010,2004,o),
(656,2004,cs),
(188,2004,l)
);
},
{
closed = 1;
nodes = (
(408,1000,l),
(560,1000,ls),
(962,1000,o),
(1162,819,o),
(1160,532,cs),
(1158,246,o),
(961,36,o),
(618,36,cs),
(610,36,ls),
(351,36,o),
(204,-65,o),
(204,-250,cs),
(204,-419,o),
(329,-544,o),
(482,-616,c),
(514,-566,l),
(377,-493,o),
(267,-395,o),
(268,-252,cs),
(269,-104,o),
(381,-28,o),
(610,-28,cs),
(618,-28,ls),
(1002,-28,o),
(1226,217,o),
(1224,536,cs),
(1222,856,o),
(994,1064,o),
(564,1064,cs),
(408,1064,l)
);
},
{
closed = 1;
nodes = (
(440,2588,l),
(440,2572,l),
(732,2208,l),
(740,2208,l),
(1044,2572,l),
(1044,2588,l),
(1002,2588,l),
(736,2306,l),
(482,2588,l)
);
}
);
};
guides = (
{
pos = (784,2844);
}
);
layerId = "B1F27B51-9973-4381-9301-4FE46FE1CA59";
shapes = (
{
closed = 1;
nodes = (
(156,1984,l),
(624,1984,ls),
(945,1984,o),
(1132,1838,o),
(1132,1564,cs),
(1132,1270,o),
(913,1088,o),
(516,1088,cs),
(376,1088,l),
(376,1024,l),
(520,1024,ls),
(949,1024,o),
(1196,1236,o),
(1196,1566,cs),
(1196,1873,o),
(978,2048,o),
(624,2048,cs),
(156,2048,l)
);
},
{
closed = 1;
nodes = (
(376,1024,l),
(528,1024,ls),
(930,1024,o),
(1130,853,o),
(1128,556,cs),
(1126,260,o),
(929,36,o),
(586,36,cs),
(578,36,ls),
(319,36,o),
(172,-65,o),
(172,-250,cs),
(172,-419,o),
(297,-544,o),
(450,-616,c),
(482,-566,l),
(345,-493,o),
(235,-395,o),
(236,-252,cs),
(237,-104,o),
(349,-28,o),
(578,-28,cs),
(586,-28,ls),
(970,-28,o),
(1194,229,o),
(1192,558,cs),
(1190,888,o),
(962,1088,o),
(532,1088,cs),
(376,1088,l)
);
},
{
closed = 1;
nodes = (
(408,2640,l),
(408,2624,l),
(700,2260,l),
(708,2260,l),
(1012,2624,l),
(1012,2640,l),
(970,2640,l),
(704,2358,l),
(450,2640,l)
);
}
);
width = 1366;
},
{
background = {
shapes = (
{
closed = 1;
nodes = (
(248,1784,l),
(664,1784,ls),
(924,1784,o),
(1044,1640,o),
(1044,1464,cs),
(1044,1272,o),
(928,1140,o),
(636,1140,cs),
(440,1140,l),
(440,972,l),
(640,972,ls),
(1048,972,o),
(1320,1184,o),
(1320,1460,cs),
(1320,1796,o),
(1044,2004,o),
(664,2004,cs),
(248,2004,l)
);
},
{
closed = 1;
nodes = (
(440,920,l),
(636,920,ls),
(920,920,o),
(1076,800,o),
(1076,556,cs),
(1076,348,o),
(936,192,o),
(696,192,cs),
(640,192,ls),
(356,192,o),
(172,84,o),
(172,-168,c),
(172,-392,o),
(364,-540,o),
(540,-616,c),
(652,-436,l),
(572,-400,o),
(432,-328,o),
(432,-180,cs),
(432,-92,o),
(488,-28,o),
(628,-28,cs),
(696,-28,ls),
(1076,-28,o),
(1352,188,o),
(1352,560,cs),
(1352,896,o),
(1088,1080,o),
(640,1080,cs),
(440,1080,l)
);
},
{
closed = 1;
nodes = (
(392,2588,l),
(392,2572,l),
(756,2196,l),
(892,2196,l),
(1260,2572,l),
(1260,2588,l),
(1068,2588,l),
(824,2348,l),
(584,2588,l)
);
}
);
};
guides = (
{
pos = (1216,2232);
}
);
layerId = "C698F293-3EC0-4A5A-A3A0-0FDB1F5CF265";
shapes = (
{
closed = 1;
nodes = (
(226,1828,l),
(642,1828,ls),
(902,1828,o),
(1022,1700,o),
(1022,1500,cs),
(1022,1308,o),
(906,1160,o),
(614,1160,cs),
(418,1160,l),
(418,992,l),
(618,992,ls),
(1026,992,o),
(1298,1204,o),
(1298,1520,cs),
(1298,1840,o),
(1022,2048,o),
(642,2048,cs),
(226,2048,l)
);
},
{
closed = 1;
nodes = (
(418,940,l),
(614,940,ls),
(898,940,o),
(1054,810,o),
(1054,566,cs),
(1054,338,o),
(914,192,o),
(674,192,cs),
(618,192,ls),
(334,192,o),
(150,78,o),
(150,-158,cs),
(150,-398,o),
(342,-540,o),
(518,-616,c),
(630,-436,l),
(550,-400,o),
(410,-328,o),
(410,-184,cs),
(410,-92,o),
(466,-28,o),
(606,-28,cs),
(674,-28,ls),
(1054,-28,o),
(1330,188,o),
(1330,560,cs),
(1330,916,o),
(1066,1100,o),
(618,1100,cs),
(418,1100,l)
);
},
{
closed = 1;
nodes = (
(370,2624,l),
(370,2608,l),
(734,2232,l),
(870,2232,l),
(1238,2608,l),
(1238,2624,l),
(1046,2624,l),
(802,2384,l),
(562,2624,l)
);
}
);
width = 1476;
},
{
background = {
shapes = (
{
closed = 1;
nodes = (
(348,1572,l),
(680,1572,ls),
(851,1572,o),
(959,1536,o),
(960,1424,cs),
(959,1324,o),
(891,1240,o),
(716,1240,cs),
(492,1240,l),
(492,956,l),
(724,956,ls),
(1175,956,o),
(1475,1096,o),
(1476,1500,cs),
(1475,1880,o),
(1167,2004,o),
(680,2004,c),
(348,2004,l)
);
},
{
closed = 1;
nodes = (
(492,804,l),
(700,804,ls),
(923,804,o),
(1047,716,o),
(1048,556,cs),
(1047,464,o),
(939,404,o),
(764,404,cs),
(648,404,ls),
(327,404,o),
(119,252,o),
(120,-44,c),
(119,-332,o),
(255,-564,o),
(652,-616,c),
(772,-320,l),
(703,-292,o),
(583,-240,o),
(584,-140,cs),
(583,-76,o),
(619,-28,o),
(712,-28,cs),
(808,-28,ls),
(1267,-28,o),
(1563,188,o),
(1564,560,cs),
(1563,896,o),
(1247,1080,o),
(704,1080,cs),
(492,1080,l)
);
},
{
closed = 1;
nodes = (
(312,2588,l),
(312,2576,l),
(800,2180,l),
(1144,2180,l),
(1620,2576,l),
(1620,2588,l),
(1168,2588,l),
(972,2428,l),
(772,2588,l)
);
}
);
};
guides = (
{
pos = (268,2232);
}
);
layerId = "5C20EF92-B63D-42A8-8878-93C2863E0093";
shapes = (
{
closed = 1;
nodes = (
(348,1616,l),
(680,1616,ls),
(874,1616,o),
(959,1571,o),
(960,1444,cs),
(961,1319,o),
(877,1240,o),
(716,1240,cs),
(492,1240,l),
(492,956,l),
(724,956,ls),
(1221,956,o),
(1477,1168,o),
(1476,1540,cs),
(1475,1900,o),
(1223,2048,o),
(680,2048,c),
(348,2048,l)
);
},
{
closed = 1;
nodes = (
(492,804,l),
(700,804,ls),
(923,804,o),
(1048,756,o),
(1048,614,cs),
(1048,475,o),
(937,404,o),
(764,404,cs),
(648,404,ls),
(313,404,o),
(120,250,o),
(120,-54,cs),
(120,-365,o),
(300,-570,o),
(652,-616,c),
(772,-320,l),
(646,-269,o),
(584,-213,o),
(584,-136,cs),
(584,-72,o),
(628,-28,o),
(712,-28,cs),
(808,-28,ls),
(1276,-28,o),
(1563,205,o),
(1564,550,cs),
(1563,902,o),
(1253,1080,o),
(704,1080,cs),
(492,1080,l)
);
},
{
closed = 1;
nodes = (
(312,2640,l),
(312,2628,l),
(800,2232,l),
(1144,2232,l),
(1620,2628,l),
(1620,2640,l),
(1168,2640,l),
(972,2480,l),
(772,2640,l)
);
}
);
width = 1672;
}
);
unicode = 1134;
userData = {
interface.gridadjust.original = "{'width': 1459, 'leftMargin': 99, 'rightMargin': 180}";
"interface.width-adjustments" = (
-16
);
};
}
{
glyphname = ksicyrillic;
layers = (
{
background = {
shapes = (
{
closed = 1;
nodes = (
(36,1424,l),
(488,1424,ls),
(785,1424,o),
(934,1331,o),
(936,1144,cs),
(936,925,o),
(736,790,o),
(412,790,cs),
(260,790,l),
(260,726,l),
(416,726,ls),
(769,726,o),
(998,889,o),
(1000,1142,cs),
(1000,1367,o),
(821,1488,o),
(488,1488,cs),
(36,1488,l)
);
},
{
closed = 1;
nodes = (
(260,726,l),
(424,726,ls),
(768,726,o),
(931,621,o),
(932,400,cs),
(931,163,o),
(746,36,o),
(402,36,cs),
(394,36,ls),
(163,36,o),
(19,-74,o),
(20,-250,cs),
(19,-399,o),
(121,-533,o),
(298,-616,c),
(330,-566,l),
(163,-478,o),
(82,-374,o),
(84,-252,cs),
(84,-103,o),
(198,-28,o),
(426,-28,cs),
(434,-28,ls),
(782,-28,o),
(995,135,o),
(996,402,cs),
(995,657,o),
(801,790,o),
(428,790,cs),
(260,790,l)
);
},
{
closed = 1;
nodes = (
(110,2174,l),
(110,2158,l),
(402,1794,l),
(410,1794,l),
(714,2158,l),
(714,2174,l),
(672,2174,l),
(406,1892,l),
(152,2174,l)
);
}
);
};
guides = (
{
pos = (494,2332);
}
);
layerId = "B1F27B51-9973-4381-9301-4FE46FE1CA59";
shapes = (
{
closed = 1;
nodes = (
(4,1472,l),
(456,1472,ls),
(753,1472,o),
(902,1379,o),
(904,1192,cs),
(904,973,o),
(704,838,o),
(380,838,cs),
(228,838,l),
(228,774,l),
(384,774,ls),
(737,774,o),
(966,937,o),
(968,1190,cs),
(968,1415,o),
(789,1536,o),
(456,1536,cs),
(4,1536,l)
);
},
{
closed = 1;
nodes = (
(228,774,l),
(392,774,ls),
(740,774,o),
(899,666,o),
(900,428,cs),
(899,172,o),
(715,36,o),
(370,36,cs),
(362,36,ls),
(131,36,o),
(-13,-74,o),
(-12,-250,cs),
(-13,-399,o),
(89,-533,o),
(266,-616,c),
(298,-566,l),
(131,-478,o),
(50,-374,o),
(52,-252,cs),
(52,-103,o),
(166,-28,o),
(394,-28,cs),
(402,-28,ls),
(752,-28,o),
(963,144,o),
(964,430,cs),
(963,702,o),
(773,838,o),
(396,838,cs),
(228,838,l)
);
},
{
closed = 1;
nodes = (
(78,2128,l),
(78,2112,l),
(370,1748,l),
(378,1748,l),
(682,2112,l),
(682,2128,l),
(640,2128,l),
(374,1846,l),
(120,2128,l)
);
}
);
width = 1152;
},
{
background = {
shapes = (
{
closed = 1;
nodes = (
(96,1268,l),
(512,1268,ls),
(732,1268,o),
(836,1176,o),
(836,1064,cs),
(836,940,o),
(736,852,o),
(484,852,cs),
(288,852,l),
(288,688,l),
(488,688,ls),
(864,688,o),
(1112,848,o),
(1112,1060,cs),
(1112,1328,o),
(856,1488,o),
(512,1488,cs),
(96,1488,l)
);
},
{
closed = 1;
nodes = (
(288,632,l),
(484,632,ls),
(732,632,o),
(868,560,o),
(868,412,cs),
(868,284,o),
(748,192,o),
(548,192,cs),
(488,192,ls),
(204,192,o),
(20,84,o),
(20,-168,c),
(24,-392,o),
(216,-540,o),
(388,-616,c),
(500,-436,l),
(420,-400,o),
(280,-328,o),
(280,-180,cs),
(280,-92,o),
(336,-28,o),
(480,-28,cs),
(548,-28,ls),
(892,-28,o),
(1144,136,o),
(1144,420,cs),
(1144,660,o),
(904,796,o),
(488,796,cs),
(288,796,l)
);
},
{
closed = 1;
nodes = (
(140,2112,l),
(140,2096,l),
(504,1720,l),
(640,1720,l),
(1008,2096,l),
(1008,2112,l),
(816,2112,l),
(572,1872,l),
(332,2112,l)
);
}
);
};
guides = (
{
pos = (840,1722);
}
);
layerId = "C698F293-3EC0-4A5A-A3A0-0FDB1F5CF265";
shapes = (
{
closed = 1;
nodes = (
(74,1316,l),
(490,1316,ls),
(701,1316,o),
(814,1247,o),
(814,1118,cs),
(814,977,o),
(681,892,o),
(462,892,cs),
(266,892,l),
(266,728,l),
(466,728,ls),
(842,728,o),
(1090,888,o),
(1090,1132,cs),
(1090,1370,o),
(843,1536,o),
(490,1536,cs),
(74,1536,l)
);
},
{
closed = 1;
nodes = (
(266,672,l),
(462,672,ls),
(720,672,o),
(846,586,o),
(846,430,cs),
(846,275,o),
(725,192,o),
(526,192,cs),
(466,192,ls),
(160,192,o),
(-2,67,o),
(-2,-168,c),
(1,-348,o),
(139,-516,o),
(366,-616,c),
(478,-436,l),
(334,-371,o),
(258,-283,o),
(258,-180,cs),
(258,-81,o),
(328,-28,o),
(458,-28,cs),
(526,-28,ls),
(892,-28,o),
(1122,175,o),
(1122,442,cs),
(1122,718,o),
(889,836,o),
(466,836,cs),
(266,836,l)
);
},
{
closed = 1;
nodes = (
(118,2114,l),
(118,2098,l),
(482,1722,l),
(618,1722,l),
(986,2098,l),
(986,2114,l),
(794,2114,l),
(550,1874,l),
(310,2114,l)
);
}
);
width = 1260;
},
{
background = {
shapes = (
{
closed = 1;
nodes = (
(256,1132,l),
(584,1132,ls),
(742,1132,o),
(842,1112,o),
(844,1024,cs),
(842,940,o),
(790,876,o),
(664,876,cs),
(400,876,l),
(400,664,l),
(668,664,ls),
(1082,664,o),
(1362,780,o),
(1364,1100,cs),
(1362,1396,o),
(1054,1488,o),
(584,1488,c),
(256,1488,l)
);
},
{
closed = 1;
nodes = (
(400,600,l),
(644,600,ls),
(826,600,o),
(930,544,o),
(932,452,cs),
(930,380,o),
(822,328,o),
(636,328,cs),
(540,328,ls),
(254,328,o),
(78,200,o),
(80,-44,c),
(82,-296,o),
(258,-504,o),
(544,-576,c),
(660,-320,l),
(602,-292,o),
(510,-240,o),
(512,-140,cs),
(510,-76,o),
(554,-28,o),
(676,-28,cs),
(748,-28,ls),
(1178,-28,o),
(1450,136,o),
(1452,420,cs),
(1450,660,o),
(1150,796,o),
(652,796,cs),
(400,796,l)
);
}
);
};
guides = (
{
pos = (1164,1720);
}
);
layerId = "5C20EF92-B63D-42A8-8878-93C2863E0093";
shapes = (
{
closed = 1;
nodes = (
(256,1180,l),
(584,1180,ls),
(770,1180,o),
(842,1156,o),
(844,1060,cs),
(846,972,o),
(788,916,o),
(664,916,cs),
(400,916,l),
(400,704,l),
(668,704,ls),
(1129,704,o),
(1362,870,o),
(1364,1140,cs),
(1366,1431,o),
(1119,1536,o),
(584,1536,c),
(256,1536,l)
);
},
{
closed = 1;
nodes = (
(400,640,l),
(644,640,ls),
(830,640,o),
(930,600,o),
(932,492,cs),
(934,383,o),
(837,328,o),
(636,328,cs),
(540,328,ls),
(245,328,o),
(78,193,o),
(80,-44,c),
(82,-299,o),
(261,-505,o),
(544,-576,c),
(660,-320,l),
(561,-272,o),
(511,-211,o),
(512,-140,cs),
(510,-67,o),
(567,-28,o),
(676,-28,cs),
(748,-28,ls),
(1193,-28,o),
(1454,166,o),
(1452,440,cs),
(1450,714,o),
(1163,836,o),
(652,836,cs),
(400,836,l)
);
},
{
closed = 1;
nodes = (
(248,2128,l),
(248,2116,l),
(736,1720,l),
(1080,1720,l),
(1560,2116,l),
(1560,2128,l),
(1108,2128,l),
(908,1968,l),
(708,2128,l)
);
}
);
width = 1650;
}
);
unicode = 1135;
userData = {
interface.gridadjust.original = "{'width': 1356, 'leftMargin': 99, 'rightMargin': 134}";
"interface.width-adjustments" = (
-16
);
};
}
{
glyphname = Otcyrillic;
layers = (
{
layerId = "B1F27B51-9973-4381-9301-4FE46FE1CA59";
shapes = (
{
closed = 1;
nodes = (
(1052,2176,l),
(1116,2176,l),
(1116,2412,l),
(1576,2412,l),
(1576,2476,l),
(592,2476,l),
(592,2412,l),
(1052,2412,l)
);
},
{
closed = 1;
nodes = (
(1052,436,ls),
(1052,166,o),
(939,36,o),
(704,36,cs),
(464,36,o),
(354,162,o),
(354,436,cs),
(354,2048,l),
(290,2048,l),
(290,436,ls),
(290,127,o),
(428,-28,o),
(704,-28,cs),
(975,-28,o),
(1116,131,o),
(1116,436,cs),
(1116,1128,l),
(1052,1128,l)
);
},
{
closed = 1;
nodes = (
(1814,436,ls),
(1814,162,o),
(1704,36,o),
(1464,36,cs),
(1229,36,o),
(1116,166,o),
(1116,436,cs),
(1116,1128,l),
(1052,1128,l),
(1052,436,ls),
(1052,131,o),
(1193,-28,o),
(1464,-28,cs),
(1740,-28,o),
(1878,127,o),
(1878,436,cs),
(1878,2048,l),
(1814,2048,l)
);
}
);
width = 2166;
},
{
layerId = "C698F293-3EC0-4A5A-A3A0-0FDB1F5CF265";
shapes = (
{
closed = 1;
nodes = (
(1102,2176,l),
(1350,2176,l),
(1350,2352,l),
(1806,2352,l),
(1802,2508,l),
(670,2508,l),
(670,2352,l),
(1102,2352,l)
);
},
{
closed = 1;
nodes = (
(1102,544,ls),
(1102,312,o),
(966,200,o),
(778,200,cs),
(622,200,o),
(474,312,o),
(474,544,cs),
(474,2048,l),
(226,2048,l),
(226,544,ls),
(226,160,o),
(458,-28,o),
(778,-28,cs),
(1098,-28,o),
(1334,160,o),
(1334,544,cs),
(1334,2048,l),
(1102,2048,l)
);
},
{
closed = 1;
nodes = (
(1982,544,ls),
(1982,312,o),
(1822,200,o),
(1650,200,cs),
(1478,200,o),
(1350,312,o),
(1350,544,cs),
(1350,2048,l),
(1122,2048,l),
(1122,544,ls),
(1122,160,o),
(1338,-28,o),
(1650,-28,cs),
(1970,-28,o),
(2226,160,o),
(2226,544,cs),
(2226,2048,l),
(1982,2048,l)
);
}
);
width = 2452;
},
{
layerId = "5C20EF92-B63D-42A8-8878-93C2863E0093";
shapes = (
{
closed = 1;
nodes = (
(1324,2176,l),
(1584,2176,l),
(1584,2352,l),
(2144,2352,l),
(2140,2564,l),
(796,2564,l),
(796,2352,l),
(1324,2352,l)
);
},
{
closed = 1;
nodes = (
(1200,728,ls),
(1200,516,o),
(1128,400,o),
(952,400,cs),
(756,400,o),
(688,520,o),
(688,728,cs),
(688,1988,l),
(132,1988,l),
(132,728,ls),
(132,244,o),
(480,-28,o),
(952,-28,cs),
(1344,-28,o),
(1640,244,o),
(1640,728,cs),
(1640,1988,l),
(1200,1988,l)
);
},
{
closed = 1;
nodes = (
(2260,728,ls),
(2260,516,o),
(2196,400,o),
(2008,400,cs),
(1824,400,o),
(1748,516,o),
(1748,728,cs),
(1748,1988,l),
(1308,1988,l),
(1308,728,ls),
(1308,244,o),
(1612,-28,o),
(2008,-28,cs),
(2472,-28,o),
(2808,244,o),
(2808,728,cs),
(2808,1988,l),
(2260,1988,l)
);
}
);
width = 2940;
}
);
unicode = 1150;
userData = {
interface.gridadjust.original = "{'width': 2471, 'leftMargin': 248, 'rightMargin': 159}";
"interface.width-adjustments" = (
-16
);
};
}
{
glyphname = koppacyrillic;
kernLeft = c;
kernRight = c;
layers = (
{
background = {
shapes = (
{
closed = 1;
nodes = (
(422,38,o),
(212,306,o),
(212,708,cs),
(212,784,ls),
(212,1179,o),
(424,1451,o),
(744,1452,cs),
(1010,1452,o),
(1215,1266,o),
(1216,1024,c),
(1280,1024,l),
(1279,1301,o),
(1043,1516,o),
(744,1516,cs),
(389,1516,o),
(148,1213,o),
(148,784,cs),
(148,708,ls),
(148,272,o),
(385,-28,o),
(706,-28,c),
(706,36,l)
);
},
{
closed = 1;
nodes = (
(666,36,l),
(666,-560,l),
(730,-560,l),
(730,36,l)
);
}
);
};
layerId = "B1F27B51-9973-4381-9301-4FE46FE1CA59";
shapes = (
{
closed = 1;
nodes = (
(390,38,o),
(180,306,o),
(180,708,cs),
(180,784,ls),
(180,1223,o),
(392,1495,o),
(712,1496,cs),
(978,1497,o),
(1183,1310,o),
(1184,1024,c),
(1248,1024,l),
(1247,1345,o),
(1011,1560,o),
(712,1560,cs),
(357,1560,o),
(116,1257,o),
(116,784,cs),
(116,708,ls),
(116,272,o),
(353,-28,o),
(674,-28,c),
(674,36,l)
);
},
{
closed = 1;
nodes = (
(634,36,l),
(634,-560,l),
(698,-560,l),
(698,36,l)
);
}
);
width = 1358;
},
{
background = {
shapes = (
{
closed = 1;
nodes = (
(524,192,o),
(420,464,o),
(420,716,cs),
(420,772,ls),
(420,1024,o),
(528,1296,o),
(796,1296,c),
(980,1296,o),
(1120,1148,o),
(1120,976,c),
(1380,976,l),
(1380,1276,o),
(1136,1516,o),
(796,1516,cs),
(380,1516,o),
(144,1168,o),
(144,772,cs),
(144,716,ls),
(144,320,o),
(376,-28,o),
(796,-28,c),
(796,192,l)
);
},
{
closed = 1;
nodes = (
(668,192,l),
(668,-528,l),
(944,-528,l),
(944,192,l)
);
}
);
};
layerId = "C698F293-3EC0-4A5A-A3A0-0FDB1F5CF265";
shapes = (
{
closed = 1;
nodes = (
(502,192,o),
(398,464,o),
(398,716,cs),
(398,772,ls),
(398,1064,o),
(506,1336,o),
(766,1336,c),
(958,1336,o),
(1098,1188,o),
(1098,976,c),
(1358,976,l),
(1358,1316,o),
(1114,1556,o),
(774,1556,cs),
(358,1556,o),
(122,1208,o),
(122,772,cs),
(122,716,ls),
(122,320,o),
(354,-28,o),
(774,-28,c),
(774,192,l)
);
},
{
closed = 1;
nodes = (
(646,192,l),
(646,-528,l),
(922,-528,l),
(922,192,l)
);
}
);
width = 1476;
},
{
background = {
shapes = (
{
closed = 1;
nodes = (
(681,384,o),
(653,548,o),
(652,732,cs),
(652,756,ls),
(653,936,o),
(681,1104,o),
(884,1104,c),
(1017,1104,o),
(1061,1012,o),
(1060,896,c),
(1548,896,l),
(1549,1304,o),
(1285,1516,o),
(884,1516,cs),
(389,1516,o),
(141,1196,o),
(140,756,cs),
(140,732,ls),
(141,288,o),
(389,-28,o),
(888,-28,c),
(888,384,l)
);
},
{
closed = 1;
nodes = (
(728,384,l),
(728,-476,l),
(1248,-476,l),
(1248,384,l)
);
}
);
};
guides = (
{
angle = 90;
pos = (976,0);
},
{
angle = 90;
pos = (1256,0);
}
);
layerId = "5C20EF92-B63D-42A8-8878-93C2863E0093";
shapes = (
{
closed = 1;
nodes = (
(681,384,o),
(652,548,o),
(652,732,cs),
(652,776,ls),
(652,976,o),
(681,1144,o),
(874,1144,cs),
(1017,1144,o),
(1061,1052,o),
(1060,896,c),
(1548,896,l),
(1549,1344,o),
(1285,1556,o),
(884,1556,cs),
(389,1556,o),
(140,1236,o),
(140,776,cs),
(140,732,ls),
(140,288,o),
(389,-28,o),
(888,-28,c),
(888,384,l)
);
},
{
closed = 1;
nodes = (
(728,384,l),
(728,-476,l),
(1248,-476,l),
(1248,384,l)
);
}
);
width = 1684;
}
);
unicode = 1153;
userData = {
interface.gridadjust.original = "{'width': 1514, 'leftMargin': 135, 'rightMargin': 144}";
"interface.width-adjustments" = (
-16
);
};
}
{
color = (250,227,227,1);
glyphname = uni0489;
layers = (
{
layerId = "B1F27B51-9973-4381-9301-4FE46FE1CA59";
shapes = (
{
closed = 1;
nodes = (
(-790,1548,l),
(-666,2032,l),
(-714,2032,l),
(-858,1566,l),
(-844,1548,l)
);
},
{
closed = 1;
nodes = (
(192,1550,l),
(158,1584,l),
(-274,1356,l),
(-278,1332,l),
(-238,1294,l)
);
},
{
closed = 1;
nodes = (
(482,674,l),
(14,818,l),
(-4,804,l),
(-4,748,l),
(482,626,l)
);
},
{
closed = 1;
nodes = (
(74,-262,l),
(-154,170,l),
(-176,174,l),
(-216,134,l),
(40,-296,l)
);
},
{
closed = 1;
nodes = (
(-832,-576,l),
(-688,-110,l),
(-702,-92,l),
(-756,-92,l),
(-880,-576,l)
);
},
{
closed = 1;
nodes = (
(-1342,88,l),
(-1338,112,l),
(-1378,150,l),
(-1808,-106,l),
(-1774,-140,l)
);
},
{
closed = 1;
nodes = (
(-1552,670,l),
(-1552,726,l),
(-2038,848,l),
(-2038,800,l),
(-1570,656,l)
);
},
{
closed = 1;
nodes = (
(-1394,1212,l),
(-1354,1252,l),
(-1610,1682,l),
(-1644,1648,l),
(-1416,1216,l)
);
}
);
width = 0;
},
{
layerId = "C698F293-3EC0-4A5A-A3A0-0FDB1F5CF265";
shapes = (
{
closed = 1;
nodes = (
(-752,1548,l),
(-656,2032,l),
(-788,2032,l),
(-956,1568,l),
(-940,1548,l)
);
},
{
closed = 1;
nodes = (
(200,1516,l),
(108,1612,l),
(-336,1400,l),
(-336,1380,l),
(-204,1244,l)
);
},
{
closed = 1;
nodes = (
(468,716,l),
(12,884,l),
(-8,868,l),
(-8,676,l),
(468,580,l)
);
},
{
closed = 1;
nodes = (
(80,-228,l),
(-124,220,l),
(-148,220,l),
(-280,84,l),
(-8,-328,l)
);
},
{
closed = 1;
nodes = (
(-824,-568,l),
(-656,-104,l),
(-672,-84,l),
(-860,-84,l),
(-956,-568,l)
);
},
{
closed = 1;
nodes = (
(-1280,8,l),
(-1280,28,l),
(-1412,164,l),
(-1816,-112,l),
(-1720,-204,l)
);
},
{
closed = 1;
nodes = (
(-1608,596,l),
(-1608,788,l),
(-2084,884,l),
(-2084,748,l),
(-1628,580,l)
);
},
{
closed = 1;
nodes = (
(-1472,1184,l),
(-1336,1316,l),
(-1608,1728,l),
(-1696,1636,l),
(-1496,1184,l)
);
}
);
width = 0;
},
{
layerId = "5C20EF92-B63D-42A8-8878-93C2863E0093";
shapes = (
{
closed = 1;
nodes = (
(-784,1548,l),
(-680,2032,l),
(-820,2032,l),
(-996,1568,l),
(-980,1548,l)
);
},
{
closed = 1;
nodes = (
(224,1516,l),
(124,1612,l),
(-344,1400,l),
(-348,1380,l),
(-204,1244,l)
);
},
{
closed = 1;
nodes = (
(504,716,l),
(24,884,l),
(4,868,l),
(4,676,l),
(504,580,l)
);
},
{
closed = 1;
nodes = (
(96,-228,l),
(-124,220,l),
(-148,220,l),
(-288,84,l),
(-4,-328,l)
);
},
{
closed = 1;
nodes = (
(-860,-568,l),
(-680,-104,l),
(-696,-84,l),
(-896,-84,l),
(-996,-568,l)
);
},
{
closed = 1;
nodes = (
(-1336,8,l),
(-1332,28,l),
(-1476,164,l),
(-1900,-112,l),
(-1800,-204,l)
);
},
{
closed = 1;
nodes = (
(-1680,596,l),
(-1680,788,l),
(-2180,884,l),
(-2180,748,l),
(-1700,580,l)
);
},
{
closed = 1;
nodes = (
(-1536,1184,l),
(-1396,1316,l),
(-1680,1728,l),
(-1776,1636,l),
(-1560,1184,l)
);
}
);
width = 0;
}
);
unicode = 1161;
}
{
glyphname = tetsecyrillic;
kernRight = t;
layers = (
{
layerId = "B1F27B51-9973-4381-9301-4FE46FE1CA59";
shapes = (
{
closed = 1;
nodes = (
(96,1536,l),
(96,1472,l),
(1048,1472,l),
(1048,1536,l)
);
},
{
closed = 1;
nodes = (
(1502,64,l),
(1502,0,l),
(1678,0,l),
(1678,-444,l),
(1718,-444,l),
(1744,64,l)
);
},
{
alignment = -1;
angle = 180;
pos = (1836,1536);
ref = pecyrillic;
}
);
width = 1888;
},
{
layerId = "C698F293-3EC0-4A5A-A3A0-0FDB1F5CF265";
shapes = (
{
closed = 1;
nodes = (
(106,1536,l),
(106,1316,l),
(1082,1316,l),
(1082,1536,l)
);
},
{
closed = 1;
nodes = (
(1514,220,l),
(1514,0,l),
(1594,0,l),
(1594,-440,l),
(1838,-440,l),
(1866,220,l)
);
},
{
angle = 180;
pos = (1876,1536);
ref = pecyrillic;
}
);
width = 1964;
},
{
layerId = "5C20EF92-B63D-42A8-8878-93C2863E0093";
shapes = (
{
closed = 1;
nodes = (
(128,1536,l),
(128,1120,l),
(1148,1120,l),
(1148,1536,l)
);
},
{
closed = 1;
nodes = (
(1404,412,l),
(1404,0,l),
(1556,0,l),
(1556,-440,l),
(2048,-440,l),
(2072,412,l)
);
},
{
angle = 180;
pos = (1952,1536);
ref = pecyrillic;
}
);
width = 2136;
}
);
metricRight = t;
unicode = 1205;
userData = {
interface.gridadjust.original = "{'width': 1898, 'leftMargin': 44, 'rightMargin': 94}";
"interface.width-adjustments" = (
-16
);
};
}
{
glyphname = Enhookcyrillic;
kernLeft = B;
kernRight = H;
layers = (
{
layerId = "B1F27B51-9973-4381-9301-4FE46FE1CA59";
shapes = (
{
closed = 1;
nodes = (
(1656,-232,ls),
(1656,-418,o),
(1586,-508,o),
(1442,-508,cs),
(1412,-508,o),
(1388,-505,o),
(1370,-500,c),
(1370,-564,l),
(1389,-569,o),
(1418,-572,o),
(1448,-572,cs),
(1624,-572,o),
(1720,-452,o),
(1720,-232,cs),
(1720,0,l),
(1656,0,l)
);
},
{
alignment = -1;
ref = H;
}
);
width = 2008;
},
{
layerId = "C698F293-3EC0-4A5A-A3A0-0FDB1F5CF265";
shapes = (
{
closed = 1;
nodes = (
(1566,-160,ls),
(1566,-320,o),
(1474,-368,o),
(1346,-368,cs),
(1318,-368,o),
(1290,-364,o),
(1270,-360,c),
(1270,-564,l),
(1306,-576,o),
(1358,-576,o),
(1406,-576,cs),
(1630,-576,o),
(1814,-428,o),
(1814,-164,cs),
(1814,0,l),
(1566,0,l)
);
},
{
ref = H;
}
);
width = 2040;
},
{
layerId = "5C20EF92-B63D-42A8-8878-93C2863E0093";
shapes = (
{
closed = 1;
nodes = (
(1424,-16,ls),
(1424,-160,o),
(1276,-184,o),
(1152,-184,cs),
(1113,-184,o),
(1037,-178,o),
(1000,-176,c),
(1000,-616,l),
(1009,-616,o),
(1097,-628,o),
(1172,-628,cs),
(1981,-628,o),
(1980,-200,o),
(1980,-56,cs),
(1980,0,l),
(1424,0,l,{
name = hr00;
})
);
},
{
ref = H;
}
);
width = 2112;
}
);
metricLeft = H;
metricRight = H;
unicode = 1223;
userData = {
interface.gridadjust.original = "{'width': 2010, 'leftMargin': 242, 'rightMargin': 244}";
"interface.width-adjustments" = (
-16
);
};
}
{
color = 1;
glyphname = u.sups;
kernLeft = u.sups;
kernRight = u.sups;
layers = (
{
layerId = "B1F27B51-9973-4381-9301-4FE46FE1CA59";
shapes = (
{
closed = 1;
nodes = (
(804,1192,o),
(668,1072,o),
(500,1072,cs),
(328,1072,o),
(204,1192,o),
(204,1368,cs),
(204,2048,l),
(144,2048,l),
(144,1364,ls),
(144,1152,o),
(288,1012,o),
(488,1012,cs),
(636,1012,o),
(748,1084,o),
(796,1188,c),
(804,1188,l),
(804,1024,l),
(864,1024,l),
(864,2048,l),
(804,2048,l),
(804,1372,ls)
);
}
);
userData = {
RMXScaler = {
height = 66.6;
verticalShift = 1024;
width = 66.6;
};
};
width = 1008;
},
{
layerId = "C698F293-3EC0-4A5A-A3A0-0FDB1F5CF265";
shapes = (
{
closed = 1;
nodes = (
(766,1280,o),
(654,1192,o),
(538,1192,cs),
(410,1192,o),
(322,1284,o),
(322,1420,cs),
(322,2048,l),
(110,2048,l),
(110,1388,ls),
(110,1156,o),
(250,1012,o),
(454,1012,cs),
(606,1012,o),
(718,1088,o),
(766,1204,c),
(774,1204,l),
(774,1024,l),
(978,1024,l),
(978,2048,l),
(766,2048,l),
(766,1432,ls)
);
}
);
userData = {
RMXScaler = {
height = 66.6;
verticalShift = 1024;
weight = -50;
width = 66.6;
};
};
width = 1088;
},
{
layerId = "5C20EF92-B63D-42A8-8878-93C2863E0093";
shapes = (
{
closed = 1;
nodes = (
(740,1368,o),
(648,1320,o),
(580,1320,cs),
(504,1320,o),
(452,1376,o),
(452,1476,cs),
(452,2048,l),
(88,2048,l),
(88,1412,ls),
(88,1152,o),
(228,1012,o),
(428,1012,cs),
(592,1012,o),
(696,1100,o),
(740,1216,c),
(752,1216,l),
(752,1024,l),
(1100,1024,l),
(1100,2048,l),
(740,2048,l),
(740,1500,ls)
);
}
);
userData = {
RMXScaler = {
height = 66.6;
verticalShift = 1024;
weight = -300;
width = 66.6;
};
};
width = 1188;
}
);
metricLeft = m.sups;
unicode = 7512;
userData = {
RMXScaler = {
source = u;
};
};
}
{
color = (250,227,227,1);
glyphname = uni1DC7;
layers = (
{
layerId = "B1F27B51-9973-4381-9301-4FE46FE1CA59";
shapes = (
{
closed = 1;
nodes = (
(-918,1724,l),
(-746,2048,l),
(-264,2048,l),
(-264,2112,l),
(-772,2112,l),
(-992,1724,l)
);
}
);
width = 0;
},
{
layerId = "C698F293-3EC0-4A5A-A3A0-0FDB1F5CF265";
shapes = (
{
closed = 1;
nodes = (
(-1024,1704,l),
(-844,1908,l),
(-324,1908,l),
(-324,2112,l),
(-988,2112,l),
(-1256,1704,l)
);
}
);
width = 0;
},
{
layerId = "5C20EF92-B63D-42A8-8878-93C2863E0093";
shapes = (
{
closed = 1;
nodes = (
(-1128,1672,l),
(-952,1860,l),
(-392,1860,l),
(-392,2112,l),
(-1264,2112,l),
(-1548,1672,l)
);
}
);
width = 0;
}
);
unicode = 7623;
}
{
color = (250,227,227,1);
glyphname = uni1DDA;
layers = (
{
layerId = "B1F27B51-9973-4381-9301-4FE46FE1CA59";
shapes = (
{
closed = 1;
nodes = (
(-544,1345,o),
(-423,1461,o),
(-424,1648,cs),
(-428,2408,l),
(-470,2408,l),
(-488,2236,l),
(-488,1636,ls),
(-488,1497,o),
(-584,1408,o),
(-740,1408,cs),
(-851,1408,o),
(-940,1452,o),
(-1030,1552,c),
(-1070,1502,l),
(-977,1398,o),
(-861,1343,o),
(-730,1344,cs)
);
},
{
closed = 1;
nodes = (
(-576,1632,o),
(-459,1769,o),
(-452,1980,c),
(-452,2072,l),
(-460,2296,o),
(-560,2420,o),
(-732,2420,cs),
(-920,2420,o),
(-1056,2248,o),
(-1056,2012,cs),
(-1056,1996,ls),
(-1056,1784,o),
(-928,1632,o),
(-748,1632,cs)
);
},
{
closed = 1;
nodes = (
(-890,1696,o),
(-992,1816,o),
(-992,1994,cs),
(-992,2014,ls),
(-992,2211,o),
(-885,2356,o),
(-740,2356,cs),
(-635,2356,o),
(-531,2276,o),
(-476,2152,c),
(-476,1900,l),
(-535,1766,o),
(-625,1696,o),
(-740,1696,cs)
);
}
);
width = 0;
},
{
layerId = "C698F293-3EC0-4A5A-A3A0-0FDB1F5CF265";
shapes = (
{
closed = 1;
nodes = (
(-652,1352,o),
(-476,1440,o),
(-476,1668,cs),
(-476,2412,l),
(-636,2412,l),
(-656,2244,l),
(-656,1662,ls),
(-656,1548,o),
(-720,1500,o),
(-852,1500,cs),
(-920,1500,o),
(-1004,1524,o),
(-1068,1604,c),
(-1156,1488,l),
(-1080,1392,o),
(-948,1352,o),
(-844,1352,cs)
);
},
{
closed = 1;
nodes = (
(-672,1640,o),
(-576,1780,o),
(-556,2012,c),
(-556,2052,l),
(-576,2284,o),
(-672,2428,o),
(-864,2428,cs),
(-1048,2428,o),
(-1192,2268,o),
(-1192,2040,cs),
(-1192,2024,ls),
(-1192,1804,o),
(-1048,1640,o),
(-864,1640,cs)
);
},
{
closed = 1;
nodes = (
(-960,1784,o),
(-1012,1880,o),
(-1012,2024,cs),
(-1012,2040,ls),
(-1012,2184,o),
(-952,2280,o),
(-828,2280,cs),
(-708,2280,o),
(-644,2216,o),
(-624,2112,c),
(-624,1952,l),
(-652,1848,o),
(-704,1784,o),
(-828,1784,cs)
);
}
);
width = 0;
},
{
layerId = "5C20EF92-B63D-42A8-8878-93C2863E0093";
shapes = (
{
closed = 1;
nodes = (
(-732,1364,o),
(-572,1496,o),
(-572,1700,cs),
(-572,2424,l),
(-792,2424,l),
(-828,2240,l),
(-828,1704,ls),
(-828,1620,o),
(-880,1552,o),
(-984,1552,cs),
(-1068,1552,o),
(-1120,1592,o),
(-1156,1620,c),
(-1264,1468,l),
(-1200,1404,o),
(-1072,1364,o),
(-976,1364,cs)
);
},
{
closed = 1;
nodes = (
(-812,1648,o),
(-740,1832,o),
(-704,2032,c),
(-704,2040,l),
(-740,2260,o),
(-784,2436,o),
(-1000,2436,cs),
(-1204,2436,o),
(-1320,2276,o),
(-1320,2048,cs),
(-1320,2036,ls),
(-1320,1816,o),
(-1204,1648,o),
(-1000,1648,cs)
);
},
{
closed = 1;
nodes = (
(-1024,1848,o),
(-1068,1936,o),
(-1068,2036,cs),
(-1068,2048,ls),
(-1068,2156,o),
(-1020,2240,o),
(-932,2240,cs),
(-832,2240,o),
(-804,2172,o),
(-796,2040,c),
(-796,2028,l),
(-804,1920,o),
(-828,1848,o),
(-932,1848,cs)
);
}
);
width = 0;
}
);
unicode = 7642;
}
{
color = (250,227,227,1);
glyphname = uni1DDB;
layers = (
{
layerId = "B1F27B51-9973-4381-9301-4FE46FE1CA59";
shapes = (
{
closed = 1;
nodes = (
(-616,1640,o),
(-497,1686,o),
(-408,1760,c),
(-408,2072,l),
(-736,2072,l),
(-736,2008,l),
(-472,2008,l),
(-472,1788,l),
(-542,1736,o),
(-644,1704,o),
(-742,1704,cs),
(-938,1704,o),
(-1052,1830,o),
(-1052,1990,cs),
(-1052,2094,ls),
(-1052,2293,o),
(-948,2409,o),
(-750,2412,cs),
(-608,2414,o),
(-519,2354,o),
(-484,2236,c),
(-416,2236,l),
(-444,2378,o),
(-562,2476,o),
(-744,2476,cs),
(-964,2476,o),
(-1115,2340,o),
(-1116,2104,cs),
(-1116,1992,ls),
(-1115,1780,o),
(-961,1640,o),
(-742,1640,cs)
);
}
);
width = 0;
},
{
layerId = "C698F293-3EC0-4A5A-A3A0-0FDB1F5CF265";
shapes = (
{
closed = 1;
nodes = (
(-648,1640,o),
(-508,1712,o),
(-476,1760,c),
(-476,2092,l),
(-828,2092,l),
(-828,1944,l),
(-656,1944,l),
(-656,1832,l),
(-680,1808,o),
(-740,1784,o),
(-836,1784,cs),
(-988,1784,o),
(-1032,1860,o),
(-1032,1996,cs),
(-1032,2104,ls),
(-1032,2272,o),
(-972,2328,o),
(-840,2328,cs),
(-724,2328,o),
(-684,2296,o),
(-664,2220,c),
(-500,2220,l),
(-512,2364,o),
(-624,2476,o),
(-840,2476,cs),
(-1052,2476,o),
(-1212,2340,o),
(-1212,2144,cs),
(-1212,1972,ls),
(-1212,1776,o),
(-1052,1640,o),
(-836,1640,cs)
);
}
);
width = 0;
},
{
layerId = "5C20EF92-B63D-42A8-8878-93C2863E0093";
shapes = (
{
closed = 1;
nodes = (
(-714,1640,o),
(-622,1700,o),
(-560,1764,c),
(-560,2092,l),
(-952,2092,l),
(-952,1944,l),
(-808,1944,l),
(-808,1844,l),
(-830,1832,o),
(-858,1832,o),
(-944,1832,cs),
(-1030,1832,o),
(-1090,1896,o),
(-1092,1964,cs),
(-1092,2160,ls),
(-1090,2220,o),
(-1038,2284,o),
(-956,2284,cs),
(-886,2284,o),
(-846,2268,o),
(-832,2196,c),
(-576,2196,l),
(-598,2404,o),
(-738,2476,o),
(-956,2476,cs),
(-1182,2476,o),
(-1342,2340,o),
(-1344,2144,cs),
(-1344,1972,ls),
(-1342,1776,o),
(-1178,1640,o),
(-944,1640,cs)
);
}
);
width = 0;
}
);
unicode = 7643;
}
